<?xml version="1.0" encoding="utf-8"?>
<!-- Generator: Adobe Illustrator 16.0.0, SVG Export Plug-In . SVG Version: 6.00 Build 0)  -->
<!DOCTYPE svg PUBLIC "-//W3C//DTD SVG 1.1//EN" "http://www.w3.org/Graphics/SVG/1.1/DTD/svg11.dtd">
<svg version="1.1" id="Layer_1" xmlns="http://www.w3.org/2000/svg" xmlns:xlink="http://www.w3.org/1999/xlink" x="0px" y="0px"
	 width="4368px" height="1480px" viewBox="0 0 4368 1480" enable-background="new 0 0 4368 1480" xml:space="preserve">
<g>
	<path fill="#F40009" stroke="#ADAFB2" stroke-width="10" stroke-miterlimit="10" d="M2011.622,779.498
		c2.347-1.787,4.059-4.38,4.699-7.393l17.495-31.763c1.926-3.798,1.732-8.309-0.52-11.965c-2.194-3.596-6.184-5.815-10.423-5.83
		l-45.086-0.161c-4.337-0.016-8.357,2.233-10.568,5.911l-5.676,9.401c-0.029,0.04-0.061,0.12-0.101,0.176l-9.862,13.719
		c-1.771,1.397-3.146,3.221-3.92,5.33l-27.264,38.486c-2.874,1.565-5.09,4.24-6.036,7.426l-39.667,43.396
		c-0.264,0.19-0.535,0.448-0.731,0.725l-21.906,21.717c-0.265,0.294-0.571,0.548-0.841,0.864l-8.709,8.76
		c-0.832,0.587-1.562,1.331-2.207,2.178l-7.728,7.795c0,0-0.071,0-0.071,0.04l-8.807,6.313c-2.504,0.799-4.649,2.388-6.19,4.471
		l-6.217,4.51l-13.508,5.072l-13.295,3.265c-0.024-0.095-0.055-0.158-0.125-0.236l0.01-2.797c1.138-1.731,1.873-3.74,2.063-5.948
		l6.943-12.84c1.146-1.198,2.049-2.652,2.626-4.266l21.471-34.371c0.07-0.119,0.172-0.257,0.24-0.394l26.889-43.14l4.695-8.139
		c1.138-1.26,2.053-2.793,2.593-4.526l8.417-12.721c0.297-0.395,0.574-0.809,0.803-1.197l20.35-33.904
		c1.74-1.588,3.007-3.651,3.618-5.979l27.27-45.543l0.159-0.213c3.178-1.941,5.396-5.224,5.873-9.067l29.794-46.28
		c0.942-1.062,1.751-2.26,2.289-3.617l9.197-14.236c0.132-0.197,0.228-0.396,0.335-0.588l19.532-31.229
		c2.373-1.801,4.088-4.458,4.697-7.532l18.535-29.768c1.938-1.626,3.34-3.848,3.984-6.351l6.114-9.829
		c2.145-1.729,3.722-4.189,4.292-7l18.056-29.553c2.454-1.828,4.198-4.558,4.737-7.733l7.988-13.091
		c0.475-0.632,0.913-1.341,1.28-2.048l8.355-13.487c0.91-1.002,1.642-2.124,2.178-3.402l9.333-14.551
		c2.42-3.751,2.632-8.562,0.44-12.511c-2.112-3.952-6.243-6.447-10.713-6.463l-137.397-0.491c-4.099-0.015-7.946,2.06-10.257,5.44
		l-0.266,0.412c-2.882,1.787-5.023,4.716-5.706,8.16l-3.288,4.366l-8.648-8.625c-0.864-0.912-1.83-1.625-2.925-2.217l-7.929-4.601
		c-1.266-1.069-2.718-1.94-4.324-2.477l-1.8-1.014c-1.002-0.595-2.024-0.99-3.128-1.271l-7.067-1.759
		c-0.74-0.28-1.538-0.479-2.376-0.583l-3.494-0.84c-2.994-2.885-7.826-4.141-11.874-2.938l-13.748-1.349
		c-2.727-1.349-6.201-1.639-9.142-0.705l-3.732-0.289c-1.205-0.28-2.573-0.342-3.802-0.289l-0.128,0
		c-1.005-0.061-2.11-0.007-3.146,0.169l-34.894,6.612l-34.05,12.708l-16.123,8.928c-3.932,0.364-7.381,2.557-9.359,5.762
		l-12.971,6.555l-4.654,3.196c-1.038,0.509-2.031,1.177-2.915,1.979l-18.655,12.839c-0.365,0.236-0.742,0.51-1.078,0.786
		l-7.827,5.884c-3.275,0.854-6.02,2.994-7.627,5.863l-3.419,2.552c-2.671,0.856-4.943,2.624-6.49,4.961l-16.997,13.734
		c-2.546,1.056-4.69,2.958-6.028,5.358l-8.137,7.42c-0.101,0.06-0.17,0.138-0.239,0.198l-22.168,22.009
		c-0.24,0.237-0.467,0.471-0.73,0.747l-31.859,33.704c-0.804,0.666-1.513,1.472-2.109,2.337l-18.259,20.096l-11.903,15.879
		c-1.946,1.411-3.42,3.377-4.267,5.679l-6.958,7.367c-0.311,0.276-0.576,0.55-0.845,0.866l-9.042,9.666
		c-2.605,1.384-4.65,3.685-5.696,6.438l-5.431,6.271c-2.272,1.469-4.014,3.591-4.959,6.149l-13.879,18.196l-1.208,1.019
		c-2.799,0.978-5.181,2.903-6.622,5.477l-28.893,34.562c-2.274,1.448-4.054,3.632-4.988,6.191l-4.434,5.598
		c-3.11,1.608-5.458,4.555-6.268,8.059l-5.7,7.307c-1.74,1.298-3.146,3.066-3.988,5.13l-6.068,7.823
		c-3.644,1.625-6.325,4.984-7.039,9.019l-4.762,6.133c-2.34,1.45-4.123,3.652-5.026,6.287l-7.033,7.311
		c-0.236,0.23-0.476,0.429-0.673,0.663l-8.914,9.666c-2.872,1.471-5.088,4-6.094,7.093l-6.806,6.953
		c-0.333,0.252-0.662,0.607-0.966,0.922l-9.175,9.11c-0.435,0.412-0.87,0.807-1.239,1.277l-10.956,10.897
		c-0.535,0.472-1.068,0.981-1.543,1.493l-8.632,8.619c-0.603,0.528-1.205,1.079-1.75,1.727l-8.435,8.466
		c-0.741,0.508-1.334,1.138-1.91,1.848l-8.003,6.786c-1.738,0.823-3.24,2.039-4.407,3.513l-5.862,4.65
		c-1.736,0.799-3.25,2.036-4.455,3.532l-20.04,15.929c-0.038,0.039-0.097,0.078-0.166,0.119l-20.483,15.097
		c-1.774,0.785-3.305,1.999-4.483,3.533l-2.136,1.53c-2.776,0.304-5.246,1.578-7.126,3.445l-9.996,4.297l-8.491,5.251
		c-0.101,0.041-0.199,0.082-0.336,0.116l-9.689,3.83c-0.308,0.155-0.604,0.237-0.9,0.411l-7.46,3.146
		c-0.125,0.037-0.295,0.059-0.463,0.097l-8.282,1.725c-2.472-0.287-5.137,0.358-7.25,1.51l-3.299,0.499
		c-0.8-0.14-1.606-0.046-2.437,0.055l-6.109,0.153c-1.507-0.359-3.073-0.386-4.541-0.135l-7.196-1.815
		c-0.098-0.064-0.21-0.064-0.277-0.064l-4.795-1.219c-1.268-1.209-2.758-2.08-4.433-2.659l-7.492-5.264l-6.114-6.15l-0.985-3.121
		c-0.069-0.193-0.137-0.354-0.205-0.551l-5.409-16.374l-0.112-24.34l5.5-28.181c0.639-1.454,1.016-3.129,1.022-4.86l11.36-31.947
		c0.027-0.076,0.098-0.195,0.168-0.314l8.882-19.931c0.869-1.199,1.544-2.538,1.912-3.992l15.062-31.46l3.022-4.775
		c2.481-1.883,4.263-4.556,4.833-7.708l29.57-46.715c1.306-1.258,2.346-2.869,2.953-4.625l28.874-39.326
		c1.739-1.375,3.115-3.186,3.922-5.231l4.393-5.796c3.378-1.725,5.821-4.887,6.536-8.686l5.235-6.526
		c1.602-1.097,2.944-2.633,3.878-4.379l5.696-6.444c3.851-1.405,6.8-4.665,7.738-8.705l3.524-3.929
		c3.078-1.466,5.425-4.117,6.5-7.344l4.083-4.302c4.085-1.171,7.302-4.426,8.448-8.542l1.541-1.554
		c3.207-0.854,5.942-2.992,7.559-5.787l7.84-7.203c0,0,0.03-0.041,0.06-0.041l8.808-7.965c2.577-1.075,4.68-3.003,5.989-5.461
		l7.334-6.594c0.308-0.255,0.573-0.489,0.842-0.747l0.058-0.039c0.069-0.075,0.139-0.158,0.208-0.271l5.526-5.046
		c2.565-0.92,4.777-2.685,6.254-4.986l3.747-2.569c3.674-0.539,6.816-2.694,8.669-5.72l6.319-4.198
		c0.267-0.115,0.535-0.331,0.801-0.525l5.482-3.981c3.413-0.738,6.288-2.817,8.003-5.727l3.143-2.233
		c2.64-0.267,5.049-1.404,6.917-3.13l2.142-0.858c3.203-0.071,6.074-1.278,8.22-3.306l1.875-0.718
		c2.475,0.009,4.741-0.733,6.607-1.947l7.751-2.144l11.619,0.042c1.533,1.033,3.295,1.749,5.192,1.99l6.523,6.016l1.039,6.391
		l-0.34,1.927l-2.633,0.524c-3.533-0.882-7.644-0.088-10.453,2.032l-20.64,4.93l-18.824,9.668l-27.552,25.285
		c-0.07,0-0.138,0.057-0.138,0.057c-0.031,0.062-0.098,0.14-0.098,0.14s-0.043,0-0.043,0.061c-0.055,0-0.055,0.016-0.096,0.057
		c-0.03,0.037-0.03,0.078-0.098,0.116c-0.802,0.886-1.546,1.966-2.082,3.11l-8.835,18.058c-1.046,1.332-1.783,2.868-2.194,4.543
		l-8.723,33.708l-0.059,16.414c-0.006,1.655,0.315,3.309,0.979,4.853l6.088,14.366c0.831,1.896,2.096,3.534,3.727,4.822
		c1.258,1.661,3.025,2.97,4.992,3.803l4.46,3.329c1.589,2.569,4.054,4.482,7.056,5.361l0.06,0.059
		c1.57,1.191,3.403,1.964,5.331,2.304l4.375,0.747c2.3,1.286,5.234,1.812,7.896,1.352h0.039c1.165,0.179,2.336,0.223,3.566,0.088
		l1.806-0.229c2.765,0.68,5.971,0.257,8.487-1.032l5.936-0.708c1.201-0.136,2.404-0.427,3.47-0.895l10.027-3.963
		c1.54-0.627,2.942-1.53,4.119-2.726l6.459-4.922c2.339-0.509,4.411-1.72,6.014-3.372l3.418-1.954
		c0.966-0.549,1.836-1.201,2.607-1.965l3.955-3.927c0.127-0.119,0.227-0.276,0.335-0.393l11.413-11.389
		c0.535-0.429,1.047-0.924,1.513-1.456l21.92-26.446l9.4-16.954c2.373-1.919,4.019-4.716,4.434-7.924l7.526-13.588l6.909-19.012
		l4.345-30.414l0.065-18.404c0.004-1.146-0.121-2.208-0.451-3.275l-6.918-24.814l-9.285-18.363l-6.139-8.199
		c-1-1.343-2.266-2.45-3.693-3.324l-7.896-4.421c-1.434-1.346-3.164-2.358-5.097-2.897l-2.787-2.276
		c-1.566-2.883-4.257-5.078-7.489-5.997c-0.876-0.673-1.837-1.21-2.833-1.626l-20.462-8.272c-1.063-0.435-2.235-0.715-3.408-0.84
		l-15.404-1.437c-1.931-0.714-4.205-0.919-6.305-0.574l-3.643-0.366c-3.159-2.001-7.66-2.432-11.209-1.026l-1.232-0.081
		c-2.03-0.798-4.46-1.042-6.64-0.618l-1.331-0.142l-3.133,0.402c-3.241-0.955-7.073-0.438-9.918,1.289l-3.577,0.44
		c-2.571-0.482-5.411-0.142-7.679,0.995l-10.578,1.284l-4.882,1.519c-2.366,0.049-4.578,0.792-6.412,1.988l-7.181,2.162
		c-1.44,0.171-2.812,0.603-4.086,1.266l-46.91,19.383l-7.738,5.745c-0.03,0.042-0.07,0.042-0.097,0.079l-10.837,7.293
		c-0.965,0.509-1.874,1.097-2.675,1.764l-5.059,3.409c-2.871,0.698-5.338,2.427-7.049,4.744l-4.951,3.333
		c-3.144,0.657-5.824,2.542-7.565,5.099l-1.205,0.806c-4.278,0.394-7.953,2.984-9.839,6.642l-3.073,2.059
		c-2.275,0.681-4.24,2.054-5.716,3.863l-6.193,4.155c-2.87,0.816-5.281,2.581-6.896,4.981l-5.619,4.081
		c-1.265,0.587-2.41,1.449-3.342,2.43l-17.612,15.231c-3.068,0.994-5.615,3.168-7.055,6.003l-7.634,6.751
		c-0.276,0.274-0.504,0.515-0.768,0.788l-14.004,13.918c-0.939,0.924-1.741,1.986-2.347,3.168l-2.41,2.551
		c-1.334,0.626-2.54,1.45-3.588,2.528l-32.374,32.146c-0.336,0.354-0.711,0.709-1.008,1.04l-28.425,24.43l-36.787,23.283
		l-3.178,1.252c-2.139,0.267-4.076,1.093-5.713,2.304l-4.775,1.679c-2.837-0.485-5.481,0.81-7.556,2.415l-0.395,0.019l7.228-15.426
		c1.109-1.396,1.944-3.127,2.324-4.957l12.301-26.188l8.53-31.696l0.271-1.476c1.239-1.948,1.944-4.189,1.953-6.674l6.082-38.781
		c0.269-1.401,0.274-2.835,0.083-4.233l-4.242-25.597l-1.655-6.549l0.01-2.761c0.01-2.873-0.946-5.517-2.572-7.575l-6.313-17.288
		c-0.498-1.357-1.291-2.68-2.225-3.768l-12.855-14.412c-0.902-1.58-2.166-2.963-3.632-3.994l-7.253-5.229
		c-1.589-2.294-3.924-4.035-6.654-4.814l-0.335-0.215c-0.864-0.614-1.798-1.152-2.801-1.53l-18.53-6.802l-24.744-4.406l-1.735-0.006
		c-0.268-0.001-0.463-0.002-0.67-0.003l-9.076,0.009c-0.532-0.043-1.171-0.064-1.664,0.03l-8.277-0.029
		c-1.469-0.143-3.036-0.011-4.438,0.378l-4.442,0.38c-1.397-0.521-2.933-0.878-4.54-0.884c-2.435-0.009-4.701,0.732-6.608,1.926
		l-2.14,0.189c-2.471-0.263-5.206,0.181-7.344,1.374l-2.942,0.658c-2.793-0.36-5.736,0.336-8.083,1.785l-9.016,2.628
		c-0.403,0.098-0.811,0.196-1.203,0.371l-18.812,6.242l-13.371,5.684c-0.701,0.255-1.363,0.528-2.034,0.862l-6.483,2.775
		c-1.973,0.327-3.779,1.108-5.323,2.286l-18.451,10.178l-0.068,0.063c-3.039,0.836-5.586,2.793-7.192,5.392l-0.534,0.296
		c-3.773,0.202-7.082,2.141-9.201,5.029l-13.868,7.558l-3.382,2.548c-1.972,0.82-3.711,2.075-5.019,3.726l-7.794,5.845
		c-0.208,0.12-0.336,0.201-0.504,0.354l-7.568,5.847c-3.444,0.814-6.349,3.092-7.994,6.161l-2.748,2.118
		c-3.205,0.891-5.885,3.054-7.459,5.925l-28.523,23.977c-1.233,0.784-2.301,1.747-3.241,2.868l-8.977,8.797
		c-0.201,0.255-0.466,0.451-0.663,0.706l-7.041,6.875c-3.515,1.09-6.351,3.738-7.732,7.144l-3.786,3.493
		c-2.535,1.113-4.652,3.078-5.96,5.495l-40.003,43.251l-12.965,16.801c-1.077,0.968-1.979,2.162-2.653,3.445L626.1,660.19
		c-2.577,1.726-4.52,4.418-5.199,7.626l-7.011,10.321c-1.04,1.062-1.911,2.281-2.52,3.695l-18.481,27.602
		c-2.778,1.92-4.659,4.99-5.135,8.494l-6.812,11.288c-1.412,1.377-2.453,3.106-3.062,5.075l-9.227,15.297
		c-1.473,1.455-2.586,3.265-3.191,5.291l-20.308,41.946l-11.207,28.433c-0.944,1.417-1.58,3.028-1.893,4.762l-8.725,24.327
		c-1.073,1.728-1.689,3.736-1.796,5.864L511.24,894.21l-4.284,41.365l2.111,23.636l4.059,22.561
		c0.193,1.143,0.527,2.287,1.053,3.314l7.387,14.556c0.43,1.396,1.095,2.659,1.929,3.767l18.436,24.837l12.44,9.622l2.301,1.131
		c1.895,2.258,4.626,3.801,7.659,4.244l2.024,1.27c2.462,3.279,6.802,5.186,10.873,4.967l29.744,6.293l3.399-0.027
		c0.462,0.041,1.033,0.044,1.537,0.006l8.012-0.012c0.965,0.124,1.929,0.087,2.896-0.01l6.917-0.012
		c2.167,0.377,4.502,0.052,6.466-0.745l7.356-1.119c1.596,0.006,3.034-0.204,4.406-0.69l17.228-3.369
		c1.801-0.113,3.507-0.621,5.008-1.445l47.926-18.644l36.455-21.489l13.186-11.346l13.186-8.782l56.246-53.671
		c0.209-0.237,0.474-0.473,0.672-0.727l9.644-10.04c2.173-1.333,3.924-3.255,4.966-5.578l4.594-5.265l1.972-0.977
		c1.164-0.548,2.231-1.353,3.172-2.274l17.927-20.472c2.606-1.447,4.614-3.808,5.602-6.684l7.88-10.138v-0.038l8.3-9.256
		c3.08-1.423,5.491-4.097,6.539-7.348l5.964-6.221c1.04-0.787,1.979-1.729,2.71-2.828l9.664-13.487
		c0.059-0.038,0.059-0.057,0.128-0.116l10.795-12.929l31.963-46.061c2.646-1.86,4.589-4.731,5.143-8.057l21.908-34.114l6.5-15.508
		c0.602-0.47,1.135-1,1.671-1.527c2.332,0.145,4.57-0.261,6.506-1.241l13.925-1.13c2.698,0.718,5.773,0.453,8.25-0.662l0.029,0
		l-27.026,44.341c-0.801,1-1.478,2.083-1.947,3.227l-6.043,9.906l-17,42.076l-8.967,33.982c-1.31,1.923-2.047,4.247-2.056,6.769
		l-8.323,40.509l-2.213,51.246c-0.072,1.205,0.051,2.45,0.383,3.65l8.526,32.172l1.159,3.632c-0.014,3.779,1.708,7.176,4.372,9.471
		l13.469,21.864l7.247,7.181c0.639,0.789,1.334,1.503,2.13,2.097l9.324,7.44c0.688,0.716,1.492,1.269,2.357,1.782l8.717,6.438
		l3.167,1.569c0.669,0.433,1.396,0.79,2.138,1.049l13.19,6.533l15.531,4.391l11.414,2.031c2.857,2.079,6.995,2.806,10.563,1.874
		l8.305,0.499c0.434-0.038,0.809,0.003,1.204-0.036l8.71,0.031c0.628,0.084,1.268,0.005,1.902,0.007l8.078,0.029
		c0.798,0.083,1.606,0.087,2.474,0.009l9.577-0.026c0.965,0.179,1.959,0.148,2.964,0.011l5.246-0.395
		c3.228,1.036,7.033,0.498,9.907-1.229l2.541-0.303c1.934,0.205,3.945-0.144,5.682-0.727l13.345-1.687l5.622-1.597
		c1.835-0.113,3.569-0.621,5.142-1.445l28.74-10.176l24.402-13.242c1.936-0.604,3.674-1.679,5.085-3.054l5.351-3.13
		c1.669-0.529,3.14-1.391,4.417-2.509l7.453-4.252c0.56-0.251,1.104-0.607,1.568-0.919l11.775-7.782
		c0.333-0.194,0.668-0.392,0.938-0.646l28.441-20.352c3.202-0.779,5.921-2.78,7.596-5.456l15.222-10.801
		c0.898-0.646,1.741-1.392,2.442-2.34l1.041-1.351c2.504-1.548,4.387-3.984,5.265-6.86l2.571-2.161
		c2.743-0.954,5.015-2.815,6.464-5.237l3.449-2.806c3.008-0.919,5.517-2.976,7.025-5.709l5.525-4.57
		c3.037-1.014,5.518-3.176,6.997-6.005l7.531-6.638l-6.201,25.638l0.097,30.901l3.991,22.576c0.189,1.165,0.592,2.231,1.08,3.313
		l3.523,6.855c0.361,1.025,0.82,1.971,1.448,2.842l14.547,20.943c1.03,1.341,2.296,2.468,3.723,3.319l3.291,1.902
		c1.672,1.742,3.794,2.99,6.199,3.571l8.536,4.604c0.795,0.495,1.593,0.912,2.498,1.175l8.158,3.235
		c1.769,0.994,3.838,1.593,6.031,1.601l7.643,2.037l19.881,0.938c2.898,1.451,6.604,1.637,9.614,0.509l1.833,0.085
		c2.235,0.794,4.835,0.905,7.172,0.302l6.678,0.339l0.532-0.08c2.403,0.485,5.067,0.018,7.276-0.956l10.951-1.499l4.146-1.403
		c2.405-0.108,5.707-0.964,7.88-2.653l4.146-1.442c3.337,0.171,6.142-0.925,8.353-2.785l13.968-7.402
		c3.148-0.325,5.99-1.848,7.959-4.109l12.24-6.263l15.965-11.509l5.188-5.229c0.733-0.627,1.437-1.292,2.038-2.095l4.994-4.186
		c2.171-0.858,4.078-2.328,5.453-4.195l3.916-3.688c3.639-1.093,6.584-3.801,7.966-7.383l3.017-2.477
		c2.269-0.401,4.339-1.459,6.02-2.934l-0.055,15.414c-0.004,1.339,0.188,2.641,0.587,3.884l6.1,18.504
		c0.371,1.144,0.899,2.214,1.558,3.145l14.282,20.585c0.695,0.964,1.532,1.835,2.452,2.607c1.335,1.66,3.064,2.964,5.062,3.821
		l3.389,2.552c1.045,0.753,2.204,1.409,3.472,1.849l0.534,0.176c2.192,1.669,5.302,2.623,8.029,2.512l17.84,4.144l3.302,0.013
		c0.571,0.002,1.202,0.004,1.773,0.006l7.747-0.029c1.034,0.082,2.195,0.124,3.298-0.029l8.378-0.048
		c1.467,0.24,3.073,0.246,4.503-0.022l32.624-5.972c1.274-0.235,2.507-0.646,3.609-1.23l19.725-9.784
		c0.404-0.154,0.771-0.351,1.131-0.543l10.941-5.442c0.631-0.275,1.233-0.587,1.837-0.94l9.233-5.56
		c0.063-0.044,0.126-0.063,0.227-0.118l8.035-3.993c0.926-0.468,1.794-1.021,2.569-1.726l12.421-10.832
		c1.373-0.765,2.578-1.805,3.549-2.984l15.489-11.215l1.007-1.022c3.629-1.056,6.578-3.763,7.97-7.304l4.951-4.023
		c1.136-0.668,2.168-1.484,3.044-2.491l6.521-5.316c1.68-0.8,3.153-1.979,4.291-3.453l6.829-6.182
		c3.071-1.13,5.621-3.492,7.001-6.48l4.851-4.495c1.87-0.999,3.451-2.411,4.588-4.182l15.977-17.401
		c3.875-1.206,6.892-4.271,8.109-8.129l6.623-6.679c0.376-0.315,0.717-0.647,1.04-0.979l8.979-8.996
		c0.563-0.451,1.105-0.938,1.573-1.53l9.612-9.82c2.045-1.334,3.656-3.256,4.592-5.502l5.769-6.813
		c1.937-1.275,3.48-3.083,4.454-5.227l6.201-7.288c1.667-1.199,3.005-2.791,3.958-4.62l7.976-9.412
		c2.008-1.272,3.607-3.14,4.551-5.36l6.037-7.093c1.769-1.177,3.213-2.886,4.157-4.855l20.244-27.298
		c1.015-0.982,1.817-2.161,2.421-3.458l6.941-9.987c1.777-1.454,3.114-3.338,3.863-5.523l6.635-9.574
		c3.278-1.802,5.695-5.105,6.238-9.004L2011.622,779.498z M928.224,712.488l-20.54,31.672c-0.058,0.099-0.127,0.179-0.159,0.216
		l-9.724,13.562c-0.376,0.434-0.712,0.905-0.981,1.417l-9.266,14.866l-0.059,0.078l-10.055,12.143
		c-1.68,1.175-3.014,2.83-3.889,4.679l-6.104,7.345c-1.908,1.293-3.411,3.141-4.355,5.229l-17.356,20.766
		c-2.27,1.272-4.09,3.257-5.166,5.62l-11.322,12.193l-4.449,3.867c-2.812,1.078-5.117,3.117-6.535,5.713l-17.509,16.728
		c-0.703,0.569-1.373,1.234-1.94,1.964l-5.723,5.854c-3.148,0.813-5.755,2.814-7.372,5.488l-6.349,4.196
		c-0.199,0.118-0.405,0.234-0.563,0.372l-17.798,12.213c-3.245,0.616-6.02,2.505-7.832,5.097l-10.052,2.821l-19.961-0.071
		l-8.027-4.029l-7.151-6.962l-6.162-12.046l-0.253-23.252l7.999-31.543c0.258-0.803,0.467-1.632,0.598-2.541l7.768-22.689
		c2.874-2.276,4.75-5.76,4.764-9.698l0.012-3.233l11.079-17.873l11.638-25.302l4.36-6.566c3.249-1.959,5.499-5.344,5.908-9.322
		l5.203-9.617c2.946-2.056,4.928-5.439,5.137-9.262l5.298-7.195c2.016-1.451,3.561-3.514,4.368-5.916l7.376-9.988
		c2.509-1.621,4.391-4.117,5.2-7.093l7.376-10.026l0.539-1.73c0.038-0.058,0.07-0.078,0.099-0.116l9.322-11.182
		c0.603-0.646,1.166-1.298,1.67-2.024l9.213-11.084c1.739-1.252,3.154-2.94,4.06-4.869l4.294-5.188l8.043,10.237
		c0.363,0.434,0.795,0.869,1.257,1.264l8.649,8.665c0.599,0.689,1.188,1.344,1.895,1.858l11.042,9.22
		c0.807,0.833,1.727,1.583,2.76,2.181l6.986,5.582c1.072,1.189,2.338,2.196,3.792,2.932l6.163,4.909
		c1.36,1.738,3.228,3.105,5.355,3.879l36.514,17.077l13.41,2.925C929.441,708.491,928.568,710.398,928.224,712.488z
		 M1005.367,546.121c-0.563,1.455-0.874,2.993-0.879,4.647l-0.021,5.855l-9.574,28.677c-0.138,0.353-0.238,0.691-0.337,1.024
		l-9.835,25.111l-9.078,20.145c-2.018,1.728-3.495,4.129-4.035,6.846l-4.361,7.238c-1.41-0.519-2.765-0.781-4.474-0.727
		l-15.797-4.469c-1.87-1.132-4.074-1.751-6.371-1.759l-1.464-0.441c-2.061-2.095-4.865-3.486-7.999-3.694l-3.699-1.845
		c-2.128-2.507-5.254-4.156-8.794-4.366l-0.205-0.061c-1.919-3.315-5.349-5.635-9.319-6.043l-1.56-1.152
		c-1.5-2.111-3.665-3.674-6.165-4.53l-4.825-3.505c-0.987-2.31-2.685-4.209-4.818-5.556l-3.314-5.016l-1.061-3.607
		c-0.061-1.956-0.615-3.77-1.516-5.351l-2.223-11.948l11.064-33.229c1.267-1.451,2.279-3.184,2.759-5.111l5.756-6.384
		c2.942-1.388,5.214-3.883,6.3-6.975l27.652-26.265c1.484-0.863,2.748-2.083,3.757-3.46l4.519-3.727
		c0.938-0.33,1.833-0.782,2.635-1.368l8.332-4.349l6.775-1.631c2.041,0.008,4.742-0.513,6.717-1.627l2.74-0.463
		c1.104,0.118,2.169,0.063,3.205-0.068l3.869-0.045l8.173,1.622l6.586,4.046l7.782,9.369l2.377,5.564l-0.001,0.197
		c-0.01,2.919,0.954,5.56,2.61,7.66l1.264,10.567L1005.367,546.121z M1754.642,671.258c-1.737,1.471-3.006,3.4-3.754,5.564
		l-17.307,26.01c-2.91,1.761-5.018,4.674-5.703,8.119l-7.043,10.161c-0.939,0.944-1.709,2.041-2.285,3.283l-21.943,35.495
		c-0.111,0.156-0.208,0.333-0.338,0.549l-8.605,14.04c-1.065,1.139-1.899,2.457-2.475,3.932l-7.789,12.387
		c-1.111,1.157-1.939,2.516-2.547,3.993l-8.127,12.918c-2.478,1.8-4.282,4.515-4.827,7.728l-5.707,8.827
		c-2.211,1.683-3.815,4.083-4.497,6.801l-18.603,22.164c-1.167,1.02-2.176,2.198-2.909,3.537l-14.28,17.567l-24.578,22.81
		c-0.07,0.041-0.139,0.06-0.208,0.116l-22.241,14.013c-0.294,0.213-0.632,0.411-0.896,0.646l-2.609,1.726l-16.021-0.057l-0.528-0.28
		c-0.67-0.392-1.368-0.754-2.095-1.032l-2.539-1.427c-0.496-2.285-1.689-4.377-3.281-6l-0.721-21.446l3.796-17.211
		c0.067-0.079,0.099-0.195,0.129-0.315l18.953-45.452c1.878-1.607,3.254-3.733,3.926-6.175l6.982-10.676
		c1.266-1.296,2.344-2.87,2.952-4.599l18.59-29.238c2.374-1.787,4.085-4.44,4.64-7.513l5.834-9.006
		c2.007-1.589,3.483-3.748,4.228-6.249l6.573-8.453c1.167-1.057,2.177-2.317,2.882-3.773l6.841-8.764
		c3.304-1.661,5.792-4.748,6.573-8.487l5.158-6.685c2.143-1.448,3.786-3.574,4.691-6.013l18.27-22.815
		c2.044-1.47,3.58-3.516,4.427-5.953l6.741-9.06c1.335-1.12,2.405-2.593,3.149-4.192l8.851-11.906
		c0.098-0.159,0.21-0.24,0.269-0.353l10.396-14.231c1.373-1.2,2.483-2.711,3.217-4.402l27.62-32.933
		c2.548-1.429,4.555-3.728,5.561-6.523l5.194-6.047c2.175-1.333,3.925-3.334,4.928-5.737l15.819-18.489l3.58-3.594
		c0.436-0.329,0.801-0.745,1.167-1.138l8.546-8.563c0.838-0.665,1.582-1.413,2.175-2.201l9.681-9.699
		c1.178-0.82,2.243-1.883,3.045-3.063l6.973-6.989c0.058,0,0.129-0.08,0.167-0.08l22.652-16.312c0.27-0.221,0.497-0.414,0.732-0.607
		l4.879-3.593c2.011-0.384,3.892-1.326,5.459-2.579l3.768-1.326c2.004-0.234,3.947-0.935,5.558-2.01l5.542-2.014
		c0.77,0.002,1.537-0.071,2.237-0.189l2.869-0.143l7.866,1.998c1.168,0.912,2.499,1.588,3.903,1.983l1.432,7.358l-4.486,7.331
		c-3.212,2.018-5.434,5.462-5.78,9.418l-6.304,10.289c-1.751,1.612-3.017,3.656-3.627,5.995l-20.415,32.308
		c-0.466,0.545-0.87,1.141-1.207,1.79l-30.79,46.238c-1.207,1.157-2.147,2.574-2.795,4.131L1754.642,671.258z"/>
	<path fill="#F40009" stroke="#ADAFB2" stroke-width="10" stroke-miterlimit="10" d="M2058.083,544.089
		c-1.381,2.244-1.922,4.84-1.727,7.346c-0.041,0.37-0.071,0.691-0.072,1.044c-0.034,9.3,11.83,15.096,19.08,10.317l138.761,0.496
		c4.31,0.015,8.315-2.257,10.565-5.955l61.235-101.232c2.104-1.723,3.65-4.186,4.193-6.96l2.617-4.326
		c2.316-3.756,2.365-8.507,0.242-12.378c-2.182-3.867-6.25-6.248-10.721-6.264l-145.562-0.521c-4.304-0.015-8.31,2.218-10.573,5.914
		l-12.111,20.058c-0.169,0.278-0.376,0.572-0.506,0.865l-8.622,14.26c-2.778,1.921-4.727,4.988-5.177,8.51l-6.807,11.25
		c-1.376,1.414-2.414,3.145-3.023,5.032l-18.732,30.972c-2.147,1.77-3.69,4.227-4.294,7.062L2058.083,544.089z"/>
	<path fill="#F40009" stroke="#ADAFB2" stroke-width="10" stroke-miterlimit="10" d="M1932.423,1331.712
		c-0.386-3.575-2.344-6.665-5.174-8.612l-5.842-8.967c-0.723-1.896-1.917-3.477-3.451-4.757l-5.745-7.888l-4.087-3.721
		c-1.138-1.815-2.764-3.318-4.663-4.312l-4.559-4.168c-1.386-3.283-4.143-5.838-7.58-6.906l-2.129-1.947
		c-1.345-4.671-5.343-8.209-10.28-8.842l-4.026-3.463c-1.057-1.362-2.423-2.572-3.958-3.368l-11.444-9.811l-5.064-3.27
		c-1.694-2.276-4.193-3.918-7.023-4.558l-4.819-3.155c-1.861-2.763-4.761-4.701-8.134-5.229l-2.731-1.822
		c-1.488-1.814-3.455-3.204-5.719-3.956l-7.124-4.956c-1.2-1.289-2.667-2.298-4.267-2.971l-22.2-14.291l-16.093-7.055
		c-1.629-1.895-3.793-3.28-6.296-3.961l-3.968-2.183c-2.219-2.648-5.581-4.354-9.322-4.368c-0.032,0-0.063,0-0.063,0l-13.262-6.156
		c-1.865-2.114-4.401-3.564-7.295-4.047l-9.36-5.332l-29.396-11.754c-1.195-0.733-2.593-1.231-4.062-1.473l-10.271-3.621
		c-0.128-0.043-0.299-0.082-0.464-0.16l-6.466-2.15c-2.062-1.587-4.594-2.542-7.402-2.553c-0.026,0-0.057,0-0.057,0l-1.507-0.495
		c-2.691-2.747-6.924-4.164-10.834-3.447l-13.27-4.151c-2.122-1.502-4.695-2.101-7.53-2.271l-15.308-4.116
		c-2.161-1.466-4.958-2.183-7.628-2.094l-6.004-1.617c-0.169-0.041-0.364-0.12-0.562-0.14l-7.905-2.098
		c-2.396-1.782-5.598-2.7-8.734-2.299l-3.304-0.879c-1.467-0.734-3.093-1.211-4.792-1.299l-15.241-4.035l-24.718-3.752
		c-1.23-0.355-2.137-0.563-3.869-0.569l-27.516-4.153l-48.168-4.153c-0.671-0.101-1.341-0.161-2.07-0.164l-9.951-0.035
		c-0.197-0.001-0.393-0.001-0.591-0.002l-9.52-0.034c-0.295-0.001-0.6-0.002-0.866-0.003l-11.312-0.041
		c-0.365-0.001-0.729-0.002-1.104-0.004l-9.045-0.032c-0.463-0.002-0.866-0.003-1.261-0.004l-8.946-0.032
		c-0.465-0.002-0.935-0.003-1.399-0.005l-10.821-0.039c-0.531-0.002-1.061-0.004-1.557-0.006l-7.713,0.09
		c-1.704-0.278-3.537-0.13-5.134,0.316l-27.045,1.697c-2.125-0.464-4.374-0.256-6.378,0.413l-40.686,3.3
		c-1.201-0.004-2.402,0.131-3.479,0.402l-28.441,3.682c-2.428-0.319-4.836,0.178-6.88,1.199l-4.169,0.693
		c-1.776,0.148-3.706,0.259-5.307,0.965l-6.42,1.141c-0.864,0.016-1.732,0.189-2.531,0.429l-8.686,1.52
		c-1.595-0.162-3.205,0.266-4.606,0.794l-7.68,1.332c-0.266,0.041-0.534,0.115-0.798,0.175l-19.741,3.732
		c-1.233,0.192-3.44,0.322-4.979,0.945l-5.611,1.085c-1.535-0.006-2.995,0.284-4.338,0.797l-6.31,1.194
		c-1.23,0.074-2.436,0.304-3.567,0.698l-7.219,1.374c-2.206-0.21-4.571,0.24-6.507,1.255l-3.917,0.696
		c-2.53-0.132-5.074,0.457-7.147,1.69l-1.934,0.484c-3.329-0.64-6.979,0.39-9.548,2.412l-6.35,1.594
		c-1.007,0.075-1.931,0.343-2.869,0.678l-4.939,1.262c-2.642-0.424-5.343,0.496-7.487,1.867l-16.765,4.174
		c-1.538,0.139-3.009,0.485-4.349,1.106l-3.866,0.977c-2.906-0.21-5.844,0.469-8.157,2.018l-15.828,4.008
		c-2.009-0.007-3.874,0.495-5.541,1.355l-2.942,0.734c-3.14-0.48-6.413,0.455-8.813,2.218l-15.111,3.772
		c-2.127-0.208-4.494,0.519-6.41,1.592l-2.17,0.543c-3.397-0.562-6.839,0.411-9.388,2.332l-17.364,3.78
		c-0.366,0.061-0.701,0.177-1.037,0.231l-6.506,1.573c-2.306-0.064-4.744,0.535-6.688,1.674l-37.335,8.519
		c-2.795-0.348-6.013,0.391-8.382,1.918l-24.881,6.142c-2.867-0.309-5.903,0.549-8.213,2.132l-14.906,3.894
		c-2.668-0.149-5.133,0.572-7.21,1.905l-1.338,0.329c-3.604-0.74-7.608,0.387-10.357,2.701l-12.585,3.309
		c-3.213-0.562-6.512,0.287-9.054,2.012l-0.473,0.143c-3.536-0.825-7.538,0.146-10.354,2.302l-15.362,3.474
		c-1.598,0.056-3.138,0.405-4.538,0.99l-4.448,1.006c-2.363-0.084-4.896,0.416-6.913,1.555l-2.505,0.582
		c-2.964-0.404-6.07,0.335-8.45,1.905l-28.32,6.241c-0.268,0.08-0.564,0.135-0.869,0.193l-7.743,1.706
		c-2.804-0.266-5.614,0.396-7.887,1.706l-47.821,8.657l-23.076,5.794c-0.069,0-0.138,0-0.197-0.001l-6.18,0.704
		c-3.73-1.408-8.343-0.893-11.553,1.322l-0.73,0.11c-2.531-0.562-5.37-0.194-7.678,0.881l-13.289,1.51
		c-3.462-1.215-7.672-0.698-10.713,1.223l-1.843,0.231c-2.1-0.305-4.396-0.035-6.34,0.744l-17.492,1.082
		c-0.336-0.001-0.673-0.002-0.997-0.004l-9.015,0.004c-0.463-0.037-0.995-0.039-1.499-0.005l-8.571-0.009
		c-0.613-0.061-1.203-0.062-1.872-0.008l-10.247-0.036c-0.701-0.06-1.499-0.063-2.238-0.008l-7.875-0.028
		c-0.805-0.061-1.672-0.101-2.499-0.009l-7.648-0.027c-0.868-0.061-1.804-0.064-2.739-0.01l-5.372,0.003l-33.724-4.024
		l-37.876-8.055l-4.133-1.262c-1.297-0.672-2.734-1.109-4.271-1.315l-3.327-1.014c-2.661-2.373-6.499-3.533-10.069-3.036
		l-13.724-6.234c-1.237-0.835-2.634-1.507-4.132-1.848l-6.402-2.878c-2.062-2.096-4.857-3.429-7.998-3.652l-3.601-1.676
		c-0.029,0-0.058-0.073-0.097-0.073l-7.783-5.867c-1.365-1.732-3.162-3.103-5.229-3.915l-19.488-16.902l-5.652-6.917
		c-0.791-4.06-3.578-7.457-7.311-9.012l-12.466-15.338l-2.71-4.66c-0.564-2.602-1.924-4.892-3.812-6.591l-6.171-10.589
		c-0.359-3.623-2.249-6.745-5.043-8.729l-7.153-15.908c-0.223-2.05-0.924-3.982-2.021-5.604l-4.197-11.546l-3.848-23.58l0.011-3.133
		c0.007-1.813-0.35-3.548-1.053-5.088l-2.954-23.03l2.044-39.563l1.983-11.681c0.1-0.39,0.161-0.808,0.2-1.198l6.002-35.449
		l12.119-49.974l2.597-7.282c1.316-1.787,2.123-3.95,2.261-6.32l19.518-54.853l18.326-38.357l25.464-47.089
		c1.036-1.237,1.812-2.712,2.318-4.286l17.2-31.788l10.474-16.594c3.17-1.919,5.387-5.244,5.797-9.124l7.451-11.777
		c0.743-0.864,1.348-1.867,1.852-2.931l8.692-13.763c2.213-1.727,3.82-4.165,4.459-6.998l5.946-9.399
		c2.135-1.727,3.719-4.125,4.362-6.922l16.404-24.578c3.475-1.856,5.961-5.26,6.477-9.315l5.706-8.257
		c1.737-1.375,3.071-3.163,3.852-5.185l7.345-9.93c0.996-0.92,1.843-2.061,2.486-3.319l9.187-12.386
		c1.535-1.293,2.771-2.945,3.544-4.796l29.202-38.008c1.682-1.332,2.988-3.063,3.793-5.09l39.747-46.425l9.391-13.167l0.74-0.864
		c0.939-0.749,1.743-1.615,2.403-2.593l7.479-8.092c2.844-1.352,5.115-3.767,6.263-6.759l6.301-6.915
		c1.541-1.174,2.748-2.706,3.618-4.44l30.314-31.147c0.098-0.059,0.167-0.194,0.228-0.258l19.366-20.085
		c2.604-1.251,4.654-3.454,5.794-6.126l17.982-19.012c1.679-1.062,3.084-2.552,4.096-4.323l4.887-5.146
		c2.703-1.309,4.889-3.649,6.032-6.441l11.116-11.748l4.487-3.883c2.771-1.056,5.086-3.056,6.494-5.656l26.009-20.714
		c2.634-0.937,4.905-2.721,6.422-5.061l15.758-11.942c1.344-0.686,2.549-1.593,3.55-2.732l5.82-4.413
		c3.608-0.753,6.623-3.147,8.299-6.311l2.814-2.023c2.408-0.741,4.55-2.192,6.123-4.077l26.858-18.426
		c2.143-0.627,4.018-1.837,5.518-3.445l3.913-2.436c2.574-0.565,4.884-1.95,6.556-3.878l3.979-1.996
		c3.313-0.229,6.252-1.771,8.332-4.11l6.317-3.112c0.127-0.054,0.266-0.135,0.394-0.194l3.949-1.973
		c1.164-0.605,2.241-1.331,3.142-2.275l1.041-0.984c2.237-0.661,4.21-1.996,5.754-3.684l3.91-1.956
		c3.368-0.261,6.352-1.829,8.429-4.226l4.373-2.354c2.337-0.658,4.382-1.991,5.927-3.778l0.198-0.139
		c4.497,1.061,9.382-0.657,12.221-4.015l12.428-3.82c1.637-0.209,3.117-0.659,4.518-1.404l14.158-2.846
		c3.065,0.583,6.545-0.015,9.152-1.599l2.434-0.192c0.964,0.104,2.038,0.068,2.968-0.067l7.881-0.127
		c1.497,0.339,3.134,0.364,4.671,0.136l1.928,0.479c2.066,1.226,4.604,1.924,7.14,1.719l4.541,1.097
		c0.123,0.064,0.194,0.064,0.262,0.14l8.322,3.559c1.465,1.406,3.233,2.475,5.202,3.071l8.519,6.813l2.128,3.238l0.867,8.558
		l-1.115,2.771c-0.868,0.238-1.667,0.528-2.408,0.901l-23.382,5.553l-18.244,6.91l-13.604,7.753
		c-0.572,0.253-1.106,0.608-1.609,0.923l-6.721,4.465c-2.503,0.704-4.675,2.177-6.289,4.178l-7.835,5.848
		c-1.067,0.762-1.938,1.665-2.74,2.729l-9.635,13.639c-2.509,1.824-4.312,4.599-4.896,7.786l-9.108,16.858
		c-0.632,1.277-1.07,2.656-1.272,4.114l-1.574,10.023l-2.092,6.143c-0.746,2.183-0.822,4.587-0.291,6.875l1.685,5.25l-0.029,8.159
		c-0.006,1.615,0.286,3.155,0.852,4.613l5.255,12.531l5.61,8.002l6.154,6.187c0.893,0.934,1.995,1.721,3.126,2.319l6.5,3.255
		c2.062,2.372,5.021,4,8.36,4.212l1.536,0.792c1.731,0.874,3.602,1.289,5.533,1.296l30.733,0.11
		c1.565,0.005,3.103-0.242,4.575-0.849l3.008-1.23c2.337-0.264,4.477-1.143,6.217-2.535l21.135-13.29
		c1.401-0.78,2.607-1.921,3.617-3.179l7.328-5.374c1.204-0.802,2.245-1.849,3.117-3.005l20.459-28.36
		c1.934-1.568,3.352-3.656,4.092-6.134l16.515-28.695l12.85-47.074l2.145-21.157l-4.266-38.562l-2.929-10.711l-7.664-14.705
		l-6.708-8.185c-0.793-1.5-1.922-2.807-3.256-3.874l-0.237-0.276c-0.227-0.278-2.524-2.633-2.787-2.867
		c-0.932-0.932-1.995-1.74-3.166-2.357l-0.461-0.2c-1.528-3.333-4.453-5.889-7.987-6.829l-6.794-5.063
		c-1.42-1.449-3.19-2.517-5.159-3.113l-4.492-2.463c-2.132-2.41-5.124-3.995-8.46-4.204l-3.601-1.634
		c-1.867-1.385-4.063-2.337-6.534-2.465l-1.525-0.816c-1.141-0.53-2.274-0.933-3.503-1.135l-1.438-0.238
		c-2.733-1.786-6.396-2.428-9.671-1.692c-2.327-1.742-5.467-2.679-8.463-2.355l-5.403-1.594c-1.103-0.32-2.265-0.523-3.467-0.567
		c0,0,0,0-0.07,0h-0.029c-0.039,0-0.07,0-0.11,0l-11.804-0.042c-0.306-0.001-0.67-0.002-1.005-0.004l-9.074,0.007
		c-0.473-0.041-0.907-0.042-1.339-0.005l-8.78-0.031c-0.563-0.041-1.094-0.043-1.636-0.006l-10.444-0.019
		c-1.303-0.062-2.7-0.01-3.96,0.286l-3.411,0.259c-1.231-0.395-2.529-0.638-3.901-0.643c-2.039-0.007-3.972,0.518-5.71,1.38
		l-13.018,1.213c-3.87-1.273-8.415-0.366-11.487,2.029l-22.54,3.939l-22.558,6.858l-1.531,0.78c-2.709-0.286-5.48,0.459-7.683,1.787
		l-2.012,0.388c-1.122,0.273-2.662,1.055-4.134,2.053c-1.47,0.291-2.811,0.836-4.018,1.543l-17.709,6.462
		c-2.1,0.248-4.073,1.048-5.676,2.24l-4.577,1.799c-2.108,0.25-4.082,1.054-5.722,2.268l-4.273,1.754
		c-2.533,0.268-4.883,1.325-6.749,2.916l-2.812,1.188c-4.137-0.446-8.212,1.178-10.756,4.101l-4.856,2.508
		c-0.158,0.075-0.367,0.152-0.566,0.213l-13.966,4.859l-12.136,7.168l-4.815,1.641c-1.132,0.227-2.237,0.62-3.237,1.169
		l-3.877,1.916c-1.205,0.588-2.282,1.352-3.212,2.315l-1.007,1.002c-1.804,0.523-3.415,1.462-4.75,2.64l-8.822,3.912
		c-0.534,0.195-1,0.469-1.442,0.744l-28.459,16.769c-3.341,0.457-6.284,2.321-8.154,4.954l-1.848,1.078
		c-3.64,0.463-6.779,2.535-8.73,5.448l-4.682,2.938c-2.869,0.624-5.349,2.21-7.052,4.388l-2.448,1.568
		c-3.468,0.541-6.412,2.462-8.285,5.177l-1.372,0.861c-3.901,0.379-7.32,2.613-9.266,5.818l-3.682,2.412
		c-3.677,0.561-6.751,2.717-8.632,5.725l-6.154,4.036c-0.267,0.194-0.602,0.394-0.87,0.586l-6.418,4.273
		c-2.477,0.704-4.678,2.176-6.225,4.117l-7.957,4.704c-1.343,0.663-2.579,1.526-3.615,2.585l-4.886,4.912
		c-3.341,1.013-6.09,3.325-7.638,6.396l-1.871,1.589c-3.369,0.717-6.215,2.837-7.961,5.789l-3.179,2.193
		c-4.071,0.438-7.56,2.93-9.405,6.389l-3.335,2.293c-2.183,0.722-4.09,2.055-5.526,3.787l-75.273,62.436l-11.59,11.548
		c-0.73,0.585-1.404,1.332-2.008,2.121l-30.889,32.601c-0.77,0.63-1.475,1.358-2.077,2.162l-6.428,6.816
		c-2.146,1.195-3.855,3.02-4.968,5.186l-6.021,6.422c-3.208,1.329-5.76,3.956-6.902,7.267l-6.362,6.736
		c-1.064,0.864-2.017,1.922-2.748,3.044l-15.681,17.247c-4.012,1.148-7.218,4.35-8.377,8.366l-5.693,5.769
		c-1.07,0.749-1.968,1.69-2.742,2.712l-8.474,8.559l-7.378,11.115l-2.919,3.399c-2.47,1.447-4.417,3.726-5.425,6.403l-5.164,6.029
		c-2.212,1.393-4.015,3.474-4.996,5.916l-17.731,22.794c-2.576,1.609-4.527,4.105-5.363,7.117l-21.799,28.476l-6.842,12.157
		c-2.312,1.786-3.997,4.378-4.57,7.393l-14.987,18.607l-13.995,23.558c-1.948,1.688-3.354,4.007-3.966,6.667l-7.454,12.844
		c-1.14,1.276-2.013,2.75-2.549,4.406l-20.203,31.631l-0.777,1.83c-0.971,1.396-1.713,3.028-2.057,4.763l-17.071,34.859
		c-3.475,2.196-5.826,6.05-5.842,10.465l-6.925,14.007c-1.545,1.627-2.686,3.695-3.167,5.998l-7.716,14.614l-11.263,29.991
		c-2.471,2.277-4.02,5.465-4.033,9.076l-7.958,23.479c-1.414,1.922-2.289,4.248-2.358,6.77l-14.195,40.664l-7.083,29.555
		c-1.011,1.787-1.549,3.879-1.557,6.046l-10.527,69.664l-0.064,25.795c-0.029,0.314-0.03,0.569-0.031,0.827l-0.132,36.931
		c-0.006,1.848,0.393,3.584,1.115,5.166l5.295,51.41l3.618,13.38l-0.006,1.848c-0.01,2.844,0.915,5.449,2.514,7.519l9.962,30.269
		c0.203,0.806,0.467,1.537,0.761,2.208l12.971,32.229l6.604,10.662c0.591,2.663,2.079,4.979,4.113,6.679l11.871,19.964
		l16.619,20.555c0.98,4.341,4.238,7.823,8.509,9.116l5.98,5.956c0.706,0.885,1.531,1.696,2.435,2.41l6.549,5.836
		c1.793,3.672,5.391,6.327,9.651,6.793l14.578,10.281c1.336,1.504,2.995,2.688,4.863,3.444l3.923,2.733
		c1.859,3.361,5.292,5.731,9.299,6.226l5.794,3.386c1.06,0.875,2.29,1.604,3.588,2.081l6.099,3.57
		c1.331,1.329,2.993,2.298,4.863,2.875l4.856,2.836c1.604,1.738,3.667,2.929,6.028,3.554l29.837,11.28
		c1.129,0.573,2.322,1.027,3.592,1.253l8.434,2.725c1.832,1.036,3.93,2.717,6.175,1.663l12.569,3.334
		c2.623,2.216,6.421,3.278,10.002,2.677l3.896,0.566c2.735,1.666,6.399,2.151,9.534,1.291l12.814,1.709
		c1.732,0.668,3.733,1.034,5.635,0.766l25.862,0.821c3.196,1.724,7.5,1.817,10.817,0.292l2.196,0.088
		c2.833,1.312,6.431,1.422,9.381,0.309l1.526,0.024c2.499,0.938,5.435,1.067,7.981,0.249l5.398,0.177
		c1.87,0.481,3.909,0.55,5.812,0.14l5.972,0.18c0.904,0.117,1.832,0.12,2.768,0.08l1.439,0.049l5.438-0.18
		c1.801,0.35,3.732,0.254,5.509-0.172l5.241-0.185c2.659,0.883,5.97,0.76,8.604-0.321l0.741-0.013
		c3.196,1.409,7.263,1.267,10.406-0.34l20.329-0.714l3.468-0.387c3.006,0.938,6.574,0.479,9.249-0.986l4.88-0.501
		c0.599-0.071,1.202-0.13,1.732-0.187l18.225-2.024c2.808,0.521,5.904-0.035,8.283-1.428l2.536-0.464
		c2.502,0.328,5.114-0.18,7.288-1.316l4.475-0.771c2.933,0.482,5.939-0.099,8.311-1.47l2.571-0.463
		c2.434,0.249,5.076-0.178,7.149-1.271l3.807-0.659c2.127,0.124,4.138-0.263,5.875-1.079l5.709-1.012
		c2.403,0.267,5.105-0.179,7.248-1.312l3.638-0.656c2.433,0.089,4.879-0.375,6.873-1.511l28.63-6.633
		c0.698-0.137,1.399-0.274,2.07-0.512l6.083-1.396c2.199-0.066,4.298-0.458,6.104-1.418l28.688-6.673
		c2.501,0.009,4.445-0.445,6.281-1.457l2.811-0.64c2.937,0.344,6.073-0.396,8.442-1.981l0.839-0.198
		c3.535,0.745,7.439-0.167,10.185-2.364l7.249-1.711c0.099,0,0.237-0.015,0.338-0.055l7.679-1.67
		c1.636-0.032,3.174-0.401,4.578-1.024l4.714-1.028c2.333,0.206,4.801-0.457,6.801-1.593l26.758-6.444
		c1.999-0.037,3.915-0.54,5.551-1.36l3.966-0.952c3.673,0.88,7.883-0.208,10.659-2.562l13.324-3.227
		c1.537-0.136,2.937-0.462,4.28-1.067l4.941-1.165c3.397,0.598,7.007-0.213,9.654-2.17c3.896,1.016,8.445-0.212,11.354-2.899
		l3.609-0.894c0.835-0.097,1.604-0.289,2.375-0.563l6.141-1.517c2.937,0.488,6.007-0.134,8.414-1.547l2.107-0.405
		c2.769,0.423,5.601-0.178,7.91-1.485l2.671-0.467c2.533,0.264,5.173-0.219,7.319-1.388l4.108-0.776
		c3.095,0.598,6.406-0.059,8.944-1.684l1.607-0.288c2.994,0.544,6.167-0.116,8.618-1.706l2.703-0.52
		c3.502,0.838,7.575,0.044,10.411-2.029l62.285-11.842l37.8-5.896c2.138,0.285,4.403-0.14,6.338-1.004l6.744-1.037
		c0.068-0.042,0.138-0.042,0.208-0.042l30.677-3.868c1.3,0.043,2.669-0.103,3.915-0.498l15.611-1.935
		c3.211,0.878,6.947,0.438,9.76-1.226l2.801-0.407c1.802,0.206,3.705-0.045,5.342-0.649l2.939-0.38
		c3.727,1.742,8.606,1.364,11.946-0.886l2.875,0.01c0.366,0.025,0.795,0.026,1.204,0.005l10.739,0.038
		c0.598,0.025,1.269,0.005,1.93,0.007l8.083-0.013c0.734,0.044,1.605,0.047,2.361,0.008l7.718,0.012
		c0.936,0.119,1.832,0.122,2.739,0.01l9.369,0.033c1.036,0.119,2.109,0.123,3.105,0.011l7.005,0.025c0.068,0,0.068,0,0.137,0
		l6.305,0.89c2.299,1.13,5.234,1.576,7.836,1.094l57.373,9.166c2.194,1.255,4.932,1.797,7.565,1.391l5.239,0.96
		c1.659,0.797,4.062,1.419,5.571,1.229l13.295,4.049c1.999,1.422,4.733,2.023,7.197,2.191l18.336,5.582
		c0.207,0.059,0.404,0.115,0.6,0.199l5.906,1.854c2.288,1.883,5.489,2.877,8.491,2.728l25.449,14.636
		c0.268,0.178,0.531,0.359,0.838,0.475l18.376,10.945c1.558,2.06,3.692,3.598,6.189,4.358l7.024,7.041
		c0.058,0.137,0.196,0.233,0.333,0.334l17.611,18.55c1.133,2.703,3.195,4.922,5.79,6.23l7.443,8.026
		c0.802,1.22,1.832,2.292,2.991,3.163l18.96,19.296c2.06,2.141,4.923,3.53,8.058,3.739c0.04,0,0.068,0,0.068,0
		c0.667,0.078,1.338,0.005,1.998-0.029l0.069,0.001c0.069,0,0.099,0,0.139,0c2.366-0.35,4.538-1.267,6.277-2.699l7.036-5.688
		c3.934-0.777,7.214-3.465,8.791-7.027l24.174-19.478c3.335-0.72,6.179-2.779,7.924-5.572l13.479-8.94
		c2.477-0.676,4.609-2.149,6.193-4.078l2.341-1.547c3.665,0.216,6.813-1.272,9.117-3.612l1.441-0.468
		c4.439,1.024,6.339-1.258,8.555-3.338l1.707-0.701c2.505,0.009,4.099-0.502,5.876-1.439l30.088-6.715l5.675-0.429
		c3.004,0.877,6.401,0.594,9.079-0.774l16.556-0.672c0.334,0.001,0.671,0.002,1.005,0.004l9.005,0.031
		c0.533,0.002,1.005,0.004,1.539,0.006l8.542-0.008c0.602,0.061,1.271,0.062,1.873,0.006l10.248,0.018
		c0.757,0.125,1.498,0.063,2.225,0.008l14.216,1.037c2.4,1.151,5.463,1.441,8.143,0.815l14.641,1.39
		c2.302,1.037,5.097,1.36,7.643,0.781l37.255,6.203c0.666,0.193,1.365,0.315,2.091,0.34l10.245,1.772
		c0.099,0,0.168,0.001,0.237,0.037l15.827,4.021c2.567,1.94,6.042,2.898,9.372,2.379l7.067,1.816
		c0.198,0.041,0.406,0.082,0.603,0.138l15.744,4.001c2.359,1.803,5.454,2.797,8.6,2.455l2.6,0.796
		c2.652,2.476,6.626,3.883,10.334,3.308l3.52,1.154c0.139,0.047,0.211,0.123,0.335,0.159l61.85,24.541
		c2.064,1.941,4.87,3.13,7.875,3.226l7.859,3.179c0.131,0.059,0.269,0.097,0.432,0.156l9.635,3.88
		c0.131,0.057,0.269,0.143,0.365,0.177l5.027,2.187c2.659,3.519,7.39,5.582,11.867,4.733c4.034,0.685,8.347-0.7,11.224-3.903
		c3.526-3.926,4.143-9.677,1.521-14.256L1932.423,1331.712z"/>
	<path fill="#F40009" stroke="#ADAFB2" stroke-width="10" stroke-miterlimit="10" d="M4264.529,177.59
		c-1.187-2.371-3.111-4.309-5.451-5.497l-3.928-1.987c-1.594-0.831-3.461-1.373-5.408-1.399c-0.059,0-0.098,0-0.098,0
		s-0.029,0-0.102,0c0.072,0.02,0,0.02-0.057,0l-6.178-0.022c-2.768-0.01-6.955,2.399-9.561,4.54
		c-4.004,1.11-7.188,4.231-8.408,8.208l-6.357,6.403c-0.668,0.548-1.275,1.139-1.811,1.804l-17.536,13.219l-2.948,3.106
		c-0.995,0.742-1.807,1.606-2.541,2.628l-3.686,3.455c-2.271,0.664-4.273,1.977-5.814,3.706l-3.324,2.137
		c-3.131,0.579-5.839,2.38-7.648,4.896l-5.383,3.414c-2.573,0.619-4.789,2.09-6.46,4.093l-3.11,1.862
		c-2.967,0.54-5.549,2.188-7.328,4.429l-6.09,4.787c-0.066,0.075-0.168,0.075-0.262,0.138l-11.233,5.633
		c-0.702,0.256-1.407,0.605-2.006,1.035l-8.192,5c-1.304,0.524-2.514,1.275-3.587,2.191l-5.02,3.117
		c-2.461,0.13-4.702,1.008-6.54,2.422l-0.604,0.192c-1.146,0.352-2.266,0.937-3.244,1.621l-3.719,2.731
		c-1.86,0.737-3.5,1.997-4.811,3.529l-2.473,1.763c-2.771,0.406-5.279,1.736-7.124,3.641l-5.783,2.602
		c-2.009,0.368-3.777,1.186-5.292,2.386l-17.94,8.625c-0.376,0.115-0.7,0.314-1.004,0.468l-9.166,4.893
		c-2.334,0.544-4.436,1.778-6.054,3.452l-5.277,2.978c-0.068,0.036-0.204,0.072-0.274,0.095l-22.249,8.002
		c-0.131,0.018-0.269,0.095-0.396,0.136l-19.047,5.427l12.572-25.118l16.693-57.799c0.302-1.023,0.444-2.089,0.448-3.171
		l0.133-36.912c0.006-1.892-0.425-3.767-1.287-5.502l-10.139-20.532c-0.364-0.691-0.966-1.246-1.467-1.876
		c-0.252-0.316-0.461-0.63-0.726-0.969c-0.337-0.296-0.503-0.729-0.822-1.047l-8.528-7.324c-1.225-1.875-2.757-3.161-4.823-4.116
		l-0.995-0.871c-0.86-0.788-1.866-1.425-2.964-1.923l-3.294-1.487c-1.938-1.662-4.031-2.617-6.604-2.94l-8.527-3.854
		c-0.63-0.255-1.335-0.241-2.005-0.399c-0.261-0.082-0.46-0.103-0.728-0.16c-0.765-0.14-1.475-0.481-2.27-0.483l-21.827,0.021
		c-0.125,0-0.268,0.02-0.434-0.001l-9.773,0.023c-0.268-0.039-0.503-0.159-0.769-0.16c-0.193,0-0.333,0.156-0.501,0.156l-6,0.02
		l-21.521,4.258l-7.307,2.14c-0.741,0.157-1.372,0.31-2.042,0.583l-6.676,1.95l-11.875,5.712c-3.428,0.263-6.512,1.615-8.724,4.205
		l-3.702,1.74c-1.872,0.43-3.545,1.25-4.988,2.428l-3.08,1.486c-3.426,0.165-6.27,1.651-8.414,4.048l-4.819,2.286
		c-2.733,0.351-5.042,1.487-6.975,3.369l-7.828,3.795c-0.243,0.096-0.466,0.157-0.675,0.295l-3.835,1.855l-22.112,13.264
		l-6.101,5.203c-1.302,0.704-2.271,1.644-3.238,2.782l-1.24,1.021l-15.646,8.99l-1.402,1.098c-1.738,0.721-2.945,1.822-4.189,3.258
		l-6.354,4.944c-1.778,0.84-3.181,1.938-4.388,3.472l-6.294,4.862c-1.498,0.766-2.708,1.688-3.775,2.964l-4.863,3.789
		c-4.431,0.512-8.053,3.439-9.634,7.535l-6.445,5.017c-0.241,0.196-0.481,0.335-0.715,0.534l-8.062,6.316
		c-2.539,0.913-4.49,2.445-5.961,4.648l-4.516,3.53c-2.41,0.882-4.28,2.312-5.724,4.433l-15.056,11.77l-1.442,1.333
		c-3.211,1.055-5.886,3.689-7.368,6.874l-5.651,5.263c-1.304,0.86-2.343,1.764-3.253,3.024l-8.502,7.906
		c-0.409,0.335-0.746,0.613-1.079,1.001l-7.991,5.569l-14.507,14.668c-0.224,0.235-0.436,0.415-0.636,0.628l-20.962,21.232
		c-0.071,0.058-0.097,0.077-0.14,0.113l-9.84,9.977c-0.938,0.75-1.672,1.376-2.343,2.362l-17.719,17.948
		c-2.748,1.25-5.091,3.529-6.36,6.402l-3.592,3.611c-3.207,1.269-5.746,3.861-6.957,7.07l-14.946,15.161
		c-0.663,0.195-1.334,0.509-1.962,0.818l26.062-31.752c2.721-1.45,4.754-3.845,5.774-6.794l7.403-7.348
		c0.029-0.04,0.059-0.078,0.13-0.159l32.749-32.513c0.039-0.04,0.07-0.063,0.104-0.083l20.534-20.38
		c2.67-2.629,4.019-6.414,3.562-10.156c-0.449-3.764-2.574-7.065-5.769-9.045l-35.854-22.042l-10.055-7.328l-17.693-9.346
		c-0.865-0.535-1.523-1.008-2.46-1.306l-18.294-9.665c-1.423-1.304-2.986-2.021-4.898-2.581l-29.867-15.814
		c-0.4-0.194-0.696-0.414-1.102-0.574l-6.221-3.292l-8.136-5.231l-6.393-2.761c-1.031-0.657-2.065-1.01-3.233-1.374l-8.031-3.456
		c-0.725-0.376-1.368-0.677-2.164-0.915l-7.472-3.203c-1.46-1.441-3.188-2.412-5.22-2.954l-7.263-5.266
		c-0.099-0.081-0.192-0.156-0.323-0.238l-0.179-0.121l-21.747-9.693c-0.505-0.316-1.004-0.476-1.564-0.716l-16.693-7.426
		c-2.23-2.295-5.124-3.685-8.506-3.775l-2.286-1.038c-2.437-3.475-6.562-5.735-10.956-5.552c-2.464-2.728-6.165-4.226-10.275-4.102
		c-2.12-2.408-5.388-3.463-8.656-3.673l-27.86-12.415l-14.737-4.249l-10.172-1.951c-0.496-0.121-0.924-0.197-1.428-0.281
		l-9.108-1.73c-0.669-0.158-1.231-0.298-1.901-0.356l-20.314-3.897c-0.53-0.123-0.991-0.2-1.522-0.263l-8.942-1.723
		c-0.734-0.186-1.325-0.343-2.065-0.386l-12.271-2.328l-20.554-1.413c-1.14-0.281-2.169-0.285-3.333-0.249l-7.674-0.54
		l-43.885-0.118l-1.535,0.094c-0.197-0.001-0.365,0.04-0.564,0.039l-8.684,0.539c-0.935-0.203-1.731-0.756-2.765-0.76
		c-1.33-0.005-2.343,0.779-3.544,1.172l-14.487,0.894l-2.473,0.345c-1.127-0.004-2.068,0.11-3.165,0.423l-10.45,1.362
		c-0.236,0.02-0.428,0.054-0.668,0.093l-15.023,1.976l-40.214,8.429l-11.296,4.038c-0.664,0.179-1.167,0.411-1.799,0.664
		l-34.116,12.202c-0.763-0.797-2.689-2.655-3.093-2.99l-16.102-12.021c-0.24-0.16-0.438-0.316-0.67-0.474l-1.061-0.796l-8.666-4.757
		c-1.003-0.793-2.063-1.348-3.293-1.826l-10.368-5.713c-1.06-0.592-2.193-1.071-3.423-1.331l-15.576-3.899
		c-3.196-2.454-7.992-3.299-11.876-1.877l-13.536-1.92c-1.872-0.772-4.039-1.175-6.14-0.889l-31.37-0.192c-0.061,0-0.102,0-0.102,0
		c-0.029,0-0.029,0-0.096,0c-0.506-0.002-1.004,0.076-1.505,0.15l-4.572,0.5c-1.234-0.438-2.567-0.681-3.972-0.686
		c-2.436-0.009-4.708,0.694-6.61,1.93l-3.176,0.362c-2.599-0.58-5.466-0.2-7.808,0.899l-26.777,4.89
		c-2.501-0.229-4.754,0.377-6.686,1.472l-2.803,0.624c-2.873-0.35-5.813,0.29-8.156,1.759l-52.253,17.671l-11.095,5.617
		c-0.139,0-0.238,0.038-0.336,0.076l-8.693,3.202c-2.366,0.208-4.539,1.065-6.343,2.382l-4.876,1.837
		c-1.676,0.247-3.213,0.854-4.615,1.675l-7.285,2.716c-0.602,0.193-1.142,0.384-1.678,0.661l-22.656,10.186
		c-0.141,0.083-0.24,0.139-0.336,0.196l-59.453,32.5l-28.723,16.316c-0.17,0.057-0.367,0.174-0.561,0.273l-9.733,5.067
		l-17.038,13.321l-0.797,0.45c-3.943,0.223-7.422,2.316-9.497,5.405l-16.788,10.697c-0.269,0.121-0.467,0.296-0.676,0.433
		l-11.238,7.428c-0.53,0.339-1.066,0.668-1.528,1.043l-16.036,11.725c-4.803,0.377-8.851,3.498-10.503,7.826l-0.64,0.432
		c-3.669,0.556-6.816,2.714-8.662,5.742l-5.988,3.961c-0.433,0.254-0.865,0.546-1.299,0.903l-8.135,6.039
		c-2.978,0.817-5.514,2.737-7.122,5.295l-4.193,3.2c-2.333,0.855-4.31,2.447-5.715,4.45l-5.12,3.964
		c-1.876,0.821-3.55,2.075-4.751,3.687l-7.839,6.592c-2.073,0.981-3.814,2.469-5.09,4.357l-4.213,3.411
		c-2.542,0.94-4.719,2.666-6.168,4.906l-15.857,13.286c-3.273,0.994-5.953,3.25-7.436,6.26l-7.825,6.869
		c-0.068,0.101-0.172,0.157-0.267,0.275l-55.188,52.754c-0.128,0.142-0.27,0.257-0.399,0.398l-7.504,7.795l-0.27,0.394
		c-2.546,1.568-4.556,4.003-5.433,6.954l-19.491,19.362c-0.03,0.02-0.066,0.081-0.132,0.081l-22.57,22.461
		c-0.067,0.02-0.102,0.062-0.067,0.08c-0.068,0.036-0.132,0.078-0.098,0.078c-0.035,0.06-0.035,0.06-0.103,0.1
		c0,0.019-0.029,0.019-0.068,0.099c-0.872,0.9-1.543,1.925-2.111,3.101l-5.476,6.958c-1.991,1.173-3.672,2.983-4.746,5.109
		l-3.919,4.263c-3.312,1.388-5.926,4.175-6.999,7.621l-6.509,7.284c-2.537,1.334-4.545,3.574-5.623,6.25l-6.104,6.874
		c-1.401,1.042-2.606,2.357-3.453,3.891l-19.47,22.906c-1.505,1.18-2.736,2.689-3.54,4.423l-29.437,36.491
		c-1.682,1.292-3.021,3.067-3.825,5.075l-21.184,28.021l-60.424,88.939l-14,23.595c-1.945,1.728-3.353,4.007-3.961,6.647
		l-17.665,29.381c-2.807,1.921-4.748,5.026-5.192,8.572l-6.752,11.209c-1.442,1.394-2.551,3.141-3.119,5.113l-20.396,38.671
		c-1.112,1.373-1.945,2.97-2.424,4.721l-17.692,36.531l-13.31,30.854c-1.486,1.964-2.39,4.367-2.498,6.964l-20.367,56.98
		l-10.839,45.325c-1.244,1.928-1.95,4.231-1.959,6.691l-8.374,46.241l-1.406,19.272c-0.468,1.298-0.739,2.714-0.744,4.138
		l-0.176,49.223c-0.006,1.771,0.384,3.511,1.042,5.046l5.456,43.735l3.561,11.6c0.124,1.972,0.729,3.765,1.649,5.365l12.24,32.949
		l8.477,15.009c0.263,4.042,2.447,7.536,5.641,9.601l5.175,8.039c0.662,1.874,1.8,3.572,3.225,4.953l16.57,22.483
		c0.599,0.933,1.326,1.805,2.189,2.535l12.989,11.003c0.96,1.127,2.12,2.059,3.389,2.774l8.328,4.876l0.195,0.195
		c1.061,1.34,2.397,2.473,3.958,3.286l7.988,6.687c0.993,0.871,2.161,1.629,3.389,2.105l19.033,8.169
		c1.892,1.676,4.324,2.79,6.994,2.993l3.834,1.635h0.033c2.362,1.864,5.591,2.859,8.699,2.476l14.271,4.086
		c2.229,1.567,5.167,2.564,7.965,2.199l3.073,0.429c2.732,1.58,6.436,2.15,9.504,1.214l16.083,2.201
		c1.024,0.265,2.065,0.407,3.164,0.411l9.545,0.015c0.491,0.021,0.928,0.022,1.465,0.005l10.476-0.002
		c0.71,0.062,1.47,0.064,2.141,0.008l7.871,0.028c0.904,0.062,1.733,0.064,2.639,0.01l6.91-0.095
		c2.265,0.399,4.738,0.089,6.811-0.806l13.958-1.608c3.329,1.082,7.3,0.619,10.242-1.185l2.506-0.302
		c2.54,0.32,5.005-0.258,7.077-1.314l3.948-0.856c3.47,0.687,7.339-0.13,10.082-2.23l24.112-5.651
		c3.302,0.334,6.477-0.643,8.891-2.566l16.037-4.636l10.951-5.04c2.447-0.386,4.621-1.402,6.36-2.973l2.208-0.979
		c3.709,0.014,7.019-1.666,9.288-4.303l4.02-1.856c2.933-0.245,5.603-1.518,7.552-3.479l1.204-0.571
		c4.867,0.137,7.776-1.665,10.092-4.632l4.539-2.052c0.939-0.331,1.779-0.723,2.578-1.21l7.324-4.351
		c3.543-0.462,6.614-2.383,8.562-5.151l16.723-10.764c0.407-0.239,0.799-0.486,1.204-0.783l8.202-6.116
		c3.007-0.817,5.547-2.743,7.163-5.339l4.377-3.256c1.999-0.796,3.811-2.113,5.125-3.798l7.854-5.845
		c0.068-0.065,0.141-0.121,0.208-0.204l8.16-6.038c3.413-0.912,6.219-3.31,7.767-6.379l12.793-9.906
		c1.13-0.86,2.069-1.84,2.874-3.059l11.659-12.14c1.933-0.94,3.534-2.355,4.716-4.081l26.915-24.377
		c1.109-1.023,2.038-2.244,2.714-3.58l0.68-1.967c1.539-1.178,2.807-2.75,3.623-4.563l7.268-8.212
		c0.369-0.33,0.763-0.667,1.096-1.061l20.99-25.025c1.406-1.059,2.542-2.453,3.349-3.989l18.173-23.838
		c2.613-1.571,4.56-4.124,5.393-7.116l5.273-7.451c2.508-1.665,4.347-4.258,5.131-7.251l15.531-21.979l3.15-6.392
		c2.51-2.14,4.157-5.189,4.35-8.681l7.841-11.716c0.3-0.354,0.535-0.706,0.779-1.141l8.321-12.377l14.302-26.396
		c0.334-0.554,0.643-1.145,0.879-1.731l18.91-44.076c1.377-1.73,2.277-3.859,2.564-6.143l8.483-23.105
		c2.484-2.198,4.02-5.464,4.032-9.052l8.144-24.839l6.455-42.779l0.191-53.286c0.004-1.223-0.195-2.404-0.52-3.549l-11.225-35.414
		l-8.152-14.378c-0.529-0.967-1.192-1.834-1.996-2.606l-20.421-20.568c-0.765-0.812-1.628-1.483-2.591-2l-25.918-13.726
		l-5.833-1.286c-1.499-0.712-3.172-1.074-4.967-1.08l-6.343-1.421c-0.932-0.341-1.994-0.542-3.025-0.624l-22.086-2.128
		c-1.565-0.161-3.172-0.012-4.644,0.342l-18.52,1.585c-1.379-0.04-2.807,0.03-4.108,0.42l-6.34,1.595
		c-2.406-0.145-4.953,0.513-7.024,1.748l-17.566,4.369c-1.204,0.136-2.377,0.446-3.438,0.914l-9.734,3.851
		c-0.196,0.057-0.431,0.175-0.666,0.252l-7.452,3.049c-3.301-0.012-6.245,1.317-8.455,3.397l-26.05,15.044
		c-3.031,0.422-5.74,1.948-7.654,4.169l-4.277,2.327c-2.475,0.665-4.613,2.113-6.224,4.08l-18.13,12.842
		c-1.534,0.703-2.879,1.701-3.991,2.924l-31.395,29.21c-0.776,0.646-1.515,1.313-2.117,2.118l-18.749,18.673l-11.308,15.454
		c-2.41,1.585-4.213,4.023-5.028,6.861l-6.069,8.015c-1.672,1.296-2.978,3.063-3.793,5.051l-26.502,40.225l-14.355,29.924
		c-3.279,2.216-5.429,5.929-5.443,10.146l-11.942,27.47l-16.941,61.069l-2.323,17.452c-1.243,1.89-1.958,4.213-1.967,6.654
		l-2.159,24.587l-0.029,8.196c-0.014,3.826,1.709,7.356,4.637,9.714c1.597,1.979,3.729,3.479,6.258,4.218l0.674,0.476
		c2.03,1.331,4.393,2.086,6.832,2.095l8.204,0.029c0.04,0,0.098,0,0.098,0c0.041,0.001,0.07,0.001,0.07,0.001
		c0.069,0,0.069,0,0.107,0c2.967-0.069,5.64-1.162,7.717-2.91l8.097-6.73c1.465-0.778,2.771-1.842,3.819-3.141l13.987-11.968
		l3.952-2.824c1.609-0.66,3.011-1.725,4.148-2.98l19.843-16.088c0.1-0.061,0.171-0.116,0.308-0.198l11.361-6.893l8.876-7.184
		c0.031-0.073,0.1-0.073,0.17-0.12l31.523-17.577c0.238-0.14,0.47-0.275,0.702-0.378l10.526-5.182l7.824-1.589
		c0.572-0.075,1.16-0.193,1.698-0.328l8.219-1.646c0.799-0.073,1.599-0.25,2.408-0.48l16.626-4.099
		c5.051-1.679,8.441-6.4,8.46-11.678l-0.226-3.726l4.512-22.409c1.281-1.926,1.957-4.192,1.966-6.633l11.715-46.549l13.899-23.716
		l22.752-35.981l2.315-2.536c1.373-0.961,2.508-2.177,3.353-3.634l5.053-5.479c2.806-1.312,5.053-3.709,6.163-6.656l6.625-7.192
		c0.882-0.707,1.686-1.531,2.317-2.436l19.105-13.013c0.139-0.081,0.235-0.164,0.335-0.198l8.529-4.384
		c0.49-0.137,1.034-0.313,1.496-0.506l17.913-5.178l7.945-0.169c1.69,0.359,3.59,0.288,5.259-0.099l0.207-0.037l5.87,1.477
		l7.454,6.252l5.964,21.408l0.103,18.481l-3.687,22.611l-18.212,52.174l-23.136,50.567c-1.348,1.589-2.222,3.538-2.62,5.625
		l-26.948,48.503l-3.755,5.579c-0.333,0.434-0.601,0.865-0.87,1.339l-13.73,23.443l-2.754,3.93c-4.24,1.64-7.331,5.65-7.742,10.374
		l-29.619,33.438c-0.194,0.197-0.379,0.391-0.536,0.63l-9.854,11.748c0,0.041-0.07,0.041-0.07,0.1l-17.89,19.228
		c-3.536,1.326-6.321,4.275-7.435,7.912l-6.925,6.917c-0.173,0.174-0.38,0.331-0.537,0.531l-18.651,16.719l-20.141,13.997
		l-43.273,26.888c-2.605,0.561-4.891,1.951-6.627,3.877l-21.857,8.142c-3.408-0.447-7.213,0.646-9.781,2.898l-4.576,1.286
		c-0.07,0.04-0.196,0.04-0.276,0.04l-8.876,1.759c-2.01-0.146-4.378,0.318-6.281,1.255l-3.873,0.777
		c-1.802-0.206-3.512,0.106-5.082,0.692l-25.202,3.34l-8.136-0.82c-2.57-1.348-5.809-1.695-8.569-0.975l-3.338-0.958
		c-1.606-0.871-3.391-1.394-5.308-1.479l-12.09-4.378c-2.066-2.22-4.929-3.68-8.2-3.892l-2.364-2.02
		c-1.488-2.605-3.882-4.626-6.748-5.62l-14.128-17.742c-0.092-0.101-0.153-0.243-0.26-0.343l-6.462-11.094l-13.589-44.174
		l0.019-5.322c0.006-1.613-0.266-3.154-0.851-4.554l-1.127-41.169l1.029-8.453c0.743-1.594,1.155-3.367,1.162-5.256l3.869-37.941
		l16.912-63.707c1.345-1.972,2.152-4.376,2.161-6.973l5.41-20.144l1.625-4.229c2.077-2.203,3.343-5.151,3.354-8.364l13.275-35.72
		l4.784-9.952c2.81-2.237,4.657-5.7,4.671-9.641l9.01-19.002c0.03-0.084,0.101-0.197,0.14-0.258l16.033-33.897l2.491-4.209
		c3.003-2.059,5.049-5.382,5.37-9.223l28.935-47.053c1.61-1.437,2.806-3.302,3.486-5.388l7.787-11.954
		c0.803-0.944,1.544-1.965,2.011-3.147l20.469-31.416c1.011-1.024,1.813-2.299,2.344-3.621l18.194-27.306
		c2.468-1.665,4.278-4.181,5.061-7.139l28.677-40.447c1.599-1.277,2.878-2.872,3.682-4.779l22.771-29.577l49.774-59.691
		c1.125-0.939,2.135-2.041,2.879-3.261l11.053-12.572c0.673-0.803,1.277-1.667,1.748-2.597l3.09-6.056
		c3.807-1.266,6.826-4.291,8.014-8.129l6.958-6.914c0.171-0.138,0.298-0.315,0.435-0.431l3.886-3.891
		c0.946-0.941,1.741-2.002,2.349-3.18l15.807-16.896c0.305-0.271,0.611-0.547,0.869-0.824l29.924-32.327
		c2.041-1.178,3.743-2.983,4.856-5.109l19.858-20.974c0.503-0.393,0.981-0.88,1.374-1.376l6.974-7.383
		c1.936-1.137,3.545-2.822,4.619-4.871l30.145-31.188c0.403-0.352,0.799-0.725,1.137-1.14l8.742-8.737
		c0.711-0.569,1.303-1.155,1.878-1.902l4.587-3.688c4.741-0.694,8.621-4.129,9.971-8.639l1.878-1.882
		c3.275-0.977,6.016-3.252,7.56-6.179l16.205-13.285l3.349-3.339c0.596-0.532,1.17-1.138,1.676-1.73l5.988-4.787
		c1.698-0.816,3.21-2.017,4.394-3.489l5.818-4.611c1.738-0.839,3.281-2.06,4.444-3.511l5.324-3.807
		c3.304-0.716,6.122-2.774,7.827-5.529l4.82-3.41c1.465-0.663,2.836-1.605,3.949-2.801l18.126-13.282
		c2.069-0.817,3.918-2.19,5.29-3.958l6.824-5.08c0.035-0.061,0.064-0.061,0.138-0.138l72.878-45.121
		c2.772-0.249,5.307-1.481,7.254-3.311l20.391-8.537l3.812-2.328c2.998-0.821,7.078-1.534,9.357-4.106
		c3.867,0.289,7.775-1.274,10.219-4.022c3.338,0.104,6.345-0.73,8.688-2.572l3.938-1.485c3.408,0.09,6.756-1.042,9.125-3.2
		l3.949-1.011c0.695-0.114,1.37-0.272,2.04-0.501l5.443-1.402c1.694,0.147,3.428-0.144,4.963-0.709l11.086-1.441l-8.86,5.722
		c-0.703,0.392-1.376,0.858-2.003,1.353l-13.913,7.796l-6.991,5.312c-0.943,0.533-1.812,1.196-2.545,1.962
		c-0.6,0.593-1.174,1.257-1.642,1.968l-0.643,0.587c-4.337,0.182-8.078,2.69-10.067,6.252l-3.204,1.978
		c-3.777,0.499-6.982,2.697-8.868,5.782l-5.746,3.786c-0.605,0.331-1.142,0.743-1.67,1.135l-19.106,14.396
		c-2.607,0.937-4.789,2.741-6.271,4.981l-8.562,6.057l-22.633,22.484h-0.041c-0.029,0-0.029,0.062-0.029,0.062l-20.227,18.508
		c-1.261,0.764-2.442,1.807-3.341,2.985l-8.044,10.024c-1.645,1.23-2.953,2.867-3.792,4.734l-6.737,7.72
		c-0.83,0.668-1.573,1.394-2.207,2.259l-8.223,10.788c-3.438,1.779-5.914,5.182-6.462,9.182l-3.69,5.049
		c-3.412,1.723-5.893,4.949-6.547,8.828l-7.237,10.179c-0.704,0.77-1.309,1.636-1.815,2.535l-6.197,8.75
		c-4.255,1.782-7.305,5.825-7.588,10.633l-4.86,6.88c-2.48,1.63-4.323,4.162-5.061,7.116l-20.13,38.04
		c-1.237,1.415-2.111,3.147-2.588,4.995l-5.914,11.411l-15.223,57.133l0.106,26.629l3.986,24.586
		c0.222,1.341,0.649,2.644,1.317,3.787l14.248,26.774c0.768,1.462,1.84,2.729,3.135,3.755l0.057,0.041
		c1.17,1.501,2.66,2.745,4.401,3.563l7.054,5.562c1.756,2.905,4.719,5.023,8.182,5.707l3.464,2.413
		c1.331,1.445,2.998,2.573,4.934,3.271l8.262,3.219c1.155,0.698,2.461,1.171,3.833,1.433l6.571,1.368
		c3.032,2.574,7.663,3.632,11.53,2.438l2.609,0.548l3.438,0.013c0.436,0.001,0.895,0.003,1.359,0.005l8.275-0.032
		c0.865,0.064,1.736,0.107,2.602,0.01l9.244-0.047c2.038,0.285,4.273,0.095,6.181-0.667l12.224-1.784
		c3.593,1.192,7.873,0.556,10.882-1.583l40.597-14.256c1.839-0.408,3.576-1.194,5.043-2.33l16.932-11.841
		c3.682-0.558,6.822-2.713,8.665-5.746l5.984-3.938c0.438-0.274,0.872-0.589,1.274-0.862l17.641-13.34l5.525-5.511
		c0.464-0.396,0.895-0.808,1.273-1.26l8.568-8.583c1.336-1.061,2.475-2.396,3.279-3.928l6.979-8.328
		c1.4-1.064,2.541-2.418,3.354-3.973l5.284-6.267c4.379-1.46,7.703-5.273,8.351-9.981l4.835-5.717
		c2.029-1.334,3.645-3.26,4.615-5.542l5.631-6.717c2.076-1.314,3.718-3.28,4.69-5.582l6.476-8.059
		c3.54-1.759,6.127-5.177,6.701-9.235l6.911-9.513c0.872-0.867,1.614-1.886,2.147-2.989l10.124-13.937l31.308-55.954l21.143-44.184
		l13.122-38.045c2.513-2.219,4.16-5.406,4.173-8.988l0.012-3.077l6.061-17.595l4.307-28.52l-0.001-34.688l-2.094-14.073
		l20.765-2.452l31.709,0.094l20.115,1.629l10.34,2.914c1.461,0.757,2.858,1.112,4.491,1.258l18.271,5.126
		c1.201,0.579,2.306,0.818,3.604,1.021l49.962,18.033c0.462,0.222,0.868,0.342,1.328,0.5l4.897,1.753l3.072,1.626
		c1.49,1.303,3.157,2.139,5.151,2.66l105.058,54.628c0.512,0.295,0.947,0.531,1.481,0.77l10.324,5.377
		c0.223,0.14,0.429,0.204,0.653,0.34l3.236,1.665l18.918,12.682l34.495,19.434l8.53,3.498l8.85,7.068
		c0.936,0.77,1.968,1.366,3.07,1.805l41.658,23.914c0.268,0.159,0.505,0.337,0.8,0.48l31.741,18.241
		c4.861,2.816,10.969,1.891,14.859-2.035l-0.042,0.077l-5.223,5.58c-1.736,1.136-3.15,2.709-4.157,4.516l-18.225,19.836
		c-1.94,1.179-3.538,2.926-4.552,4.99l-17.754,18.758c-0.366,0.333-0.706,0.686-1.037,1.056l-10.891,10.842
		c-0.658,0.57-1.271,1.157-1.808,1.825l-10.482,10.489l-19.977,26.059c-2.044,1.412-3.619,3.494-4.491,5.857l-17.258,20.115
		c-2.546,1.491-4.49,3.848-5.467,6.66l-6.275,8.65c-1.231,0.959-2.277,2.198-3.077,3.517l-8.52,9.919
		c-0.299,0.334-0.592,0.649-0.834,0.966l-8.752,11.16c-2.74,1.588-4.82,4.182-5.696,7.253l-29.934,39.803
		c-0.776,0.82-1.451,1.725-1.986,2.727l-28.584,40.355c-2.997,1.839-5.148,4.946-5.733,8.573l-5.83,8.688
		c-1.98,1.568-3.424,3.691-4.138,6.174l-18.481,26.497c-1.973,1.568-3.484,3.711-4.19,6.217l-28.526,44.708
		c-2.478,1.863-4.249,4.635-4.765,7.789l-7.994,13.053c-0.502,0.67-0.937,1.417-1.342,2.145l-8.259,13.63
		c-2.801,1.955-4.755,5.007-5.207,8.529l-6.776,11.268c-1.403,1.395-2.474,3.124-3.085,5.055l-19.717,33.905
		c-1.602,1.669-2.742,3.732-3.254,6.055l-6.207,11.607c-2.453,2.058-4.058,5.05-4.308,8.42l-8.805,17.465
		c-0.202,0.315-0.368,0.67-0.541,0.986l-7.788,15.162c-3.383,2.176-5.635,5.994-5.65,10.287l-7.523,14.755
		c-1.046,1.259-1.818,2.736-2.289,4.366l-8.553,19.756l-26.525-0.095l13.626-29.277l1.143-3.897
		c0.751-1.415,1.216-2.954,1.351-4.603l7.937-26.459c1.583-2.084,2.524-4.642,2.534-7.4l10.258-31.279l4.268-35.2l-1.913-27.793
		l0.029-8.197c0.004-1.146-0.121-2.208-0.426-3.271l-6.085-22.568c-0.258-1.105-0.724-2.095-1.288-3.1l-5.809-9.775
		c-0.196-0.315-0.404-0.67-0.601-0.947l-5.832-9.817c-0.633-1.106-1.463-2.072-2.429-2.942l-2.033-1.822
		c-1.194-1.698-2.757-3.062-4.583-4.035l-9.718-8.548c-0.864-0.753-1.8-1.386-2.86-1.884l-6.195-3.155
		c-2.061-2.334-5.02-3.956-8.335-4.17l-1.589-0.792c-1.074-0.556-2.274-0.955-3.473-1.156l-11.071-1.908
		c-3.025-2.224-7.372-2.967-11.079-1.836l-12.404-1.938c-1.669-0.634-3.596-0.876-5.401-0.728c-0.862-0.078-1.831-0.081-2.736,0.052
		l-4.27,0.579c-3.769-1.416-8.412-0.686-11.557,1.628l-0.068,0c-3.032-0.72-6.345-0.219-8.95,1.23l-4.297,0.575
		c-2.372-0.323-4.977-0.018-7.148,1.003l-10.991,1.494l-47.909,17.508l-38.195,23.116c-1.668,0.526-3.205,1.424-4.482,2.563
		l-7.425,4.195c-0.565,0.272-1.135,0.604-1.672,0.978l-42.761,32.01l-1.944,1.924c-0.099,0.079-0.198,0.135-0.269,0.234
		l-7.031,7.031c-3.805,1.111-6.851,4.033-8.135,7.776l-28.158,26.521c-1.105,0.727-2.072,1.626-2.886,2.65l-2.811,2.67
		c-1.006,0.984-1.879,2.122-2.546,3.403l-3.354,4.514c-0.333,0.297-0.67,0.65-1.008,1.005l-21.506,23.415
		c-0.805,0.707-1.542,1.527-2.175,2.473l-14.109,15.894l-5.497,7.524c-2.111,1.534-3.689,3.658-4.534,6.154l-3.523,4.816
		c-3.741,1.603-6.484,5.062-7.202,9.193l-5.058,6.21c-2.009,1.379-3.557,3.244-4.502,5.506l-13.227,16.226l-8.024,11.919
		c-0.165,0.231-0.334,0.469-0.474,0.746l-7.444,11.127c-2.002,1.549-3.518,3.728-4.224,6.251l-8.249,10.178
		c-1.41,1.137-2.617,2.633-3.422,4.322l-9.477,19.004c-0.535,0.785-0.975,1.651-1.312,2.598l-21.619,36.612
		c-0.171,0.276-0.311,0.535-0.438,0.811l-9.608,17.171c-0.397,0.607-0.735,1.221-1.003,1.887l-12.538,26.955l-8.592,21.348
		l-0.138,0.337c-1.576,2.062-2.479,4.656-2.489,7.438l-8.031,25.593c-1.476,2.023-2.366,4.481-2.375,7.161l-10.263,35.282
		l-4.323,32.339l0.073,26.646l4.021,24.604c0.188,1.228,0.591,2.371,1.118,3.518l8.908,17.941c0.226,3.645,2.077,6.887,4.88,8.945
		l4.837,8.608c0.273,0.472,0.601,0.93,0.901,1.345c1.114,4.021,4.238,7.227,8.202,8.424l9.246,9.313
		c1.065,1.075,2.308,1.92,3.661,2.56l5.401,2.346c1.704,1.42,3.797,2.376,6.101,2.699l5.531,2.463
		c1.027,0.595,2.092,1.112,3.262,1.373l8.631,2.531c1.93,1.271,4.271,2.046,6.806,2.055c0.668,0.003,1.328,0.005,2.041,0.008
		l7.17-0.033c0.732,0.062,1.494,0.064,2.193,0.008l7.516-0.053c1.068,0.143,2.176,0.146,3.311,0.012l8.54-0.028
		c1.328,0.261,2.865,0.245,4.197,0.015l5.673,0.003c1.61,0.318,3.343,0.286,4.88-0.029l5.133-0.015
		c3.237,0.718,6.947-0.017,9.625-1.856l1.793-0.413c4.071,1.297,9.021,0.033,12.033-2.811l2.368-0.703
		c1.969-0.09,3.844-0.615,5.484-1.553l15.728-4.555c3.971,0.326,7.418-1.299,9.818-3.911l13.179-6.221
		c4.071,0.334,7.854-1.76,10.155-4.828l3.482-1.662c1.709-0.389,3.28-1.171,4.61-2.232l4.823-3.668
		c3.176-0.597,5.88-2.323,7.762-4.782l7.358-4.25c0.866-0.35,1.665-0.855,2.438-1.369l23.25-16.842l7.465-6.337
		c2.046-0.986,3.783-2.476,4.991-4.305l3.874-3.355c3.247-1.05,5.887-3.388,7.337-6.411l5.989-5.245
		c0.176-0.118,0.333-0.232,0.471-0.37l7.563-5.241l5.958-5.927c0.138-0.137,0.268-0.276,0.408-0.391l20.219-20.107
		c0.139-0.079,0.205-0.198,0.337-0.316l7.001-6.95c3.945-1.166,7.061-4.271,8.277-8.21l6.494-6.479
		c0.465-0.43,0.934-0.901,1.366-1.373l41.629-49.63l11.035-15.33c3.007-1.844,5.192-4.986,5.73-8.653l23.032-28.073l26.587-42.852
		c3.476-2.032,5.894-5.691,6.178-9.967l6.134-9.931c1.781-1.552,3.124-3.656,3.766-6.057l3.35-5.388l4.236-0.124
		c2.277,0.543,4.807,0.489,7.019-0.231l2.168-0.068c2.87,1.054,6.372,0.964,9.144-0.285l9.654-0.321l-14.626,37.394
		c-1.08,1.529-1.815,3.383-2.086,5.354l-18.502,58.501l-8.543,39.834l-4.254,31.755l-1.626,33.712
		c-0.368,1.181-0.57,2.444-0.574,3.783l-0.029,8.215c-0.006,1.398,0.188,2.78,0.647,4.046l5.961,32.688l5.288,14.92l10.217,16.435
		c0.656,1.064,1.46,2.012,2.381,2.843l0.438,0.337c1.036,1.309,2.335,2.413,3.789,3.229l4.625,3.879
		c1.595,4.238,5.528,7.332,10.19,7.799l4.996,2.836c1.534,1.485,3.388,2.557,5.53,3.074l8.194,3.458
		c0.798,0.317,1.633,0.596,2.526,0.796l5.068,1.658c3.001,2.436,7.535,3.395,11.275,2.204l1.493,0.267
		c2.9,2.139,7.035,2.84,10.586,1.928l2.762,0.463l3.203-0.047c0.707,0.062,1.369,0.063,2.041,0.008l7.338-0.054
		c1.23,0.201,2.541,0.185,3.805-0.046l7.799-0.036c1.749,0.327,3.677,0.333,5.411-0.096l7.627-1.668
		c1.662-0.037,3.271-0.379,4.676-1.046l4.573-0.99c2.725,0.229,5.374-0.592,7.545-2.039l7.719-2.182
		c0.868-0.193,1.736-0.427,2.538-0.74l9.494-3.791c0.393-0.119,0.729-0.247,1.062-0.428l9.764-3.829
		c1.006-0.388,1.932-0.934,2.801-1.606l8.503-6.197c2.072-0.583,3.88-1.756,5.35-3.208l18.079-13.375
		c2.325-0.897,4.37-2.511,5.818-4.536l4.812-3.784c2.072-0.86,3.878-2.293,5.222-4.041l8.636-8.425
		c0.276-0.252,0.615-0.566,0.88-0.861l6.694-6.656c4.312-1.291,7.664-4.862,8.576-9.35l2.879-3.344
		c3.609-1.462,6.36-4.586,7.31-8.464l3.483-4.026l-1.082,14.619c-0.105,1.199-0.008,2.361,0.219,3.563l4.73,20.651l11.719,25.265
		c0.499,1.739,1.386,3.358,2.525,4.662l9.764,11.798l10.218,8.257c0.832,0.668,1.703,1.19,2.664,1.625l2.036,0.853
		c1.367,1.012,2.936,1.728,4.669,2.05l2.525,1.109c2.555,3.754,7.461,5.979,12.13,5.188l4.691,0.885
		c1.972,1.011,4.444,1.509,6.746,1.308l3.164,0.601c2.163,1.225,4.841,1.789,7.471,1.445l0.463,0.121l6.949-0.06
		c0.934,0.088,1.861,0.091,2.734-0.025l8.814-0.048c2.728,0.506,5.735-0.059,8.045-1.351l3.105-0.538
		c2.205,0.258,4.406-0.17,6.309-1.066l5.302-0.902c1.412,0.005,2.745-0.267,3.987-0.74l10.851-3.624
		c0.837-0.151,1.611-0.472,2.378-0.782l12.701-4.234l5.645-2.851c3.41-0.184,6.406-1.815,8.488-4.246l4.283-2.245
		c2.342-0.648,4.386-1.98,5.916-3.748l5.652-2.822c0.603-0.275,1.168-0.526,1.704-0.86l9.363-4.852
		c2.538-0.698,4.746-2.21,6.323-4.235l27.697-20.589c2.077-0.823,3.955-2.238,5.291-3.983l6.49-4.924
		c0.977-0.523,1.878-1.196,2.68-2.002l3.616-3.571l-0.019,5.123c-0.005,1.34,0.188,2.681,0.59,3.9l8.121,24.626
		c0.427,1.283,1.05,2.488,1.856,3.555l7.903,10.179l1.867,1.603c1.255,1.854,2.984,3.354,5.051,4.312l7.388,6.412
		c0.13,0.098,0.269,0.195,0.403,0.336c2.251,2.862,5.791,4.177,9.756,4.703l1.703,0.756c1.988,1.938,4.695,3.172,7.666,3.338
		l3.326,1.49c2.598,2.079,6.331,3.099,9.729,2.539c0.868,0.16,1.804,0.239,2.679,0.167l4.866-0.257
		c2.213,0.496,4.675,0.366,6.815-0.351l1.761-0.134c3.169,1.215,7.044,0.987,10.051-0.555l14.757-0.797
		c2.934,0.507,6.039-0.072,8.48-1.524l1.834-0.468c3.342,0.544,7.106-0.408,9.725-2.466l4.213-1.523
		c2.13-0.247,4.072-1.091,5.713-2.284l22.824-9.064l17.783-8.884l35.801-23.791c0.83-0.433,1.597-0.922,2.263-1.489l21.349-17.073
		l1.411-1.413c0.537-0.488,1.07-1.055,1.576-1.61l5.121-4.432c2.21-0.863,4.087-2.271,5.421-4.12l15.26-12.914l5.294-5.303
		c0.872-0.745,1.68-1.605,2.349-2.59l19.126-20.727c0.265-0.216,0.505-0.489,0.737-0.764l8.513-9.232
		c2.606-1.328,4.679-3.571,5.792-6.29l7.908-8.562c0.039-0.056,0.068-0.056,0.139-0.115l7.1-7.701
		c2.341-1.291,4.221-3.312,5.291-5.733l5.291-5.738c3.812-1.381,6.757-4.624,7.779-8.577l3.579-4.128
		c3.108-1.472,5.493-4.178,6.54-7.526l14.602-16.778l4.903-6.705c0.938-0.921,1.739-1.981,2.351-3.2l16.896-23.031
		c3.738-1.727,6.427-5.305,6.974-9.516l6.381-8.847c1.33-1.198,2.398-2.712,3.076-4.403l7.393-12.114
		c1.937-1.862,3.346-4.325,3.762-7.099l6.11-11.544c3.81-2.138,6.359-6.13,6.376-10.78l8.709-16.405
		c2.18-3.81,2.197-8.464,0.002-12.296c-2.181-3.789-6.242-6.155-10.613-6.171l-49.23-0.176c-4.896-0.018-9.35,2.906-11.296,7.437
		l-2.093,5.135c-3.08,2.196-5.095,5.835-5.109,9.932l-20.6,32.029c-0.066,0.058-0.109,0.158-0.135,0.217l-9.459,13.167
		c-0.236,0.257-0.465,0.552-0.674,0.863l-20.044,25.886c-1.681,1.331-3.021,3.061-3.822,5.051l-4.5,5.938
		c-2.405,1.251-4.341,3.172-5.49,5.572l-1.901,1.254c-1.773,1.216-3.221,2.806-4.192,4.736l-0.704,1.986
		c-1.513,1.141-2.721,2.634-3.527,4.347l-3.587,4.461l-2.87,1.999c-1.303,0.623-2.508,1.446-3.52,2.507l-9.312,9.306
		c-0.701,0.552-1.336,1.197-1.869,1.872l-12.924,13.054l-3.16,4.72l-0.902,0.703c-2.91,1.016-5.292,3.06-6.757,5.652l-2.915,2.334
		c-2.504,0.721-4.678,2.193-6.255,4.179l-14.357,10.941l-3.874,1.883c-0.139,0.098-0.309,0.194-0.474,0.274l-5.449,2.699
		c-3.308,0.225-6.24,1.788-8.321,4.106l-3.907,1.916l-6.711-0.024l-0.263-1.458l8.097-24.803c0.058-0.06,0.058-0.119,0.132-0.195
		l9.405-15.063c2.229-1.725,3.879-4.234,4.46-7.176l27.494-45.284c3.28-2.06,5.49-5.579,5.739-9.658l7.017-10.716
		c0.973-1.059,1.772-2.316,2.348-3.675l19.834-30.61c1.433-1.376,2.546-3.066,3.18-4.995l7.487-11.759
		c1.144-1.181,2.05-2.572,2.651-4.127l18.795-29.534c1.741-1.334,3.082-3.146,3.849-5.188l29.984-50.776
		c1.75-1.608,2.99-3.714,3.524-6.116l5.574-9.263c2.514-1.783,4.291-4.515,4.877-7.708l40.864-64.136
		c2.28-1.806,3.895-4.319,4.47-7.273l30.001-47.307c0.972-1.025,1.744-2.262,2.306-3.58l8.398-13.25
		c0.672-0.789,1.21-1.653,1.613-2.538l19.533-30.675c1.869-1.589,3.283-3.712,3.925-6.154l10.87-17.084
		c2.419-3.794,2.571-8.602,0.415-12.511c-2.12-3.908-6.253-6.408-10.722-6.424l-147.635-0.528c-4-0.014-7.785,1.943-10.096,5.245
		l-6.906,9.747l-16.71-12.708c-1.065-0.795-2.267-1.391-3.536-1.81l-6.9-2.446c-1.827-1.31-3.961-2.121-6.325-2.268l-6.772-2.43
		c-1.462-0.873-3.128-1.43-4.928-1.65l-16.209-2.169l-3.532,0.146c-1.735-0.287-3.638-0.235-5.306,0.236l-39.632,1.731
		c-2.935-0.642-6.136,0.017-8.604,1.465l-12.633,3.19l-12.035,4.922l-4.104,2.567c-2.642,0.442-4.986,1.771-6.721,3.638
		l-0.605,0.239c-3.999-0.117-7.583,1.447-9.991,4.16l-3.843,1.92c-3.938,0.263-7.387,2.355-9.439,5.442l-24.146,15.049
		c-4.205,0.497-7.743,3.088-9.558,6.763l-2.082,1.63c-3.507,0.816-6.426,3.13-8.03,6.198l-2.804,2.098
		c-2.478,0.701-4.619,2.171-6.165,4.098l-6.083,4.038c-2.548,0.74-4.75,2.229-6.363,4.252l-18.434,14.222
		c-0.195,0.158-0.396,0.313-0.605,0.487l-9.303,8.227c-2.238,1.017-4.115,2.705-5.396,4.771l-8.166,7.634
		c-0.198,0.22-0.393,0.417-0.603,0.607l-9.447,9.368c-0.364,0.356-0.732,0.706-1.066,1.082l-10.984,10.896
		c-0.574,0.551-1.135,1.065-1.609,1.672l-8.606,8.541c-0.668,0.569-1.304,1.175-1.835,1.846l-8.751,10.668
		c-1.048,0.884-1.921,1.962-2.621,3.206l-5.465,6.601c-3.81,1.267-6.822,4.309-7.971,8.191l-5.294,5.556
		c-1.932,1.293-3.478,3.099-4.42,5.225l-6.233,7.27c-1.675,1.175-3.021,2.771-3.89,4.558l-8.104,9.528
		c-1.944,1.256-3.489,3.083-4.462,5.207l-6.133,7.229c-1.698,1.199-3.077,2.83-4.02,4.718l-31.188,42.317
		c-0.539,0.609-0.97,1.238-1.339,1.926l-8.852,12.441c-2.213,1.61-3.889,3.891-4.703,6.643l-30.45,42.361
		c-0.538,0.649-1.003,1.297-1.407,2.025l-7.724,13.174c-1.941,1.689-3.347,4.009-3.9,6.688l-6.634,9.907
		c-1.207,1.102-2.145,2.44-2.82,3.936l-8.151,11.281c-2.305,1.602-4.054,3.964-4.86,6.76l-22.064,29.951l-4.959,5.58
		c-2.474,1.332-4.425,3.453-5.492,6.072l-17.525,20.172c-0.714,0.669-1.375,1.457-1.919,2.242l-6.493,7.583
		c-3.276,1.249-5.882,3.886-7.095,7.191l-4.128,3.45c-1.903,0.899-3.512,2.273-4.725,4.005l-27.907,23.587l-9.334,6.59
		c-1.304,0.469-2.504,1.17-3.577,1.998l-8.281,1.168c-2.237-1.448-5.063-2.123-7.801-1.857l-3.855-5.295l-3.04-10.889l-0.049-21.128
		l3.872-27.105l14.13-49.941l0.567-1.399c1.207-1.65,2.009-3.598,2.286-5.667l18.933-47.917c2.174-1.982,3.609-4.854,3.863-8.027
		l34.516-70.428l21.351-14.562c3.479-0.62,6.479-2.739,8.294-5.646l28.232-17.399l6.527-5.497c3.902-0.656,7.149-3.126,8.898-6.511
		l3.471-2.195c1.672-0.603,3.187-1.524,4.42-2.763l18.7-11.697c1.305-0.547,2.469-1.273,3.508-2.195l29.271-20.191
		c2.013-0.784,3.751-2.117,5.083-3.789l16.479-14.225c2.435-0.724,4.537-2.193,6.079-4.078l31.059-24.679
		c0.071-0.083,0.128-0.136,0.198-0.199l8.034-6.631c1.543-0.819,2.872-1.959,3.951-3.275l7.103-6.381
		c2.867-1.056,5.185-3.198,6.562-5.93l6.088-5.477c1.04-0.685,1.939-1.509,2.75-2.492l18.845-17.313
		c1.914-0.997,3.515-2.509,4.656-4.297l12.655-10.103l5.659-5.656c0.364-0.314,0.73-0.69,1.107-1.059l6.48-6.521
		c3.183-0.913,5.829-3.076,7.403-5.947l2.777-2.212c3.25-0.898,5.957-3.054,7.502-5.967l17.805-15.586
		c1.61-0.857,3.022-2.113,4.054-3.571l17.976-15.7c0.467-0.392,0.94-0.781,1.336-1.175l23.985-21.828
		c0.191-0.198,2.466-2.394,2.661-2.59l28.736-28.513c0.044-0.08,0.071-0.119,0.14-0.158l8.17-8.09
		c0.138-0.174,2.353-2.379,2.481-2.552l8.535-9.392c2.916-1.374,5.2-3.882,6.268-6.892l5.702-6.349
		c1.6-1.095,2.948-2.572,3.877-4.302l5.867-6.58c3.71-1.405,6.56-4.51,7.542-8.448l3.887-4.323c2.802-1.413,4.959-3.804,6.033-6.716
		l5.732-6.405c1.607-1.137,2.945-2.588,3.887-4.359l5.855-6.543c3.552-1.323,6.318-4.292,7.437-7.993l29.336-35.329
		c0.562-0.526,1.006-1.16,1.473-1.803l8.607-10.376l0.474-0.631c0.635-0.665,0.974-1.375,1.48-2.12l18.643-26.46
		c3.142-1.799,5.295-4.83,5.973-8.49l1.672-2.401l10.296-12.281c2.839-3.436,3.036-7.933,1.537-12.012
		c2.87,0.424,5.777-0.374,8.048-1.908l1.235-0.248c3.474,0.683,7.155-0.25,9.823-2.312l5.282-1.539
		c2.202-0.111,4.202-0.692,5.94-1.75l14.832-4.44c3.344,0.423,6.746-0.662,9.227-2.688l5.307-1.598
		c0.504-0.114,0.981-0.254,1.471-0.446l36.021-12.702l19.693-9.762c0.595-0.234,1.131-0.527,1.703-0.861l5.449-2.401
		c2.167-0.27,4.145-1.093,5.811-2.328l20.256-10.86c0.337-0.16,0.672-0.275,0.945-0.474l30.365-17.271
		c2.436-0.703,4.582-2.153,6.151-4.099l2.543-1.668c3.637-0.576,6.787-2.693,8.63-5.759l28.264-18.068
		c0.637-0.312,1.274-0.706,1.843-1.176l30.786-24.446l10.039-7.985c3.079-0.855,5.656-2.857,7.264-5.511l18.419-17.786
		c0.231-0.199,0.44-0.393,0.633-0.632l11.183-11.191c0.574-0.454,1.146-0.982,1.613-1.566l8.438-8.467
		c0.738-0.609,1.405-1.258,2.013-1.986l18.295-21.017c3.274-1.567,5.725-4.536,6.628-8.099l3.356-4.083
		c3.611-1.605,6.289-4.87,7.107-8.823l17.434-23.473l1.212-2.355c2.418-2.101,3.989-5.09,4.241-8.5l5.573-11.196l2.058-6.138
		c1.05-3.094,0.825-6.46-0.631-9.404L4264.529,177.59z M3015.852,286.36c-0.301,1.023-1.101,1.832-1.104,2.993l-0.022,6.147
		l-17.331,51.827l-1.214,2.401c-2.383,2.057-3.957,5.032-4.196,8.318l-29.249,57.56c-1.877,1.806-3.215,4.125-3.658,6.803
		l-8.263,15.46c-0.041,0.078-0.11,0.119-0.11,0.194l-8.916,12.664c-0.938,0.921-1.709,2.023-2.281,3.219l-8.059,11.403
		c-2.005,1.336-3.605,3.261-4.59,5.539l-9.072,12.072c-0.27,0.413-0.509,0.801-0.749,1.235l-8.041,9.252
		c-0.029,0.08-0.07,0.08-0.129,0.118l-12.263,12.176c-0.059,0-0.1,0.115-0.1,0.115c-0.025,0.02-0.094,0.083-0.094,0.083
		s-0.046,0.078-0.071,0.078c-0.029,0.041-0.072,0.096-0.072,0.096c-0.866,0.902-1.546,1.949-2.083,3.07l-17.543,18.52
		c-0.473,0.354-0.868,0.783-1.276,1.254l-8.299,7.123c-1.944,0.923-3.547,2.296-4.757,3.987l-13.184,11.167l-0.674,0.449
		c-2.603,0.739-4.876,2.312-6.457,4.394l-5.316,3.585c-2.402,0.564-4.545,1.816-6.188,3.585l-16.942,6.759
		c-0.07,0.019-0.193,0.055-0.297,0.074l-12.427,3.504l-16.72-0.06l-5.173-0.987c-0.862-0.417-1.8-0.673-2.767-0.877l-2.928-0.932
		l-6.952-7.436l-2.744-7.773l-1.747-14.276l6.973-28.155l4.711-9.838c1.137-1.471,2.012-3.248,2.424-5.152l14.048-29.313
		l15.747-26.037c0.774-0.824,1.432-1.728,1.98-2.713l15.289-20.634l35.592-42.008c2.341-1.349,4.207-3.456,5.293-5.932l7.566-8.29
		c0,0,0.041,0,0.066-0.04l22.241-22.108c0.265-0.274,0.479-0.471,0.706-0.707l17.498-15.978c1.682-0.939,3.119-2.237,4.229-3.808
		l8.939-6.907c0.033-0.036,0.102-0.057,0.16-0.08l6.697-4.505c2.462-0.644,4.633-2.113,6.224-4.079l15.747-9.992
		c2.408-0.545,4.547-1.756,6.194-3.508l17.785-12.115c0.068-0.018,0.14-0.055,0.208-0.1l23.402-13.625l14.508-6.612l0.883,14.901
		L3015.852,286.36z M3013.996,1040.942c-1.573,1.433-2.783,3.261-3.458,5.327l-7.524,11.68c-1.023,1.101-1.866,2.398-2.475,3.873
		l-8.661,13.428c-2.237,1.79-3.814,4.365-4.358,7.275l-4.091,5.798c-2.875,1.551-5.061,4.259-5.97,7.447l-18.436,22.308
		c-1.334,1.075-2.481,2.454-3.284,3.981l-38.209,45.981c-2.339,1.254-4.205,3.255-5.36,5.735l-0.396,0.192
		c-1.207,0.589-2.286,1.394-3.224,2.317l-14.762,14.903c-1.303,0.922-2.482,2.138-3.351,3.455l-2.788,4.15l-2.003,1.453
		c-1.706,0.725-3.204,1.84-4.412,3.172l-14.254,8.107c-3.331,0.246-6.27,1.776-8.349,4.127l-23.62,5.733l-6.299-1.202
		c-0.138-0.065-0.265-0.12-0.403-0.165l-6.132-1.988c-1.866-1.471-4.13-2.42-6.661-2.585l-2.008-1.01
		c-0.719-1.643-1.826-3.108-3.146-4.254l-4.033-10.891l-1.895-12.617l0.04-11.295l3.34-19.143l15.998-40.91
		c2.139-2.202,3.446-5.232,3.458-8.545l5.688-10.895c2.272-1.807,3.948-4.481,4.461-7.474l19.145-32.171
		c1.573-1.533,2.75-3.538,3.32-5.741l27.06-45.544c3.617-1.997,6.093-5.732,6.315-10.025l7.845-11.761
		c0.041,0,0.069-0.056,0.069-0.056l19.343-25.569c0.169-0.081,0.304-0.202,0.507-0.317l1.797,2.196
		c0.953,2.878,2.985,5.249,5.582,6.737l17.727,24.655l14.304,14.4c0.759,0.786,1.622,1.426,2.597,2.021l8.148,4.679
		c1.232,1.145,2.733,1.979,4.366,2.536l5.368,3.174c1.42,1.423,3.193,2.494,5.152,3.09l4.895,2.901
		c1.502,1.6,3.434,2.731,5.566,3.346l7.533,3.633c1.855,1.664,4.287,2.753,6.932,2.963l3.861,1.646
		c0.658,0.516,1.328,0.913,2.024,1.233L3013.996,1040.942z M3098.975,841.675L3095.353,866l-4.598,13.742l-1.664,8.8l-11.016,29.857
		c-0.885,1.295-1.48,2.812-1.817,4.367l-7.883,18.988l-1.344,4.452c-0.675,1.297-1.117,2.714-1.287,4.192l-12.328,21.729
		l-15.729-3.403l-14.89-9.198c-1.722-2.808-4.596-4.904-7.987-5.646l-5.356-4.118c-0.568-0.654-1.172-1.205-1.793-1.722
		l-12.6-15.733l-3.311-7.734c-0.363-1.734-1.055-3.393-2.051-4.814l-4.008-9.238l-1.86-10.271l-0.063-20.556l1.676-9.889
		l8.084-12.975l17.361-21.103l5.291-3.511c2.462-0.681,4.641-2.15,6.22-4.094l22.741-13.753c3.539-0.066,6.822-1.236,9.159-3.516
		l3.739-0.714c0.195-0.062,0.434-0.098,0.666-0.137l8.818-1.763c2.131,0.147,4.069-0.237,5.836-1.039
		c1.574,0.695,3.307,1.097,5.109,1.103c1.035,0.004,1.998-0.075,2.965-0.347c2.433,1.841,5.736,2.758,8.901,2.354
		c0.996,1.739,2.391,3.281,4.127,4.355l4.481,16.29l0.087,10.409C3099.005,841.46,3098.975,841.599,3098.975,841.675z
		 M3544.268,1180.473l1.746-4.039c2.947-2.233,4.802-5.734,4.816-9.659l7.156-14.298c1.274-1.414,2.205-3.129,2.752-5.038
		l20.02-38.061c1.282-1.394,2.224-3.082,2.693-4.951l27.45-41.744c3.071-1.88,5.254-4.988,5.834-8.673l5.771-8.588
		c1.969-1.589,3.49-3.771,4.196-6.252l8.222-12.269c0.336-0.431,0.63-0.862,0.901-1.356l8.014-11.951
		c3.085-1.825,5.299-4.988,5.879-8.708l5.671-8.493c2.033-1.567,3.543-3.775,4.29-6.289l7.78-9.688
		c0.198-0.237,0.365-0.436,0.534-0.688l9.054-11.262c2.305-1.469,4.072-3.67,5.03-6.27l36.515-40.699
		c0.803-0.863,1.476-1.847,2.011-2.872l1.409-2.517c0.274-0.274,0.541-0.553,0.81-0.865l9.236-9.19
		c0.474-0.39,0.868-0.783,1.245-1.215l10.944-10.877c0.549-0.475,1.08-1.002,1.543-1.615l8.575-8.498
		c0.67-0.531,1.275-1.119,1.806-1.791l10.416-10.388c0.77-0.606,1.483-1.255,2.073-2.06l5.863-4.648
		c1.737-0.808,3.21-1.981,4.412-3.455l17.812-14.714c1.735-0.765,3.276-1.9,4.516-3.317l4.143-2.227
		c1.838-0.529,3.545-1.452,4.918-2.682l17.089-9.38c0.104-0.044,0.162-0.081,0.234-0.081l7.677-1.706
		c1.635-0.034,3.177-0.383,4.575-0.969l7.648-1.02l2.79,3.583l0.725,2.738l-3.055,13.47l-43.248,64.518
		c-2.174,1.63-3.779,3.913-4.525,6.587l-5.701,9.714c-2.55,1.884-4.331,4.674-4.876,7.908l-20.059,28.994
		c-0.463,0.609-0.902,1.197-1.233,1.866l-7.39,12.865c-1.905,1.548-3.351,3.711-4.032,6.213l-18.882,28.742
		c-1.712,1.45-2.99,3.378-3.668,5.547l-19.693,29.861c-1.109,1.14-2.013,2.5-2.647,3.989l-41.349,64.293
		c-0.601,0.709-1.104,1.495-1.542,2.303l-49.482,74.017c-3.307,1.41-5.926,4.277-6.929,7.743l-6.204,6.183
		c-0.705,0.613-1.375,1.278-1.983,2.001l-5.959,5.996l-13.179,9.387c-0.395,0.218-0.802,0.491-1.201,0.769l-6.284,4.172
		c-2.353,0.661-4.355,1.995-5.898,3.746l-11.157,3.858l-12.46-2.9c-1.405-1.995-3.397-3.617-5.733-4.53l-2.387-23.542
		L3544.268,1180.473z M3716.552,419.599l26.169-30.771l2.181-2.552c0.031-0.039,0.094-0.039,0.168-0.077l-28.56,33.575
		C3716.551,419.718,3716.511,419.636,3716.552,419.599z M3791.485,487.935l-6.431,8.117c-1.178,1.04-2.149,2.253-2.887,3.632
		l-7.239,9.139c-2.846,1.53-5.021,4.122-5.968,7.328l-28.852,32.732c-1.063,0.86-1.978,1.921-2.712,3.061l-18.427,20.431
		c-2.147,1.251-3.914,3.176-4.953,5.497l-27.601,27.02c-1.803,0.983-3.351,2.395-4.487,4.125l-6.962,6.771
		c-1.64,1.118-3.012,2.651-3.956,4.458l-4.014,4.521c-3.312,1.367-5.899,4.115-7.037,7.576l-5.3,4.674
		c-2.604,1.055-4.739,2.981-6.084,5.419l-7.97,7.205c-0.197,0.196-0.376,0.389-0.535,0.568l-20.496,18.571
		c-0.934,0.624-1.734,1.374-2.477,2.195l-5.417,4.79c-2.74,1.05-4.985,3.053-6.364,5.536l-14.32,11.475l-5.666,5.655
		c-0.369,0.335-0.701,0.652-1.037,1.042l-28.52,25.42c-2.21,0.916-4.018,2.449-5.354,4.372l-25.241,20.685l-5.722,5.712
		c-0.31,0.252-0.633,0.608-0.904,0.922l-17.477,15.899c-1.399,0.781-2.609,1.783-3.589,3.061l-8.06,6.772
		c-1.868,0.878-3.479,2.249-4.689,3.983l-4.412,3.645c-2.812,1.039-5.116,3.019-6.566,5.594l-7.191,5.239
		c-0.939,0.472-1.775,1.06-2.576,1.765l-6.764,5.987c-2.604,1.091-4.78,3.017-6.16,5.475l-18.674,14.081
		c-0.197,0.157-0.401,0.275-0.603,0.417l-24.696,20.818l81.707-135.156l3.852-5.6c1.774-1.451,3.153-3.457,3.86-5.662l18.317-26.697
		c2.174-1.566,3.817-3.906,4.567-6.641l8.251-12.148c0.269-0.396,0.535-0.83,0.805-1.243l7.248-10.812
		c2.031-1.625,3.551-3.831,4.294-6.43l6.54-8.92c2.569-1.447,4.59-3.847,5.561-6.643l8.348-10.73
		c0.141-0.195,0.231-0.333,0.363-0.532l18.01-24.705c3.682-1.781,6.33-5.299,6.845-9.556l4.491-5.266
		c2.079-1.272,3.748-3.175,4.764-5.401l15.983-20.337c3.948-1.564,6.698-5.14,7.412-9.413l5.527-7.056
		c1.479-1.141,2.419-2.437,3.253-4.124l8.79-11.146c0.269-0.294,0.438-0.569,0.665-0.865l5.87-7.448l3.52-4.164
		c2.138-1.373,3.841-3.219,4.789-5.615l61.06-71.775c0.033-0.039,0.104-0.039,0.174-0.058l-20.785,25.268
		c-2.076,2.81-2.925,6.339-2.271,9.746c0.648,3.412,2.747,6.418,5.715,8.242l8.418,4.859c1.396,1.245,3.062,2.158,4.932,2.655
		l14.602,4.524l16.717,1.224c2.361,1.014,5.238,1.179,7.77,0.561l5.438,0.396l0.871,0.003c0.764,0.003,1.604,0.006,2.369-0.054
		l6.171-0.173c1.833,0.401,3.899,0.327,5.772-0.138l5.373-0.098c2.572,0.793,5.604,0.731,8.083-0.208l1.432-0.032
		c2.967,1.209,6.674,1.082,9.544-0.247l0.064,0c1.064,0.521,2.309-0.049,3.51,0.135
		C3793.74,483.428,3792.127,485.414,3791.485,487.935z M3953.102,238.275l-14.133,29.985c-3.309,2.193-5.618,5.789-5.634,10.03
		l-0.007,1.93l-6.727,14.306c-1.269,1.295-1.71,3.024-2.326,4.797l-10.035,18.033c-1.279,2.282-1.597,4.803-1.33,7.33
		c-0.001,0.231-0.236,0.433-0.237,0.686c-0.007,1.875,0.392,3.609,1.116,5.15c-0.837,0.392-1.606,0.818-2.339,1.35
		c-2.405-0.635-5.272-0.394-7.609,0.544l-2.505,0.188c-3.629-1.667-8.436-1.333-11.785,0.824l-2.071,0.132
		c-1.595-0.183-3.33-0.067-4.839,0.357l-2.909,0.228c-3.129-1.151-6.868-0.834-9.71,0.652l-14.779,0.794
		c-1.678-0.281-3.344-0.246-4.876,0.102l-4.202,0.125c-2.271-0.62-4.941-0.552-7.215,0.171l-4.034,0.121
		c-2.869-1.074-6.443-0.967-9.284,0.244l-0.297-0.001c-3.098-1.433-7.071-1.367-10.107,0.023c-3.436-1.551-8.034-1.373-11.355,0.547
		l-12.573,0.292c-0.277-0.001-0.545,0.042-0.771,0.08c0.155-0.2,0.1-0.517,0.272-0.672l23.362-20.805
		c0.842-0.708,1.536-1.532,2.148-2.399l81.466-76.683l9.632-7.195c1.809-0.803,3.209-1.862,4.459-3.357l7.053-5.276
		c1.008-0.568,1.838-1.093,2.645-1.937l12.476-7.169l7.214-3.088c0.503-0.276,1.201-0.137,1.672-0.467
		c2.894,0.779,6.071,0.217,8.615-1.114l2.129,0.445c0.602,0.236,1.17,0.517,1.803,0.635l0.659,2.486
		c-0.005,1.299,0.191,2.638,0.59,3.903l0.928,2.741L3953.102,238.275z"/>
</g>
</svg>
