<?xml version="1.0" encoding="utf-8"?>
<!-- Generator: Adobe Illustrator 16.0.0, SVG Export Plug-In . SVG Version: 6.00 Build 0)  -->
<!DOCTYPE svg PUBLIC "-//W3C//DTD SVG 1.1//EN" "http://www.w3.org/Graphics/SVG/1.1/DTD/svg11.dtd">
<svg version="1.1" id="Layer_1" xmlns="http://www.w3.org/2000/svg" xmlns:xlink="http://www.w3.org/1999/xlink" x="0px" y="0px"
	 width="1368px" height="4256px" viewBox="0 0 1368 4256" enable-background="new 0 0 1368 4256" xml:space="preserve">
<g display="none">
	<path display="inline" fill="#FFFFFF" d="M646.529,1936.385c1.795,2.34,4.394,4.042,7.409,4.672l31.825,17.382
		c3.805,1.913,8.314,1.703,11.963-0.563c3.588-2.207,5.793-6.205,5.793-10.444v-45.087c0-4.337-2.264-8.349-5.949-10.547
		l-9.421-5.643c-0.04-0.028-0.12-0.061-0.177-0.1l-13.754-9.813c-1.403-1.766-3.232-3.135-5.344-3.901l-38.583-27.126
		c-1.576-2.868-4.258-5.075-7.448-6.009l-43.537-39.512c-0.192-0.264-0.45-0.533-0.728-0.729l-21.795-21.828
		c-0.295-0.264-0.55-0.569-0.867-0.837l-8.791-8.678c-0.59-0.83-1.336-1.557-2.187-2.199l-7.823-7.7c0,0,0-0.071-0.04-0.071
		l-6.345-8.784c-0.808-2.501-2.404-4.641-4.493-6.175l-4.532-6.2l-5.121-13.49l-3.312-13.283c0.095-0.025,0.158-0.056,0.235-0.125
		h2.797c1.735,1.131,3.746,1.859,5.956,2.042l12.865,6.897c1.202,1.142,2.66,2.04,4.275,2.611l34.447,21.348
		c0.119,0.07,0.258,0.171,0.395,0.239l43.235,26.735l8.156,4.666c1.265,1.134,2.801,2.043,4.536,2.577l12.751,8.372
		c0.396,0.295,0.811,0.571,1.2,0.799l33.977,20.229c1.595,1.734,3.662,2.994,5.992,3.597l45.64,27.107l0.214,0.159
		c1.952,3.171,5.242,5.377,9.088,5.84l46.387,29.629c1.064,0.938,2.266,1.743,3.625,2.275l14.27,9.146
		c0.197,0.132,0.396,0.227,0.589,0.333l31.298,19.42c1.81,2.367,4.473,4.073,7.549,4.67l29.834,18.428
		c1.633,1.932,3.859,3.327,6.365,3.961l9.851,6.079c1.736,2.138,4.202,3.707,7.016,4.267l29.617,17.951
		c1.836,2.447,4.573,4.181,7.75,4.709l13.12,7.941c0.634,0.473,1.344,0.908,2.052,1.273l13.518,8.307
		c1.005,0.906,2.13,1.635,3.41,2.166l14.584,9.282c3.76,2.407,8.571,2.602,12.513,0.395c3.944-2.126,6.425-6.266,6.425-10.736
		v-137.398c0-4.099-2.089-7.939-5.477-10.238l-0.413-0.265c-1.797-2.876-4.734-5.006-8.181-5.677l-4.378-3.272l8.594-8.679
		c0.908-0.868,1.618-1.835,2.207-2.933l4.572-7.946c1.064-1.27,1.931-2.725,2.462-4.333l1.007-1.804
		c0.592-1.004,0.983-2.028,1.261-3.133l1.733-7.073c0.277-0.741,0.473-1.54,0.574-2.379l0.828-3.497
		c2.874-3.004,4.113-7.84,2.896-11.884l1.3-13.753c1.339-2.732,1.617-6.207,0.672-9.144l0.275-3.733
		c0.275-1.206,0.333-2.574,0.275-3.803v-0.128c0.058-1.005,0-2.11-0.181-3.146l-6.736-34.87l-12.829-34.004l-8.985-16.091
		c-0.378-3.93-2.583-7.372-5.796-9.338l-6.601-12.948l-3.213-4.643c-0.513-1.036-1.185-2.027-1.99-2.908l-12.905-18.609
		c-0.237-0.364-0.513-0.74-0.79-1.075l-5.912-7.806c-0.866-3.272-3.016-6.009-5.891-7.606l-2.564-3.41
		c-0.866-2.668-2.642-4.934-4.984-6.473l-13.795-16.947c-1.064-2.543-2.975-4.68-5.38-6.009l-7.449-8.11
		c-0.061-0.101-0.139-0.17-0.199-0.238l-22.088-22.089c-0.238-0.239-0.473-0.465-0.75-0.728l-33.817-31.739
		c-0.669-0.801-1.478-1.508-2.345-2.101l-20.161-18.187l-15.921-11.846c-1.418-1.941-3.39-3.408-5.694-4.247l-7.392-6.932
		c-0.277-0.31-0.553-0.574-0.869-0.841l-9.697-9.008c-1.394-2.6-3.701-4.637-6.458-5.673l-6.29-5.409
		c-1.477-2.267-3.605-4.001-6.167-4.938l-18.246-13.814l-1.022-1.204c-0.988-2.796-2.922-5.171-5.5-6.602l-34.666-28.77
		c-1.456-2.269-3.646-4.041-6.209-4.966l-5.613-4.414c-1.619-3.104-4.574-5.441-8.081-6.239l-7.327-5.674
		c-1.305-1.735-3.077-3.135-5.145-3.97l-7.845-6.041c-1.638-3.638-5.006-6.307-9.043-7.007l-6.15-4.74
		c-1.459-2.335-3.667-4.109-6.305-5.003l-7.336-7.006c-0.231-0.235-0.431-0.474-0.666-0.67l-9.698-8.88
		c-1.48-2.866-4.018-5.073-7.114-6.068l-6.978-6.781c-0.253-0.332-0.61-0.659-0.925-0.963l-9.143-9.142
		c-0.413-0.434-0.81-0.867-1.281-1.234l-10.936-10.917c-0.474-0.533-0.985-1.064-1.499-1.538l-8.649-8.602
		c-0.531-0.601-1.083-1.201-1.733-1.744l-8.496-8.405c-0.511-0.739-1.143-1.331-1.855-1.903l-6.814-7.979
		c-0.829-1.735-2.051-3.232-3.528-4.394l-4.672-5.846c-0.805-1.733-2.047-3.243-3.548-4.442l-16-19.983
		c-0.039-0.038-0.079-0.097-0.12-0.166l-15.17-20.429c-0.791-1.772-2.011-3.298-3.549-4.471l-1.538-2.13
		c-0.313-2.775-1.597-5.241-3.471-7.114l-4.333-9.98l-5.281-8.472c-0.042-0.1-0.083-0.199-0.117-0.336l-3.864-9.676
		c-0.156-0.308-0.239-0.603-0.414-0.898l-3.173-7.449c-0.037-0.125-0.06-0.295-0.098-0.463l-1.755-8.276
		c0.278-2.473-0.377-5.136-1.536-7.244l-0.511-3.297c0.137-0.8,0.04-1.607-0.063-2.437l-0.175-6.109
		c0.353-1.508,0.375-3.074,0.119-4.542l1.789-7.202c0.063-0.098,0.063-0.21,0.063-0.277l1.202-4.799
		c1.205-1.272,2.07-2.766,2.644-4.443l5.236-7.51l6.129-6.136l3.118-0.996c0.192-0.069,0.353-0.138,0.55-0.207l16.354-5.468
		l24.339-0.199l28.201,5.399c1.456,0.634,3.133,1.004,4.864,1.004l31.987,11.246c0.076,0.027,0.196,0.097,0.315,0.167l19.962,8.811
		c1.202,0.864,2.543,1.535,3.999,1.898l31.514,14.949l4.786,3.005c1.892,2.475,4.571,4.247,7.726,4.806l46.82,29.403
		c1.263,1.301,2.877,2.335,4.635,2.936l39.43,28.733c1.381,1.734,3.196,3.104,5.245,3.903l5.812,4.372
		c1.736,3.372,4.907,5.804,8.709,6.505l6.545,5.212c1.103,1.598,2.644,2.935,4.393,3.862l6.465,5.673
		c1.419,3.846,4.689,6.784,8.732,7.707l3.941,3.51c1.477,3.073,4.137,5.411,7.367,6.474l4.316,4.067
		c1.186,4.081,4.452,7.286,8.572,8.417l1.559,1.535c0.866,3.204,3.014,5.932,5.814,7.539l7.23,7.814c0,0,0.041,0.029,0.041,0.059
		l7.996,8.78c1.084,2.573,3.02,4.669,5.482,5.97l6.62,7.311c0.256,0.307,0.491,0.571,0.75,0.839l0.039,0.058
		c0.075,0.069,0.158,0.139,0.272,0.208l5.065,5.508c0.929,2.562,2.701,4.768,5.009,6.236l2.582,3.738
		c0.553,3.672,2.719,6.807,5.751,8.648l4.221,6.305c0.116,0.266,0.333,0.533,0.528,0.799l4.001,5.468
		c0.75,3.41,2.84,6.277,5.756,7.982l2.244,3.134c0.276,2.639,1.422,5.044,3.154,6.906l0.866,2.139
		c0.083,3.202,1.3,6.069,3.335,8.208l0.725,1.873c0,2.475,0.75,4.738,1.971,6.601l2.172,7.744v11.619
		c-1.027,1.537-1.737,3.302-1.972,5.2l-5.992,6.545l-6.387,1.062l-1.929-0.333l-0.533-2.631c0.869-3.536,0.061-7.644-2.069-10.446
		l-5.004-20.622l-9.735-18.789l-25.383-27.462c0-0.07-0.058-0.138-0.058-0.138c-0.062-0.031-0.14-0.098-0.14-0.098
		s0-0.043-0.062-0.043c0-0.055-0.017-0.055-0.058-0.095c-0.037-0.03-0.078-0.03-0.116-0.098c-0.889-0.799-1.972-1.539-3.118-2.07
		l-18.089-8.771c-1.336-1.041-2.874-1.772-4.551-2.177l-33.738-8.603h-16.414c-1.655,0-3.308,0.327-4.849,0.996l-14.345,6.139
		c-1.894,0.837-3.526,2.109-4.809,3.745c-1.656,1.264-2.959,3.036-3.785,5.005l-3.312,4.473c-2.563,1.598-4.469,4.069-5.337,7.075
		l-0.059,0.06c-1.186,1.575-1.952,3.411-2.285,5.339l-0.731,4.377c-1.277,2.305-1.793,5.241-1.323,7.9v0.039
		c-0.175,1.165-0.214,2.337-0.075,3.566l0.236,1.805c-0.67,2.767-0.236,5.972,1.062,8.483l0.729,5.934
		c0.141,1.2,0.436,2.402,0.907,3.467l3.999,10.013c0.633,1.538,1.541,2.937,2.74,4.109l4.945,6.441
		c0.517,2.337,1.735,4.405,3.394,6.002l1.966,3.411c0.553,0.964,1.208,1.832,1.975,2.6l3.94,3.94
		c0.119,0.127,0.277,0.226,0.394,0.334l11.43,11.372c0.431,0.533,0.928,1.043,1.461,1.508l26.524,21.825l16.987,9.339
		c1.928,2.366,4.73,4.001,7.939,4.405l13.615,7.478l19.037,6.841l30.429,4.236h18.404c1.146,0,2.208-0.129,3.273-0.463l24.789-7.007
		l18.329-9.35l8.178-6.168c1.339-1.005,2.441-2.275,3.311-3.705l4.393-7.912c1.341-1.438,2.347-3.172,2.879-5.107l2.267-2.794
		c2.877-1.576,5.062-4.275,5.97-7.51c0.67-0.878,1.203-1.841,1.616-2.839l8.199-20.491c0.432-1.064,0.707-2.237,0.828-3.411
		l1.382-15.41c0.707-1.933,0.904-4.208,0.551-6.307l0.354-3.644c1.99-3.166,2.404-7.668,0.985-11.213l0.077-1.232
		c0.791-2.033,1.025-4.464,0.594-6.643l0.137-1.331l-0.413-3.131c0.943-3.245,0.413-7.075-1.324-9.913l-0.453-3.576
		c0.473-2.572,0.122-5.411-1.022-7.676l-1.321-10.573l-1.536-4.877c-0.058-2.366-0.808-4.575-2.011-6.405l-2.188-7.173
		c-0.177-1.439-0.613-2.811-1.28-4.082l-19.551-46.84l-5.772-7.717c-0.042-0.03-0.042-0.07-0.079-0.097l-7.331-10.811
		c-0.513-0.963-1.104-1.87-1.773-2.668l-3.427-5.046c-0.708-2.869-2.446-5.329-4.769-7.032l-3.351-4.938
		c-0.669-3.142-2.563-5.814-5.126-7.547l-0.811-1.202c-0.409-4.277-3.013-7.942-6.677-9.815l-2.07-3.066
		c-0.688-2.273-2.068-4.233-3.883-5.703l-4.177-6.178c-0.827-2.867-2.6-5.271-5.006-6.878l-4.101-5.604
		c-0.592-1.262-1.458-2.405-2.441-3.333l-15.294-17.558c-1.005-3.064-3.188-5.604-6.028-7.033l-6.778-7.61
		c-0.275-0.275-0.517-0.502-0.791-0.766l-13.968-13.955c-0.928-0.936-1.992-1.734-3.177-2.335l-2.56-2.401
		c-0.631-1.332-1.459-2.534-2.541-3.579l-32.262-32.259c-0.355-0.335-0.711-0.709-1.043-1.005l-24.531-28.338l-23.414-36.704
		l-1.264-3.173c-0.274-2.138-1.107-4.072-2.324-5.705l-1.696-4.769c0.476-2.839-0.829-5.478-2.441-7.548l-0.021-0.395l15.451,7.173
		c1.399,1.104,3.135,1.933,4.966,2.306l26.231,12.207l31.727,8.417l1.477,0.267c1.952,1.232,4.196,1.929,6.681,1.929l38.803,5.943
		c1.402,0.264,2.836,0.264,4.233,0.068l25.581-4.333l6.543-1.678h2.761c2.873,0,5.514-0.965,7.566-2.599l17.266-6.375
		c1.355-0.503,2.675-1.301,3.76-2.239L986.387,974c1.577-0.908,2.956-2.177,3.981-3.647l5.203-7.271
		c2.288-1.597,4.021-3.938,4.79-6.671l0.214-0.335c0.611-0.867,1.146-1.802,1.52-2.807l6.736-18.554l4.317-24.759v-1.735
		c0-0.268,0-0.463,0-0.67l-0.041-9.076c0.041-0.532,0.061-1.171-0.036-1.664v-8.277c0.138-1.47,0-3.036-0.395-4.437l-0.396-4.44
		c0.516-1.399,0.868-2.936,0.868-4.543c0-2.435-0.749-4.698-1.949-6.601l-0.197-2.139c0.254-2.472-0.199-5.205-1.399-7.339
		l-0.669-2.939c0.351-2.794-0.356-5.735-1.813-8.077l-2.66-9.006c-0.1-0.403-0.199-0.81-0.375-1.202l-6.309-18.79l-5.731-13.351
		c-0.258-0.7-0.533-1.361-0.869-2.031l-2.799-6.473c-0.334-1.972-1.122-3.775-2.305-5.314l-10.244-18.415l-0.063-0.068
		c-0.847-3.036-2.813-5.577-5.417-7.173l-0.298-0.533c-0.216-3.773-2.166-7.074-5.062-9.183l-7.607-13.841l-2.561-3.373
		c-0.827-1.969-2.088-3.704-3.743-5.006l-5.873-7.773c-0.12-0.208-0.202-0.335-0.355-0.503l-5.873-7.547
		c-0.827-3.441-3.115-6.337-6.189-7.971l-2.128-2.74c-0.902-3.201-3.075-5.874-5.952-7.438l-24.078-28.438
		c-0.788-1.23-1.755-2.295-2.88-3.231l-8.829-8.945c-0.256-0.2-0.452-0.465-0.708-0.661l-6.9-7.016
		c-1.103-3.511-3.761-6.338-7.171-7.707l-3.507-3.773c-1.122-2.531-3.095-4.641-5.517-5.94l-43.394-39.849l-16.847-12.905
		c-0.972-1.073-2.169-1.972-3.454-2.641l-40.536-28.733c-1.735-2.571-4.435-4.504-7.645-5.172l-10.347-6.974
		c-1.065-1.036-2.288-1.902-3.704-2.506l-27.668-18.383c-1.93-2.771-5.006-4.641-8.512-5.104l-11.312-6.772
		c-1.382-1.407-3.115-2.442-5.086-3.044l-15.33-9.172c-1.46-1.468-3.274-2.575-5.302-3.172l-42.019-20.158l-28.473-11.105
		c-1.42-0.939-3.034-1.569-4.768-1.875l-24.358-8.638c-1.732-1.067-3.742-1.676-5.871-1.775l-34.035-10.171l-41.38-4.136
		l-23.627,2.195l-22.547,4.139c-1.142,0.197-2.285,0.535-3.31,1.064l-14.528,7.439c-1.395,0.435-2.655,1.105-3.76,1.942
		l-24.771,18.524l-9.577,12.475l-1.122,2.305c-2.252,1.902-3.785,4.64-4.218,7.674l-1.261,2.028
		c-3.271,2.474-5.162,6.82-4.929,10.891l-6.187,29.766l0.04,3.399c-0.04,0.462-0.04,1.033,0,1.537l0.041,8.012
		c-0.122,0.965-0.08,1.929,0.02,2.896l0.036,6.917c-0.37,2.168-0.036,4.502,0.767,6.463l1.146,7.352
		c0,1.595,0.216,3.033,0.706,4.403l3.432,17.216c0.12,1.801,0.633,3.505,1.463,5.003l18.814,47.859l21.62,36.378l11.393,13.145
		l8.83,13.154l53.872,56.054c0.238,0.208,0.474,0.472,0.729,0.669l10.074,9.608c1.341,2.168,3.269,3.912,5.595,4.946l5.282,4.575
		l0.983,1.968c0.552,1.162,1.36,2.226,2.285,3.164l20.537,17.854c1.457,2.601,3.824,4.601,6.703,5.578l10.166,7.843h0.038
		l9.285,8.267c1.434,3.075,4.117,5.476,7.371,6.512l6.243,5.942c0.791,1.037,1.736,1.973,2.838,2.7l13.521,9.615
		c0.038,0.059,0.057,0.059,0.117,0.128l12.967,10.749l46.175,31.798c1.869,2.64,4.748,4.572,8.076,5.114l34.192,21.786l15.53,6.445
		c0.473,0.6,1.004,1.131,1.533,1.666c-0.137,2.332,0.277,4.569,1.264,6.502l1.18,13.921c-0.708,2.7-0.433,5.775,0.691,8.248v0.029
		l-44.437-26.868c-1.003-0.797-2.088-1.47-3.234-1.936l-9.928-6.008l-42.136-16.85l-34.014-8.845
		c-1.928-1.303-4.255-2.032-6.776-2.032l-40.538-8.178l-51.254-2.03c-1.205-0.067-2.449,0.06-3.648,0.396l-32.142,8.641
		l-3.627,1.171c-3.78,0-7.17,1.734-9.456,4.406l-21.816,13.547l-7.154,7.272c-0.788,0.642-1.499,1.34-2.089,2.137l-7.407,9.351
		c-0.713,0.69-1.264,1.497-1.775,2.364l-6.405,8.74l-1.559,3.173c-0.43,0.671-0.786,1.399-1.042,2.142l-6.486,13.213l-4.335,15.547
		l-1.99,11.421c-2.069,2.864-2.78,7.004-1.836,10.57l-0.469,8.307c0.04,0.434,0,0.809,0.04,1.204v8.71c-0.081,0.628,0,1.268,0,1.902
		v8.078c-0.081,0.798-0.081,1.607,0,2.474l0.061,9.577c-0.176,0.966-0.142,1.96,0,2.964l0.413,5.244
		c-1.024,3.231-0.474,7.035,1.264,9.902l0.312,2.54c-0.197,1.934,0.158,3.944,0.747,5.679l1.735,13.339l1.616,5.616
		c0.12,1.835,0.633,3.566,1.463,5.136l10.28,28.703l13.329,24.355c0.61,1.934,1.691,3.668,3.071,5.075l3.149,5.34
		c0.535,1.667,1.401,3.135,2.524,4.408l4.279,7.438c0.252,0.559,0.611,1.102,0.925,1.565l7.825,11.747
		c0.194,0.333,0.395,0.667,0.647,0.936l20.454,28.368c0.791,3.199,2.802,5.912,5.483,7.577l10.856,15.183
		c0.649,0.896,1.398,1.736,2.349,2.434l1.355,1.036c1.558,2.499,4,4.373,6.878,5.24l2.17,2.563c0.964,2.739,2.833,5.004,5.261,6.445
		l2.817,3.439c0.93,3.004,2.996,5.506,5.734,7.004l4.59,5.508c1.025,3.034,3.196,5.507,6.031,6.976l6.665,7.508l-25.66-6.109
		l-30.9,0.208l-22.562,4.072c-1.164,0.193-2.229,0.6-3.31,1.091l-6.842,3.547c-1.024,0.365-1.968,0.827-2.837,1.458l-20.89,14.622
		c-1.338,1.035-2.46,2.305-3.307,3.735l-1.891,3.298c-1.735,1.678-2.977,3.805-3.549,6.211l-4.573,8.553
		c-0.492,0.796-0.906,1.596-1.165,2.501l-3.208,8.169c-0.987,1.772-1.579,3.843-1.579,6.037l-2.01,7.65l-0.867,19.884
		c-1.441,2.904-1.613,6.61-0.475,9.616l-0.078,1.833c-0.786,2.238-0.888,4.838-0.277,7.173l-0.314,6.68l0.083,0.532
		c-0.477,2.405,0,5.067,0.981,7.272l1.538,10.946l1.419,4.141c0.117,2.404,0.983,5.703,2.68,7.87l1.457,4.141
		c-0.158,3.338,0.947,6.139,2.816,8.343l7.453,13.942c0.336,3.146,1.869,5.983,4.137,7.944l6.307,12.217l11.565,15.924l5.248,5.17
		c0.63,0.73,1.297,1.432,2.103,2.03l4.203,4.979c0.866,2.167,2.343,4.069,4.215,5.438l3.703,3.903
		c1.105,3.635,3.824,6.57,7.411,7.94l2.488,3.007c0.409,2.268,1.475,4.334,2.954,6.009h-15.414c-1.339,0-2.64,0.197-3.881,0.601
		l-18.482,6.166c-1.142,0.375-2.21,0.908-3.138,1.569l-20.534,14.356c-0.961,0.698-1.83,1.538-2.599,2.461
		c-1.655,1.341-2.953,3.075-3.802,5.076l-2.541,3.398c-0.75,1.048-1.402,2.209-1.836,3.479l-0.175,0.534
		c-1.66,2.198-2.604,5.311-2.482,8.038l-4.08,17.855v3.302c0,0.571,0,1.202,0,1.773l0.057,7.746
		c-0.078,1.035-0.117,2.196,0.041,3.298l0.078,8.378c-0.236,1.467-0.236,3.074,0.039,4.502l6.087,32.602
		c0.241,1.273,0.655,2.504,1.244,3.605l9.854,19.689c0.156,0.403,0.353,0.77,0.547,1.129l5.481,10.921
		c0.278,0.63,0.592,1.231,0.947,1.834l5.593,9.213c0.043,0.063,0.063,0.125,0.119,0.226l4.021,8.021
		c0.471,0.924,1.027,1.791,1.735,2.563l10.876,12.382c0.769,1.371,1.813,2.571,2.996,3.539l11.271,15.449l1.025,1.004
		c1.068,3.625,3.787,6.564,7.333,7.944l4.041,4.937c0.672,1.134,1.493,2.163,2.502,3.035l5.339,6.501
		c0.806,1.677,1.991,3.146,3.469,4.278l6.207,6.807c1.141,3.066,3.512,5.608,6.505,6.978l4.513,4.835
		c1.005,1.866,2.423,3.442,4.198,4.573l17.458,15.915c1.22,3.871,4.296,6.876,8.158,8.08l6.703,6.599
		c0.317,0.375,0.65,0.715,0.983,1.036l9.028,8.947c0.453,0.562,0.942,1.102,1.535,1.567l9.854,9.577
		c1.342,2.04,3.269,3.644,5.519,4.572l6.834,5.745c1.282,1.932,3.095,3.469,5.243,4.435l7.31,6.175
		c1.206,1.663,2.802,2.996,4.635,3.941l9.44,7.942c1.28,2.003,3.153,3.596,5.377,4.532l7.115,6.012
		c1.183,1.764,2.898,3.203,4.87,4.139l27.37,20.146c0.985,1.011,2.167,1.809,3.467,2.409l10.013,6.906
		c1.46,1.771,3.349,3.102,5.537,3.843l9.597,6.601c1.813,3.272,5.125,5.677,9.027,6.206L646.529,1936.385z M709.667,852.754
		l-31.745-20.426c-0.1-0.057-0.18-0.126-0.217-0.158l-13.597-9.676c-0.435-0.374-0.908-0.708-1.42-0.976l-14.899-9.213l-0.078-0.059
		l-12.179-10.012c-1.181-1.675-2.84-3.003-4.692-3.872l-7.367-6.079c-1.3-1.903-3.153-3.399-5.244-4.336l-20.828-17.282
		c-1.281-2.266-3.271-4.079-5.639-5.146l-12.233-11.279l-3.883-4.435c-1.088-2.808-3.135-5.105-5.736-6.514l-16.791-17.449
		c-0.571-0.701-1.239-1.369-1.971-1.933l-5.874-5.702c-0.824-3.146-2.835-5.745-5.514-7.353l-4.219-6.334
		c-0.119-0.198-0.235-0.404-0.374-0.562l-12.277-17.755c-0.627-3.242-2.526-6.011-5.125-7.813l-2.857-10.042v-19.961l4.001-8.042
		l6.937-7.176l12.024-6.205l23.251-0.336l31.571,7.886c0.804,0.255,1.633,0.461,2.543,0.589l22.717,7.687
		c2.286,2.865,5.776,4.729,9.715,4.729h3.234l17.912,11.015l25.343,11.547l6.582,4.337c1.971,3.242,5.363,5.48,9.344,5.875
		l9.635,5.169c2.066,2.939,5.457,4.908,9.28,5.104l7.214,5.272c1.458,2.01,3.527,3.548,5.932,4.346l10.014,7.34
		c1.63,2.503,4.133,4.376,7.111,5.174l10.053,7.34l1.731,0.533c0.059,0.037,0.078,0.069,0.117,0.099l11.215,9.282
		c0.647,0.6,1.302,1.161,2.03,1.663l11.117,9.173c1.259,1.735,2.951,3.144,4.883,4.042l5.203,4.276l-10.208,8.08
		c-0.433,0.364-0.866,0.798-1.26,1.262l-8.634,8.68c-0.688,0.601-1.34,1.192-1.852,1.902l-9.181,11.074
		c-0.83,0.81-1.576,1.733-2.171,2.768l-5.557,7.006c-1.186,1.076-2.188,2.346-2.918,3.803l-4.887,6.181
		c-1.733,1.367-3.094,3.239-3.86,5.369l-16.946,36.575l-2.877,13.42C713.668,853.958,711.758,853.091,709.667,852.754z
		 M876.309,929.303c-1.457-0.559-2.996-0.863-4.65-0.863h-5.855l-28.711-9.472c-0.354-0.137-0.692-0.235-1.025-0.334l-25.146-9.745
		l-20.177-9.005c-1.735-2.012-4.142-3.48-6.86-4.01l-7.254-4.335c0.514-1.412,0.771-2.768,0.711-4.476l4.412-15.813
		c1.125-1.874,1.736-4.08,1.736-6.377l0.436-1.466c2.088-2.068,3.469-4.877,3.666-8.012l1.832-3.705
		c2.499-2.138,4.137-5.269,4.334-8.81l0.061-0.206c3.309-1.931,5.616-5.369,6.01-9.34l1.146-1.564
		c2.105-1.507,3.66-3.678,4.508-6.181l3.488-4.837c2.307-0.995,4.199-2.7,5.539-4.838l5.004-3.333l3.604-1.073
		c1.955-0.068,3.768-0.628,5.346-1.536l11.94-2.265l33.268,10.946c1.456,1.261,3.192,2.267,5.121,2.741l6.404,5.733
		c1.398,2.938,3.901,5.201,6.997,6.275l26.363,27.559c0.869,1.48,2.093,2.74,3.474,3.744l3.743,4.505
		c0.333,0.936,0.788,1.83,1.377,2.63l4.379,8.316l1.655,6.769c0,2.041,0.53,4.74,1.651,6.711l0.473,2.738
		c-0.114,1.104-0.056,2.169,0.08,3.204l0.059,3.869l-1.593,8.179l-4.022,6.601l-9.341,7.815l-5.556,2.397h-0.197
		c-2.919,0-5.557,0.973-7.65,2.638l-10.562,1.301L876.309,929.303z M753.851,1679.02c-1.478-1.732-3.411-2.994-5.578-3.734
		l-26.071-17.214c-1.771-2.903-4.692-5.001-8.14-5.673l-10.187-7.007c-0.947-0.936-2.047-1.702-3.291-2.273l-35.573-21.816
		c-0.156-0.11-0.333-0.207-0.55-0.336l-14.07-8.555c-1.143-1.061-2.463-1.891-3.941-2.461l-12.415-7.745
		c-1.161-1.107-2.523-1.931-4.002-2.533l-12.947-8.081c-1.809-2.471-4.53-4.266-7.745-4.799l-8.848-5.675
		c-1.691-2.206-4.096-3.8-6.817-4.473l-22.23-18.523c-1.023-1.163-2.206-2.168-3.547-2.896l-17.619-14.217l-22.898-24.496
		c-0.041-0.07-0.061-0.138-0.116-0.208l-14.092-22.19c-0.214-0.294-0.414-0.63-0.649-0.894l-1.735-2.604v-16.021l0.278-0.529
		c0.389-0.672,0.749-1.371,1.024-2.099l1.418-2.544c2.283-0.504,4.371-1.705,5.988-3.303l21.443-0.797l17.224,3.735
		c0.079,0.067,0.195,0.098,0.316,0.128l45.519,18.79c1.615,1.872,3.745,3.241,6.189,3.904l10.701,6.944
		c1.3,1.261,2.878,2.334,4.609,2.936l29.305,18.485c1.795,2.367,4.455,4.069,7.529,4.613l9.026,5.802
		c1.597,2.001,3.761,3.469,6.265,4.206l8.477,6.543c1.061,1.163,2.325,2.168,3.783,2.868l8.788,6.81
		c1.673,3.298,4.769,5.774,8.511,6.543l6.703,5.134c1.456,2.138,3.588,3.773,6.029,4.67l22.881,18.188
		c1.477,2.039,3.528,3.567,5.969,4.406l9.084,6.708c1.125,1.332,2.602,2.396,4.203,3.134l11.938,8.809
		c0.159,0.097,0.24,0.209,0.354,0.267l14.268,10.346c1.205,1.368,2.721,2.473,4.414,3.201l33.031,27.502
		c1.438,2.543,3.744,4.542,6.543,5.538l6.066,5.172c1.341,2.17,3.349,3.913,5.754,4.908l18.546,15.752l3.606,3.567
		c0.331,0.435,0.748,0.798,1.142,1.163l8.595,8.516c0.668,0.835,1.418,1.577,2.209,2.167l9.733,9.646
		c0.824,1.174,1.891,2.236,3.074,3.034l7.014,6.948c0,0.058,0.08,0.128,0.08,0.166l16.393,22.594
		c0.222,0.269,0.416,0.495,0.61,0.729l3.61,4.867c0.392,2.01,1.34,3.887,2.599,5.45l1.339,3.763c0.241,2.003,0.949,3.943,2.03,5.55
		l2.034,5.534c0,0.77,0.076,1.537,0.197,2.237l0.153,2.869l-1.97,7.873c-0.907,1.172-1.579,2.504-1.969,3.911l-7.353,1.458
		l-7.348-4.46c-2.029-3.205-5.481-5.414-9.438-5.747l-10.311-6.267c-1.618-1.745-3.667-3.004-6.008-3.605l-32.38-20.3
		c-0.547-0.463-1.145-0.865-1.795-1.2l-46.348-30.625c-1.161-1.203-2.582-2.138-4.141-2.78L753.851,1679.02z"/>
	<path display="inline" fill="#FFFFFF" d="M882.103,1982.004c-2.249-1.373-4.847-1.905-7.353-1.701
		c-0.37-0.039-0.691-0.069-1.044-0.069c-9.3,0-15.054,11.884-10.249,19.117v138.762c0,4.31,2.287,8.307,5.992,10.543l101.45,60.873
		c1.73,2.098,4.199,3.636,6.976,4.169l4.335,2.602c3.765,2.303,8.516,2.334,12.379,0.197c3.859-2.195,6.226-6.272,6.226-10.743
		v-145.563c0-4.304-2.247-8.302-5.951-10.552l-20.101-12.039c-0.278-0.168-0.573-0.375-0.867-0.503l-14.291-8.571
		c-1.931-2.771-5.005-4.709-8.528-5.146l-11.274-6.767c-1.419-1.371-3.153-2.403-5.043-3.005l-31.038-18.622
		c-1.777-2.141-4.24-3.675-7.078-4.269L882.103,1982.004z"/>
	<path display="inline" fill="#FFFFFF" d="M94.036,1859.16c3.573-0.398,6.657-2.368,8.594-5.205l8.945-5.874
		c1.895-0.73,3.47-1.929,4.746-3.468l7.866-5.773l3.707-4.1c1.812-1.144,3.309-2.776,4.296-4.678l4.152-4.574
		c3.278-1.398,5.821-4.164,6.878-7.604l1.939-2.136c4.666-1.362,8.19-5.372,8.805-10.312l3.45-4.038
		c1.358-1.062,2.563-2.432,3.354-3.97l9.77-11.479l3.251-5.076c2.269-1.703,3.902-4.207,4.532-7.04l3.137-4.831
		c2.757-1.871,4.685-4.777,5.202-8.152l1.812-2.738c1.809-1.495,3.191-3.466,3.936-5.733l4.931-7.142
		c1.284-1.205,2.288-2.675,2.955-4.278l14.211-22.251l6.997-16.118c1.89-1.636,3.268-3.805,3.938-6.311l2.169-3.976
		c2.64-2.228,4.335-5.596,4.335-9.337c0-0.032,0-0.063,0-0.063l6.109-13.284c2.107-1.873,3.548-4.414,4.02-7.31l5.299-9.379
		l11.648-29.437c0.73-1.198,1.223-2.597,1.458-4.067l3.585-10.284c0.042-0.128,0.081-0.299,0.158-0.465l2.127-6.473
		c1.58-2.068,2.526-4.603,2.526-7.411c0-0.026,0-0.057,0-0.057l0.49-1.508c2.738-2.701,4.14-6.939,3.409-10.847l4.104-13.284
		c1.494-2.127,2.083-4.702,2.244-7.538l4.062-15.322c1.458-2.166,2.164-4.966,2.066-7.636l1.596-6.01
		c0.04-0.169,0.118-0.365,0.137-0.562l2.069-7.913c1.774-2.403,2.68-5.607,2.268-8.742l0.867-3.308
		c0.729-1.47,1.199-3.097,1.282-4.797l3.979-15.255l3.665-24.731c0.351-1.232,0.555-2.139,0.555-3.871l4.055-27.53l3.982-48.183
		c0.098-0.672,0.156-1.342,0.156-2.071v-9.951c0-0.197,0-0.393,0-0.591v-9.52c0-0.295,0-0.6,0-0.866v-11.312
		c0-0.365,0-0.729,0-1.104v-9.045c0-0.463,0-0.866,0-1.261v-8.946c0-0.465,0-0.935,0-1.399v-10.821c0-0.531,0-1.061,0-1.557
		l-0.117-7.713c0.272-1.705,0.117-3.537-0.335-5.132l-1.794-27.04c0.458-2.126,0.241-4.374-0.436-6.376l-3.444-40.674
		c0-1.201-0.14-2.402-0.416-3.477l-3.782-28.428c0.311-2.43-0.195-4.835-1.224-6.876l-0.708-4.167
		c-0.156-1.775-0.272-3.705-0.983-5.304l-1.164-6.416c-0.019-0.864-0.196-1.731-0.438-2.529l-1.55-8.68
		c0.156-1.596-0.277-3.204-0.811-4.604l-1.36-7.675c-0.042-0.266-0.117-0.533-0.178-0.797l-3.802-19.728
		c-0.197-1.232-0.335-3.439-0.964-4.976l-1.105-5.607c0-1.535-0.295-2.994-0.812-4.335l-1.217-6.306
		c-0.078-1.23-0.312-2.435-0.71-3.565l-1.399-7.214c0.202-2.206-0.256-4.57-1.278-6.502l-0.71-3.914
		c0.122-2.53-0.475-5.073-1.716-7.142l-0.492-1.932c0.628-3.331-0.414-6.977-2.446-9.54l-1.617-6.344
		c-0.078-1.006-0.35-1.93-0.688-2.867l-1.278-4.935c0.414-2.644-0.516-5.342-1.894-7.481l-4.234-16.75
		c-0.143-1.537-0.496-3.007-1.122-4.345l-0.99-3.863c0.2-2.907-0.49-5.842-2.047-8.15l-4.064-15.813
		c0-2.009-0.509-3.872-1.375-5.536l-0.746-2.94c0.47-3.142-0.477-6.411-2.249-8.805l-3.826-15.098
		c0.2-2.128-0.535-4.492-1.616-6.404l-0.55-2.168c0.55-3.399-0.435-6.837-2.365-9.38l-3.841-17.351
		c-0.062-0.366-0.18-0.701-0.236-1.036l-1.596-6.501c0.056-2.306-0.553-4.742-1.699-6.682l-8.652-37.305
		c0.338-2.796-0.412-6.012-1.948-8.375l-6.23-24.859c0.299-2.868-0.569-5.901-2.162-8.205l-3.946-14.893
		c0.139-2.669-0.59-5.13-1.932-7.203l-0.334-1.337c0.728-3.607-0.413-7.606-2.738-10.347l-3.354-12.573
		c0.552-3.215-0.31-6.511-2.044-9.046l-0.144-0.473c0.813-3.539-0.172-7.538-2.339-10.346l-3.529-15.349
		c-0.061-1.598-0.416-3.137-1.005-4.535l-1.022-4.444c0.075-2.364-0.433-4.896-1.58-6.907l-0.591-2.503
		c0.394-2.965-0.356-6.068-1.936-8.443l-6.342-28.298c-0.081-0.267-0.137-0.563-0.196-0.868l-1.735-7.737
		c0.255-2.805-0.416-5.612-1.735-7.881l-8.828-47.79l-5.875-23.055c0-0.069,0-0.138,0-0.197l-0.725-6.178
		c1.395-3.735,0.862-8.347-1.363-11.548l-0.114-0.73c0.552-2.533,0.175-5.37-0.908-7.674l-1.558-13.284
		c1.202-3.467,0.671-7.675-1.261-10.709l-0.238-1.842c0.297-2.101,0.02-4.396-0.767-6.337l-1.145-17.488c0-0.336,0-0.673,0-0.997
		l-0.036-9.015c0.036-0.463,0.036-0.995,0-1.499l-0.021-8.571c0.058-0.613,0.058-1.203,0-1.872v-10.247
		c0.058-0.701,0.058-1.499,0-2.238v-7.875c0.058-0.806,0.095-1.673,0-2.5v-7.648c0.058-0.868,0.058-1.804,0-2.739l-0.022-5.371
		l3.904-33.738l7.919-37.904l1.247-4.137c0.667-1.299,1.1-2.738,1.299-4.276l1.003-3.331c2.363-2.67,3.51-6.512,2.999-10.08
		l6.187-13.747c0.83-1.24,1.497-2.639,1.833-4.139l2.855-6.412c2.088-2.07,3.412-4.869,3.624-8.011l1.663-3.607
		c0-0.029,0.073-0.058,0.073-0.097l5.838-7.804c1.728-1.372,3.092-3.173,3.896-5.243l16.833-19.549l6.897-5.677
		c4.057-0.806,7.445-3.605,8.986-7.342l15.292-12.521l4.651-2.727c2.599-0.573,4.884-1.942,6.578-3.835l10.566-6.209
		c3.621-0.373,6.737-2.273,8.71-5.075l15.883-7.21c2.049-0.229,3.979-0.938,5.596-2.041l11.531-4.238l23.566-3.933h3.133
		c1.813,0,3.546-0.362,5.084-1.072l23.019-3.036l39.57,1.903l11.687,1.941c0.392,0.098,0.809,0.158,1.2,0.196l35.471,5.875
		l50.016,11.94l7.292,2.571c1.792,1.31,3.958,2.109,6.328,2.238l54.923,19.322l38.422,18.188l47.18,25.295
		c1.241,1.031,2.719,1.802,4.294,2.303l31.849,17.086l16.631,10.414c1.931,3.164,5.263,5.369,9.145,5.765l11.804,7.409
		c0.867,0.74,1.872,1.341,2.938,1.842l13.794,8.643c1.734,2.207,4.178,3.805,7.014,4.434l9.42,5.912
		c1.734,2.128,4.139,3.704,6.938,4.337l24.636,16.316c1.869,3.468,5.281,5.942,9.339,6.444l8.277,5.676
		c1.381,1.732,3.174,3.06,5.198,3.833l9.956,7.31c0.924,0.993,2.067,1.835,3.328,2.474l12.418,9.143
		c1.299,1.53,2.955,2.76,4.809,3.527l38.112,29.066c1.338,1.677,3.074,2.977,5.104,3.774l46.567,39.581l13.2,9.343l0.867,0.737
		c0.752,0.937,1.621,1.737,2.602,2.394l8.119,7.45c1.361,2.839,3.785,5.102,6.781,6.239l6.937,6.276
		c1.18,1.537,2.716,2.739,4.453,3.603l31.256,30.203c0.059,0.098,0.194,0.167,0.259,0.228l20.154,19.293
		c1.261,2.6,3.471,4.642,6.147,5.772l19.076,17.914c1.067,1.675,2.563,3.075,4.338,4.08l5.163,4.869
		c1.318,2.698,3.667,4.876,6.463,6.009l11.787,11.074l3.899,4.473c1.065,2.767,3.074,5.075,5.679,6.473l20.807,25.935
		c0.946,2.631,2.738,4.896,5.084,6.404l11.999,15.715c0.69,1.341,1.602,2.543,2.745,3.54l4.434,5.804
		c0.766,3.605,3.171,6.611,6.341,8.276l2.033,2.807c0.75,2.406,2.208,4.542,4.099,6.108l18.521,26.792
		c0.635,2.141,1.852,4.012,3.465,5.506l2.45,3.904c0.574,2.572,1.968,4.877,3.901,6.542l2.01,3.972
		c0.24,3.312,1.794,6.246,4.14,8.317l3.135,6.306c0.055,0.126,0.136,0.265,0.195,0.393l1.987,3.942
		c0.609,1.161,1.339,2.236,2.286,3.134l0.988,1.037c0.669,2.234,2.011,4.203,3.704,5.741l1.97,3.903
		c0.273,3.367,1.852,6.345,4.256,8.414l2.369,4.365c0.666,2.335,2.007,4.375,3.799,5.914l0.14,0.197
		c-1.045,4.501,0.69,9.38,4.059,12.207l3.864,12.414c0.215,1.636,0.67,3.115,1.42,4.513l2.896,14.148
		c-0.572,3.067,0.038,6.545,1.632,9.147l0.2,2.433c-0.101,0.965-0.061,2.039,0.078,2.968l0.155,7.88
		c-0.334,1.498-0.353,3.135-0.119,4.671l-0.473,1.93c-1.219,2.07-1.907,4.611-1.693,7.146l-1.08,4.544
		c-0.063,0.124-0.063,0.194-0.139,0.262l-3.529,8.334c-1.4,1.471-2.463,3.242-3.053,5.213l-6.782,8.543l-3.23,2.14l-8.555,0.897
		l-2.774-1.105c-0.241-0.867-0.534-1.665-0.91-2.404l-5.637-23.362l-6.975-18.219l-7.802-13.576
		c-0.256-0.572-0.612-1.104-0.929-1.606l-4.489-6.705c-0.713-2.5-2.193-4.667-4.2-6.273l-5.876-7.814
		c-0.766-1.064-1.672-1.932-2.738-2.73l-13.673-9.586c-1.833-2.503-4.614-4.295-7.804-4.868l-16.891-9.048
		c-1.279-0.627-2.66-1.06-4.118-1.257l-10.029-1.538l-6.15-2.07c-2.186-0.738-4.59-0.806-6.876-0.266l-5.244,1.704h-8.159
		c-1.615,0-3.154,0.297-4.609,0.869l-12.513,5.299l-7.982,5.639l-6.165,6.176c-0.931,0.896-1.714,2.001-2.308,3.135l-3.231,6.511
		c-2.364,2.07-3.982,5.035-4.183,8.375l-0.786,1.539c-0.868,1.735-1.276,3.606-1.276,5.538v30.733c0,1.565,0.253,3.102,0.865,4.572
		l1.241,3.004c0.272,2.336,1.159,4.472,2.558,6.208l13.365,21.087c0.785,1.398,1.931,2.6,3.192,3.605l5.399,7.309
		c0.807,1.201,1.857,2.238,3.017,3.106l28.433,20.357c1.575,1.928,3.668,3.338,6.148,4.07l28.754,16.413l47.119,12.682l21.165,2.069
		l38.546-4.403l10.7-2.967l14.678-7.717l8.161-6.738c1.497-0.798,2.8-1.932,3.862-3.27l0.275-0.238
		c0.277-0.228,2.624-2.533,2.857-2.797c0.929-0.936,1.732-2.001,2.346-3.174l0.198-0.462c3.327-1.54,5.873-4.474,6.801-8.011
		l5.039-6.812c1.444-1.426,2.505-3.199,3.095-5.17l2.447-4.501c2.402-2.141,3.977-5.138,4.174-8.475l1.621-3.606
		c1.378-1.872,2.322-4.072,2.441-6.542l0.811-1.528c0.526-1.142,0.925-2.277,1.122-3.507l0.233-1.439
		c1.776-2.74,2.405-6.404,1.657-9.677c1.733-2.333,2.659-5.477,2.325-8.472l1.574-5.409c0.316-1.104,0.516-2.267,0.555-3.469
		c0,0,0,0,0-0.07v-0.029c0-0.039,0-0.07,0-0.11v-11.804c0-0.306,0-0.67,0-1.005l-0.039-9.074c0.039-0.473,0.039-0.907,0-1.339v-8.78
		c0.039-0.563,0.039-1.094,0-1.636l-0.019-10.444c0.058-1.303,0-2.7-0.3-3.959l-0.271-3.41c0.391-1.233,0.629-2.531,0.629-3.903
		c0-2.039-0.532-3.971-1.4-5.706l-1.26-13.013c1.26-3.875,0.336-8.416-2.07-11.48l-4.02-22.525l-6.938-22.534l-0.785-1.528
		c0.276-2.71-0.479-5.478-1.814-7.677l-0.396-2.01c-0.277-1.121-1.064-2.658-2.067-4.126c-0.296-1.469-0.847-2.808-1.558-4.012
		l-6.525-17.686c-0.255-2.099-1.062-4.069-2.261-5.667l-1.815-4.57c-0.258-2.107-1.068-4.078-2.288-5.714l-1.77-4.267
		c-0.277-2.532-1.343-4.878-2.939-6.738l-1.198-2.808c0.432-4.139-1.207-8.208-4.14-10.741l-2.525-4.848
		c-0.075-0.157-0.153-0.367-0.215-0.565l-4.909-13.948l-7.211-12.111l-1.658-4.809c-0.23-1.131-0.628-2.235-1.181-3.233l-1.93-3.87
		c-0.592-1.203-1.359-2.277-2.326-3.204l-1.006-1.004c-0.53-1.802-1.475-3.409-2.657-4.74l-3.943-8.808
		c-0.197-0.533-0.473-0.998-0.749-1.439l-16.87-28.399c-0.469-3.339-2.344-6.276-4.983-8.136l-1.084-1.844
		c-0.477-3.638-2.56-6.77-5.479-8.711l-2.955-4.671c-0.634-2.867-2.229-5.341-4.413-7.036l-1.577-2.443
		c-0.553-3.466-2.485-6.403-5.206-8.267l-0.866-1.369c-0.393-3.9-2.639-7.311-5.851-9.245l-2.425-3.673
		c-0.574-3.675-2.741-6.741-5.756-8.611l-4.058-6.139c-0.195-0.266-0.396-0.6-0.589-0.868l-4.296-6.403
		c-0.713-2.474-2.193-4.671-4.14-6.21l-4.732-7.94c-0.668-1.34-1.535-2.573-2.599-3.606l-4.929-4.868
		c-1.025-3.337-3.347-6.078-6.424-7.615l-1.596-1.865c-0.729-3.367-2.859-6.205-5.817-7.94l-2.204-3.171
		c-0.453-4.069-2.957-7.549-6.423-9.382l-2.305-3.327c-0.729-2.18-2.069-4.083-3.807-5.512l-62.704-75.049l-11.589-11.549
		c-0.588-0.728-1.337-1.399-2.128-2l-32.711-30.772c-0.633-0.767-1.363-1.47-2.169-2.069l-6.839-6.403
		c-1.202-2.141-3.033-3.845-5.203-4.95l-6.443-5.999c-1.341-3.203-3.977-5.746-7.292-6.876l-6.759-6.338
		c-0.868-1.062-1.93-2.01-3.054-2.737l-17.303-15.619c-1.163-4.008-4.376-7.203-8.396-8.347l-5.789-5.672
		c-0.753-1.067-1.697-1.962-2.722-2.732l-8.589-8.443l-11.141-7.338l-3.409-2.907c-1.456-2.464-3.741-4.404-6.423-5.402
		l-6.048-5.143c-1.4-2.207-3.488-4.002-5.934-4.975l-22.857-17.65c-1.618-2.571-4.121-4.513-7.136-5.338l-28.554-21.697
		l-12.182-6.798c-1.794-2.307-4.393-3.982-7.409-4.544l-18.66-14.92l-23.607-13.91c-1.695-1.942-4.02-3.34-6.682-3.942l-12.87-7.409
		c-1.28-1.135-2.758-2.002-4.415-2.533l-31.703-20.09l-1.833-0.771c-1.399-0.966-3.034-1.703-4.771-2.04l-34.92-16.946
		c-2.208-3.467-6.07-5.804-10.485-5.804l-14.031-6.875c-1.633-1.539-3.705-2.672-6.01-3.146l-14.642-7.663l-30.031-11.156
		c-2.286-2.463-5.479-4-9.091-4l-23.506-7.874c-1.927-1.408-4.256-2.274-6.778-2.334l-40.714-14.05l-29.581-6.978
		c-1.791-1.004-3.884-1.535-6.051-1.535l-69.703-10.278l-25.793,0.028c-0.315-0.028-0.57-0.028-0.828-0.028h-36.931
		c-1.848,0-3.582,0.406-5.162,1.133l-51.391,5.479l-13.367,3.667h-1.848c-2.843,0-5.445,0.934-7.509,2.541l-30.233,10.07
		c-0.805,0.207-1.535,0.473-2.205,0.769L219.29,83.521l-10.639,6.641c-2.661,0.601-4.97,2.097-6.664,4.137l-19.922,11.942
		l-20.495,16.692c-4.337,0.996-7.808,4.267-9.085,8.542l-5.934,6.001c-0.883,0.708-1.691,1.537-2.402,2.443l-5.812,6.57
		c-3.666,1.806-6.309,5.414-6.759,9.676l-10.229,14.614c-1.5,1.342-2.677,3.004-3.427,4.876l-2.719,3.932
		c-3.354,1.872-5.713,5.313-6.192,9.321l-3.366,5.807c-0.871,1.062-1.596,2.295-2.068,3.595l-3.548,6.112
		c-1.325,1.336-2.288,3.001-2.858,4.874l-2.817,4.867c-1.733,1.609-2.917,3.677-3.533,6.041L79.646,250.08
		c-0.569,1.132-1.019,2.326-1.239,3.597l-2.696,8.443c-1.029,1.835-2.702,3.939-1.641,6.18l-3.289,12.582
		c-2.208,2.631-3.256,6.433-2.641,10.011l-0.553,3.899c-1.657,2.741-2.129,6.406-1.258,9.539l-1.663,12.82
		c-0.662,1.734-1.022,3.736-0.747,5.638l-0.728,25.865c-1.714,3.203-1.792,7.506-0.254,10.818l-0.08,2.196
		c-1.302,2.837-1.399,6.436-0.275,9.382l-0.02,1.526c-0.93,2.502-1.047,5.438-0.219,7.982l-0.158,5.399
		c-0.475,1.872-0.536,3.911-0.119,5.813l-0.159,5.972c-0.114,0.904-0.114,1.833-0.07,2.769l-0.044,1.439l0.2,5.438
		c-0.344,1.802-0.241,3.733,0.192,5.508l0.202,5.241c-0.872,2.662-0.738,5.973,0.353,8.603l0.015,0.741
		c-1.397,3.201-1.239,7.268,0.378,10.404l0.786,20.326l0.398,3.467c-0.925,3.01-0.455,6.576,1.02,9.245l0.519,4.878
		c0.073,0.599,0.134,1.202,0.192,1.732l2.091,18.218c-0.511,2.81,0.056,5.904,1.458,8.277l0.473,2.534
		c-0.319,2.503,0.197,5.113,1.343,7.283l0.786,4.472c-0.471,2.935,0.12,5.939,1.5,8.306l0.473,2.569
		c-0.241,2.435,0.194,5.076,1.297,7.145l0.672,3.804c-0.117,2.127,0.277,4.137,1.1,5.871l1.032,5.706
		c-0.258,2.404,0.197,5.105,1.339,7.244l0.668,3.635c-0.08,2.433,0.393,4.877,1.536,6.868l6.735,28.606
		c0.139,0.698,0.279,1.398,0.519,2.068l1.418,6.079c0.073,2.198,0.473,4.296,1.438,6.099l6.775,28.665
		c0,2.501,0.461,4.443,1.48,6.275l0.65,2.809c-0.333,2.938,0.417,6.071,2.011,8.435l0.202,0.838
		c-0.732,3.537,0.193,7.438,2.4,10.176l1.738,7.243c0,0.099,0.015,0.237,0.056,0.337l1.696,7.673
		c0.039,1.636,0.414,3.173,1.042,4.574l1.044,4.71c-0.197,2.333,0.475,4.799,1.618,6.795l6.54,26.734
		c0.044,1.999,0.553,3.913,1.38,5.546l0.966,3.962c-0.867,3.676,0.235,7.882,2.599,10.65l3.273,13.312
		c0.142,1.537,0.473,2.935,1.083,4.276l1.183,4.937c-0.586,3.399,0.238,7.007,2.205,9.646c-1.002,3.9,0.241,8.445,2.94,11.343
		l0.905,3.605c0.1,0.835,0.295,1.603,0.573,2.373l1.538,6.136c-0.478,2.938,0.156,6.006,1.577,8.408l0.414,2.106
		c-0.414,2.77,0.197,5.6,1.514,7.904l0.476,2.67c-0.253,2.534,0.238,5.172,1.414,7.314l0.791,4.105
		c-0.586,3.097,0.083,6.406,1.716,8.938l0.293,1.606c-0.532,2.996,0.139,6.167,1.736,8.611l0.53,2.701
		c-0.826,3.505-0.017,7.575,2.066,10.404l12.065,62.242l6.031,37.779c-0.277,2.139,0.156,4.403,1.027,6.335l1.061,6.74
		c0.042,0.068,0.042,0.138,0.042,0.208l3.979,30.663c-0.039,1.3,0.112,2.669,0.511,3.913l1.991,15.604
		c-0.866,3.214-0.414,6.949,1.261,9.755l0.417,2.8c-0.2,1.802,0.058,3.705,0.669,5.339l0.39,2.938
		c-1.728,3.733-1.334,8.611,0.929,11.943v2.875c-0.023,0.366-0.023,0.796,0,1.204v10.739c-0.023,0.598,0,1.269,0,1.93l0.042,8.083
		c-0.042,0.735-0.042,1.605,0,2.361l0.017,7.718c-0.116,0.937-0.116,1.832,0,2.739v9.369c-0.116,1.036-0.116,2.109,0,3.105v7.005
		c0,0.068,0,0.068,0,0.137l-0.867,6.308c-1.122,2.303-1.558,5.24-1.066,7.84l-8.961,57.405c-1.247,2.199-1.779,4.938-1.363,7.57
		l-0.942,5.242c-0.791,1.662-1.404,4.067-1.209,5.576l-4.001,13.31c-1.414,2.004-2.005,4.741-2.166,7.205l-5.516,18.356
		c-0.059,0.208-0.114,0.404-0.197,0.601l-1.833,5.912c-1.874,2.295-2.857,5.499-2.696,8.501l-14.545,25.501
		c-0.177,0.269-0.358,0.533-0.472,0.84l-10.879,18.415c-2.054,1.565-3.585,3.705-4.337,6.205l-7.015,7.049
		c-0.137,0.058-0.233,0.197-0.333,0.334l-18.487,17.677c-2.7,1.143-4.91,3.213-6.209,5.812l-8,7.472
		c-1.218,0.807-2.286,1.839-3.153,3.002l-19.229,19.029c-2.132,2.067-3.512,4.936-3.709,8.071c0,0.04,0,0.068,0,0.068
		c-0.076,0.668,0,1.338,0.036,1.998v0.069c0,0.069,0,0.099,0,0.139c0.358,2.365,1.283,4.533,2.722,6.268l5.714,7.015
		c0.791,3.931,3.49,7.202,7.059,8.766l19.563,24.104c0.732,3.332,2.801,6.169,5.601,7.904l8.988,13.447
		c0.686,2.475,2.166,4.602,4.101,6.179l1.555,2.335c-0.202,3.666,1.297,6.809,3.646,9.104l0.473,1.44
		c-1.008,4.443,1.28,6.335,3.368,8.542l0.708,1.705c0,2.505,0.516,4.098,1.46,5.871l6.822,30.064l0.448,5.673
		c-0.867,3.007-0.57,6.403,0.808,9.076l0.73,16.554c0,0.334,0,0.671,0,1.005v9.005c0,0.533,0,1.005,0,1.539l0.039,8.542
		c-0.059,0.602-0.059,1.271,0,1.873l0.02,10.248c-0.122,0.758-0.059,1.498,0,2.225l-0.986,14.219
		c-1.143,2.404-1.421,5.468-0.786,8.146l-1.338,14.646c-1.028,2.306-1.342,5.102-0.752,7.646l-6.07,37.277
		c-0.192,0.667-0.311,1.366-0.333,2.092l-1.735,10.251c0,0.099,0,0.168-0.036,0.237l-3.964,15.842
		c-1.931,2.574-2.877,6.052-2.345,9.38l-1.791,7.074c-0.041,0.198-0.08,0.406-0.136,0.603l-3.945,15.758
		c-1.794,2.365-2.777,5.464-2.424,8.609l-0.786,2.603c-2.466,2.661-3.86,6.64-3.271,10.346l-1.142,3.524
		c-0.047,0.139-0.122,0.211-0.158,0.336l-24.32,61.937c-1.935,2.071-3.113,4.881-3.198,7.887l-3.15,7.87
		c-0.059,0.132-0.097,0.27-0.156,0.432l-3.845,9.648c-0.057,0.131-0.142,0.269-0.176,0.366l-2.169,5.035
		c-3.509,2.671-5.556,7.41-4.69,11.884c-0.671,4.037,0.73,8.344,3.943,11.21c3.938,3.512,9.691,4.108,14.262,1.471L94.036,1859.16z"
		/>
	<path display="inline" fill="#FFFFFF" d="M1256.484,4187.127c2.367-1.195,4.298-3.127,5.478-5.471l1.974-3.936
		c0.825-1.596,1.36-3.465,1.38-5.412c0-0.059,0-0.098,0-0.098s0-0.029,0-0.102c-0.02,0.072-0.02,0,0-0.057v-6.178
		c0-2.768-2.424-6.947-4.574-9.545c-1.124-4-4.257-7.172-8.237-8.379l-6.426-6.334c-0.551-0.666-1.144-1.271-1.811-1.805
		l-13.281-17.488l-3.117-2.938c-0.745-0.992-1.612-1.801-2.637-2.531l-3.468-3.674c-0.672-2.268-1.992-4.266-3.727-5.801
		l-2.148-3.316c-0.59-3.129-2.4-5.83-4.924-7.631l-3.433-5.371c-0.628-2.57-2.107-4.781-4.116-6.445l-1.873-3.104
		c-0.551-2.965-2.208-5.541-4.455-7.312l-4.809-6.072c-0.075-0.066-0.075-0.168-0.139-0.262l-5.674-11.213
		c-0.258-0.701-0.61-1.404-1.042-2.002l-5.029-8.174c-0.529-1.303-1.284-2.51-2.204-3.58l-3.135-5.008
		c-0.139-2.461-1.024-4.699-2.445-6.531l-0.194-0.604c-0.355-1.145-0.945-2.262-1.633-3.238l-2.744-3.709
		c-0.744-1.857-2.01-3.492-3.546-4.797l-1.771-2.467c-0.416-2.77-1.755-5.273-3.666-7.111l-2.623-5.773
		c-0.375-2.008-1.199-3.773-2.404-5.283l-8.689-17.91c-0.116-0.375-0.316-0.699-0.472-1.002l-4.926-9.148
		c-0.553-2.332-1.794-4.43-3.474-6.041l-2.996-5.268c-0.036-0.068-0.073-0.203-0.096-0.273l-8.082-22.221
		c-0.018-0.131-0.096-0.268-0.137-0.395l-5.495-19.027l25.163,12.482l57.858,16.486c1.024,0.299,2.091,0.438,3.173,0.438h36.912
		c1.892,0,3.766-0.438,5.498-1.307l20.495-10.211c0.69-0.367,1.242-0.971,1.871-1.475c0.315-0.252,0.629-0.463,0.967-0.729
		c0.295-0.338,0.728-0.506,1.044-0.826l7.293-8.555c1.871-1.23,3.151-2.768,4.099-4.838l0.867-0.998
		c0.785-0.863,1.418-1.871,1.912-2.971l1.476-3.299c1.655-1.943,2.603-4.041,2.917-6.615l3.823-8.541
		c0.253-0.631,0.236-1.336,0.392-2.006c0.081-0.262,0.102-0.461,0.157-0.729c0.138-0.766,0.476-1.477,0.476-2.271l-0.099-21.826
		c0-0.125-0.021-0.268,0-0.434l-0.059-9.773c0.038-0.268,0.157-0.504,0.157-0.77c0-0.193-0.157-0.332-0.157-0.5l-0.041-6
		l-4.335-21.506l-2.166-7.299c-0.159-0.74-0.314-1.371-0.59-2.039l-1.974-6.67l-5.754-11.854c-0.275-3.428-1.639-6.506-4.236-8.709
		l-1.753-3.695c-0.437-1.871-1.263-3.541-2.446-4.98l-1.497-3.074c-0.177-3.426-1.674-6.264-4.078-8.4l-2.303-4.811
		c-0.36-2.732-1.505-5.037-3.394-6.963l-3.823-7.814c-0.097-0.242-0.158-0.465-0.297-0.674l-1.869-3.828l-13.343-22.064
		l-5.225-6.082c-0.709-1.299-1.652-2.266-2.794-3.229l-1.025-1.236l-9.046-15.613l-1.103-1.398
		c-0.728-1.736-1.833-2.939-3.272-4.178l-4.967-6.336c-0.847-1.775-1.949-3.174-3.487-4.375l-4.885-6.277
		c-0.771-1.494-1.698-2.701-2.978-3.764l-3.806-4.85c-0.528-4.43-3.468-8.041-7.569-9.607l-5.04-6.428
		c-0.197-0.24-0.337-0.48-0.536-0.713l-6.345-8.039c-0.922-2.535-2.461-4.48-4.669-5.943l-3.546-4.504
		c-0.891-2.406-2.327-4.271-4.453-5.707l-11.823-15.014l-1.339-1.438c-1.066-3.207-3.71-5.873-6.9-7.344l-5.283-5.633
		c-0.865-1.301-1.772-2.336-3.036-3.242l-7.937-8.473c-0.337-0.408-0.616-0.744-1.005-1.076l-5.598-7.971l-14.72-14.455
		c-0.236-0.223-0.417-0.434-0.631-0.633l-21.307-20.887c-0.058-0.07-0.077-0.096-0.113-0.139l-10.012-9.805
		c-0.754-0.936-1.382-1.666-2.37-2.334l-18.011-17.654c-1.26-2.744-3.548-5.078-6.425-6.338l-3.624-3.578
		c-1.28-3.203-3.882-5.732-7.095-6.932l-15.214-14.893c-0.197-0.662-0.514-1.332-0.825-1.959l31.845,25.949
		c1.46,2.715,3.862,4.74,6.814,5.75l7.374,7.377c0.04,0.029,0.078,0.059,0.159,0.129l32.63,32.633
		c0.04,0.039,0.063,0.07,0.084,0.104l20.453,20.461c2.639,2.66,6.428,3.996,10.169,3.525c3.763-0.463,7.056-2.6,9.024-5.801
		l21.914-35.934l7.292-10.08l9.283-17.727c0.531-0.867,1.003-1.527,1.297-2.465l9.6-18.328c1.299-1.428,2.01-2.994,2.563-4.908
		l15.707-29.924c0.192-0.4,0.411-0.697,0.57-1.104l3.27-6.232l5.202-8.154l2.738-6.402c0.653-1.033,1.003-2.068,1.362-3.238
		l3.427-8.043c0.374-0.727,0.673-1.371,0.907-2.168l3.176-7.482c1.436-1.465,2.4-3.197,2.936-5.23l5.239-7.281
		c0.08-0.1,0.155-0.193,0.237-0.324l0.12-0.18l9.615-21.781c0.314-0.506,0.473-1.006,0.711-1.566l7.366-16.721
		c2.287-2.238,3.666-5.137,3.744-8.52l1.03-2.289c3.466-2.449,5.712-6.582,5.513-10.977c2.719-2.473,4.203-6.18,4.064-10.289
		c2.4-2.129,3.444-5.4,3.643-8.67l12.315-27.904l4.196-14.752l1.914-10.18c0.119-0.496,0.194-0.924,0.276-1.428l1.697-9.115
		c0.155-0.67,0.294-1.232,0.35-1.902l3.824-20.328c0.121-0.531,0.196-0.992,0.258-1.523l1.691-8.949
		c0.183-0.734,0.338-1.326,0.378-2.066l2.284-12.279l1.339-20.559c0.277-1.141,0.277-2.17,0.237-3.334l0.513-7.676l-0.039-43.885
		l-0.1-1.535c0-0.197-0.041-0.365-0.041-0.564l-0.57-8.682c0.199-0.936,0.75-1.734,0.75-2.768c0-1.33-0.788-2.34-1.185-3.539
		l-0.945-14.484l-0.354-2.471c0-1.127-0.118-2.068-0.435-3.164l-1.399-10.445c-0.021-0.236-0.056-0.428-0.096-0.668l-2.029-15.016
		l-8.572-40.184l-4.078-11.281c-0.181-0.664-0.415-1.166-0.67-1.797l-12.323-34.072c0.794-0.766,2.646-2.699,2.979-3.104
		l11.963-16.145c0.159-0.24,0.314-0.439,0.472-0.672l0.792-1.062l4.727-8.684c0.789-1.006,1.341-2.068,1.813-3.299l5.676-10.389
		c0.589-1.062,1.063-2.197,1.319-3.428l3.844-15.59c2.442-3.205,3.271-8.004,1.834-11.883l1.872-13.543
		c0.766-1.875,1.16-4.043,0.866-6.143l0.08-31.371c0-0.061,0-0.102,0-0.102c0-0.029,0-0.029,0-0.096c0-0.506-0.08-1.004-0.156-1.504
		l-0.516-4.57c0.434-1.236,0.672-2.57,0.672-3.975c0-2.436-0.711-4.705-1.953-6.604l-0.374-3.174
		c0.57-2.602,0.181-5.467-0.927-7.805l-4.985-26.76c0.22-2.502-0.395-4.752-1.496-6.68l-0.634-2.801
		c0.34-2.875-0.311-5.812-1.788-8.15l-17.857-52.189l-5.656-11.074c0-0.139-0.039-0.238-0.077-0.336l-3.232-8.682
		c-0.217-2.365-1.081-4.535-2.405-6.334l-1.854-4.869c-0.253-1.676-0.865-3.211-1.691-4.609l-2.742-7.275
		c-0.195-0.602-0.389-1.141-0.667-1.676l-10.267-22.619c-0.083-0.141-0.14-0.24-0.197-0.336l-32.713-59.336l-16.419-28.664
		c-0.058-0.17-0.175-0.367-0.275-0.561l-5.102-9.715l-13.382-16.99l-0.453-0.795c-0.237-3.943-2.343-7.414-5.438-9.479
		l-10.757-16.75c-0.122-0.268-0.298-0.465-0.436-0.674l-7.468-11.211c-0.341-0.529-0.672-1.064-1.049-1.525l-11.782-15.994
		c-0.395-4.801-3.529-8.838-7.863-10.475l-0.434-0.639c-0.569-3.666-2.738-6.807-5.772-8.641l-3.982-5.975
		c-0.256-0.432-0.55-0.863-0.908-1.295l-6.067-8.113c-0.828-2.975-2.757-5.504-5.32-7.104l-3.215-4.182
		c-0.863-2.33-2.462-4.301-4.471-5.699l-3.982-5.105c-0.828-1.873-2.088-3.543-3.704-4.738l-6.62-7.814
		c-0.988-2.07-2.482-3.807-4.375-5.074l-3.426-4.201c-0.949-2.539-2.683-4.709-4.928-6.15l-13.343-15.811
		c-1.006-3.27-3.271-5.941-6.286-7.412l-6.896-7.801c-0.102-0.068-0.158-0.172-0.276-0.266l-52.951-55
		c-0.142-0.127-0.258-0.269-0.399-0.397l-7.822-7.477l-0.395-0.268c-1.577-2.541-4.019-4.542-6.973-5.408l-19.432-19.422
		c-0.02-0.03-0.081-0.065-0.081-0.131l-22.542-22.489c-0.02-0.067-0.062-0.102-0.08-0.067c-0.036-0.068-0.078-0.132-0.078-0.098
		c-0.061-0.034-0.061-0.034-0.101-0.102c-0.019,0-0.019-0.029-0.099-0.068c-0.903-0.869-1.931-1.536-3.108-2.101l-6.978-5.45
		c-1.181-1.987-2.996-3.661-5.126-4.728l-4.276-3.904c-1.399-3.308-4.196-5.91-7.646-6.972l-7.307-6.482
		c-1.344-2.532-3.59-4.532-6.27-5.601l-6.896-6.08c-1.047-1.397-2.366-2.597-3.903-3.439l-22.976-19.388
		c-1.186-1.501-2.699-2.726-4.436-3.524l-36.596-29.306c-1.299-1.677-3.078-3.01-5.089-3.807l-28.097-21.084l-89.154-60.106
		l-23.645-13.915c-1.735-1.938-4.02-3.338-6.662-3.938l-29.444-17.56c-1.931-2.8-5.043-4.729-8.59-5.162l-11.234-6.712
		c-1.399-1.438-3.15-2.54-5.124-3.101l-38.744-20.258c-1.377-1.107-2.977-1.934-4.729-2.407l-36.594-17.562l-30.901-13.199
		c-1.969-1.479-4.375-2.374-6.973-2.473l-57.052-20.163l-45.364-10.677c-1.932-1.236-4.237-1.935-6.698-1.935l-46.271-8.208
		l-19.278-1.337c-1.3-0.463-2.716-0.729-4.14-0.729h-49.223c-1.771,0-3.509,0.396-5.042,1.061l-43.715,5.611l-11.587,3.602
		c-1.971,0.131-3.762,0.743-5.359,1.668l-32.906,12.357l-14.978,8.531c-4.041,0.278-7.528,2.474-9.58,5.676l-8.021,5.203
		c-1.872,0.668-3.566,1.813-4.941,3.243l-22.425,16.65c-0.93,0.602-1.799,1.332-2.527,2.198l-10.957,13.028
		c-1.123,0.964-2.05,2.127-2.762,3.398l-4.847,8.346l-0.194,0.195c-1.336,1.065-2.464,2.406-3.271,3.969l-6.659,8.012
		c-0.867,0.996-1.621,2.167-2.094,3.396l-8.1,19.062c-1.669,1.897-2.774,4.334-2.968,7.005l-1.621,3.84v0.033
		c-1.855,2.369-2.838,5.602-2.444,8.708l-4.035,14.286c-1.56,2.235-2.546,5.176-2.171,7.973l-0.418,3.074
		c-1.57,2.738-2.127,6.443-1.179,9.508l-2.144,16.09c-0.26,1.025-0.399,2.067-0.399,3.165l0.02,9.545
		c-0.02,0.491-0.02,0.928,0,1.465l0.039,10.476c-0.059,0.71-0.059,1.47,0,2.141v7.871c-0.059,0.904-0.059,1.733,0,2.639l0.119,6.91
		c-0.392,2.267-0.073,4.739,0.83,6.808l1.658,13.952c-1.07,3.333-0.594,7.303,1.222,10.237l0.31,2.505
		c-0.31,2.541,0.277,5.004,1.341,7.072l0.871,3.945c-0.674,3.471,0.156,7.338,2.266,10.074l5.737,24.092
		c-0.322,3.303,0.667,6.475,2.599,8.882l4.692,16.019l5.079,10.934c0.395,2.445,1.419,4.616,2.996,6.35l0.986,2.204
		c0,3.709,1.691,7.013,4.335,9.273l1.872,4.013c0.256,2.932,1.538,5.597,3.507,7.539l0.575,1.203
		c-0.119,4.867,1.694,7.771,4.668,10.075l2.069,4.532c0.333,0.938,0.728,1.777,1.219,2.573l4.376,7.309
		c0.475,3.541,2.407,6.605,5.182,8.542l10.823,16.685c0.241,0.406,0.489,0.797,0.788,1.201l6.146,8.18
		c0.828,3.004,2.763,5.537,5.365,7.145l3.271,4.365c0.803,1.996,2.127,3.803,3.816,5.111l5.873,7.832
		c0.066,0.068,0.122,0.141,0.205,0.207l6.067,8.139c0.925,3.41,3.332,6.207,6.406,7.744l9.952,12.758
		c0.864,1.127,1.847,2.062,3.069,2.863l12.181,11.615c0.947,1.93,2.369,3.525,4.099,4.701l24.473,26.828
		c1.027,1.105,2.251,2.029,3.59,2.701l1.969,0.672c1.183,1.535,2.76,2.797,4.576,3.607l8.238,7.238
		c0.331,0.367,0.669,0.76,1.064,1.092l25.1,20.9c1.064,1.402,2.463,2.533,4.002,3.334l23.903,18.088
		c1.58,2.607,4.14,4.545,7.136,5.367l7.469,5.246c1.674,2.502,4.274,4.332,7.271,5.105l22.034,15.453l6.403,3.127
		c2.149,2.502,5.204,4.139,8.696,4.318l11.743,7.799c0.355,0.299,0.708,0.533,1.144,0.775l12.408,8.277l26.447,14.207
		c0.555,0.332,1.146,0.639,1.735,0.873l44.143,18.752c1.735,1.371,3.867,2.264,6.152,2.543l23.135,8.4c2.207,2.477,5.478,4,9.066,4
		l24.868,8.055l42.802,6.303h53.287c1.222,0,2.403-0.203,3.546-0.531l35.374-11.352l14.349-8.203
		c0.965-0.533,1.83-1.199,2.599-2.006l20.496-20.494c0.81-0.768,1.478-1.633,1.991-2.598l13.633-25.967l1.266-5.838
		c0.707-1.502,1.062-3.176,1.062-4.971l1.398-6.348c0.338-0.934,0.534-1.996,0.613-3.027l2.05-22.094
		c0.155-1.566,0-3.172-0.358-4.643l-1.651-18.514c0.035-1.379-0.04-2.807-0.435-4.107l-1.617-6.334
		c0.136-2.406-0.531-4.951-1.773-7.018l-4.432-17.551c-0.141-1.203-0.455-2.375-0.927-3.436l-3.885-9.721
		c-0.058-0.195-0.177-0.43-0.255-0.664l-3.075-7.441c0-3.301-1.34-6.24-3.428-8.443l-15.137-25.996
		c-0.433-3.029-1.969-5.732-4.196-7.639l-2.342-4.27c-0.674-2.473-2.13-4.605-4.102-6.209l-12.907-18.084
		c-0.708-1.531-1.711-2.873-2.938-3.98l-29.323-31.291c-0.649-0.773-1.318-1.51-2.125-2.109l-18.74-18.682l-15.494-11.252
		c-1.594-2.404-4.039-4.198-6.879-5.004l-8.036-6.041c-1.302-1.667-3.074-2.966-5.065-3.774l-40.319-26.358l-29.975-14.248
		c-2.228-3.271-5.949-5.408-10.166-5.408l-27.513-11.844l-61.129-16.723l-17.46-2.261c-1.894-1.236-4.22-1.942-6.661-1.942
		l-24.594-2.071h-8.197c-3.826,0-7.35,1.735-9.696,4.671c-1.974,1.604-3.465,3.741-4.196,6.272l-0.472,0.676
		c-1.324,2.035-2.071,4.4-2.071,6.839v8.204c0,0.04,0,0.098,0,0.098c0,0.041,0,0.07,0,0.07c0,0.069,0,0.069,0,0.107
		c0.081,2.967,1.183,5.636,2.938,7.706l6.76,8.073c0.783,1.463,1.852,2.765,3.154,3.809l12.018,13.944l2.837,3.943
		c0.667,1.606,1.736,3.003,2.996,4.137l16.159,19.785c0.061,0.1,0.117,0.17,0.199,0.307l6.934,11.337l7.214,8.85
		c0.075,0.031,0.075,0.1,0.122,0.17l17.69,31.46c0.141,0.238,0.277,0.469,0.379,0.701l5.22,10.508l1.617,7.818
		c0.077,0.572,0.197,1.16,0.333,1.697l1.677,8.213c0.076,0.799,0.255,1.598,0.489,2.406l4.158,16.611
		c1.696,5.045,6.43,8.418,11.708,8.418l3.725-0.238l22.425,4.432c1.931,1.273,4.199,1.941,6.64,1.941l46.591,11.549l23.765,13.814
		l36.062,22.623l2.543,2.307c0.966,1.369,2.186,2.5,3.646,3.34l5.498,5.033c1.321,2.801,3.727,5.039,6.678,6.139l7.215,6.6
		c0.71,0.879,1.537,1.68,2.444,2.309l13.082,19.059c0.082,0.139,0.165,0.234,0.199,0.334l4.415,8.514
		c0.139,0.49,0.316,1.033,0.511,1.494l5.242,17.895l0.197,7.945c-0.354,1.691-0.275,3.59,0.118,5.258l0.038,0.207l-1.456,5.875
		l-6.225,7.477l-21.387,6.041l-18.481,0.168l-22.624-3.605l-52.239-18.025l-50.649-22.955c-1.594-1.342-3.545-2.209-5.634-2.6
		l-48.6-26.775l-5.592-3.734c-0.434-0.332-0.867-0.598-1.342-0.865l-23.491-13.646l-3.94-2.74
		c-1.655-4.234-5.676-7.311-10.402-7.705l-33.543-29.5c-0.197-0.193-0.392-0.377-0.632-0.533l-11.783-9.812
		c-0.042,0-0.042-0.07-0.1-0.07l-19.29-17.82c-1.339-3.531-4.298-6.307-7.939-7.406l-6.942-6.9
		c-0.175-0.172-0.333-0.379-0.533-0.535l-16.786-18.592l-14.068-20.09l-27.043-43.178c-0.569-2.603-1.969-4.883-3.901-6.612
		l-8.219-21.828c0.436-3.41-0.671-7.211-2.933-9.772l-1.302-4.571c-0.041-0.07-0.041-0.196-0.041-0.277l-1.792-8.869
		c0.139-2.01-0.333-4.376-1.277-6.277l-0.791-3.87c0.199-1.803-0.12-3.511-0.711-5.079l-3.429-25.19l0.791-8.139
		c1.339-2.575,1.675-5.814,0.944-8.572l0.947-3.341c0.864-1.609,1.38-3.396,1.458-5.313l4.335-12.106
		c2.211-2.074,3.662-4.942,3.862-8.214l2.013-2.371c2.6-1.497,4.61-3.899,5.595-6.768l17.691-14.191
		c0.101-0.093,0.242-0.154,0.341-0.261l11.071-6.502l44.124-13.747h5.323c1.613,0,3.153-0.277,4.551-0.867l41.164-1.274l8.458,0.999
		c1.596,0.737,3.371,1.143,5.259,1.143l37.956,3.733l63.767,16.684c1.977,1.338,4.384,2.136,6.98,2.136l20.163,5.338l4.234,1.609
		c2.21,2.068,5.163,3.324,8.375,3.324l35.768,13.147l9.969,4.748c2.247,2.802,5.717,4.637,9.658,4.637l19.035,8.942
		c0.083,0.03,0.197,0.1,0.258,0.139l33.955,15.912l4.218,2.476c2.069,2.996,5.399,5.03,9.241,5.337l47.157,28.766
		c1.442,1.606,3.312,2.794,5.401,3.468l11.981,7.744c0.947,0.799,1.971,1.537,3.154,1.999l31.489,20.357
		c1.027,1.007,2.305,1.805,3.629,2.332l27.371,18.096c1.674,2.462,4.195,4.263,7.156,5.035l40.55,28.532
		c1.282,1.593,2.882,2.867,4.792,3.665l29.658,22.665l59.869,49.561c0.943,1.121,2.049,2.127,3.271,2.867l12.611,11.008
		c0.806,0.67,1.672,1.271,2.603,1.738l6.067,3.068c1.279,3.803,4.315,6.811,8.158,7.984l6.938,6.934
		c0.139,0.17,0.316,0.297,0.433,0.434l3.904,3.871c0.944,0.943,2.009,1.734,3.188,2.338l16.952,15.746
		c0.272,0.303,0.55,0.609,0.827,0.865l32.434,29.809c1.185,2.037,2.996,3.732,5.126,4.838l21.045,19.783
		c0.395,0.502,0.884,0.979,1.381,1.369l7.408,6.947c1.144,1.932,2.835,3.535,4.888,4.602l31.296,30.033
		c0.354,0.402,0.728,0.797,1.145,1.133l8.768,8.711c0.571,0.709,1.16,1.299,1.909,1.871l3.704,4.574
		c0.711,4.738,4.16,8.605,8.675,9.939l1.889,1.871c0.988,3.271,3.273,6.004,6.206,7.537l13.343,16.158l3.351,3.336
		c0.534,0.594,1.143,1.166,1.736,1.67l4.809,5.971c0.822,1.695,2.028,3.203,3.505,4.381l4.632,5.803
		c0.845,1.734,2.071,3.273,3.526,4.432l3.826,5.311c0.728,3.301,2.796,6.111,5.557,7.807l3.428,4.809
		c0.668,1.463,1.615,2.83,2.814,3.939l13.347,18.078c0.824,2.066,2.204,3.91,3.978,5.275l5.104,6.807
		c0.061,0.035,0.061,0.064,0.138,0.137l45.382,72.717c0.259,2.771,1.5,5.301,3.336,7.242l8.61,20.359l2.342,3.805
		c0.831,2.994,1.559,7.072,4.14,9.342c-0.275,3.869,1.302,7.771,4.059,10.205c-0.093,3.338,0.753,6.342,2.603,8.678l1.499,3.934
		c-0.078,3.408,1.066,6.752,3.232,9.113l1.024,3.945c0.117,0.695,0.277,1.369,0.509,2.039l1.421,5.438
		c-0.141,1.695,0.156,3.428,0.728,4.961l1.48,11.08l-5.754-8.84c-0.395-0.701-0.863-1.373-1.359-1.998l-7.846-13.885l-5.337-6.973
		c-0.536-0.941-1.202-1.807-1.971-2.537c-0.595-0.598-1.262-1.17-1.974-1.635l-0.59-0.641c-0.197-4.336-2.719-8.068-6.288-10.045
		l-1.989-3.197c-0.512-3.775-2.722-6.973-5.813-8.848l-3.806-5.732c-0.333-0.604-0.747-1.139-1.142-1.666l-14.464-19.055
		c-0.946-2.604-2.759-4.779-5.004-6.252l-6.088-8.541l-22.564-22.553v-0.041c0-0.029-0.062-0.029-0.062-0.029l-18.58-20.16
		c-0.769-1.258-1.815-2.436-2.997-3.33l-10.053-8.008c-1.236-1.641-2.877-2.943-4.747-3.775l-7.744-6.709
		c-0.672-0.828-1.399-1.568-2.268-2.199l-10.816-8.184c-1.792-3.432-5.203-5.896-9.205-6.43l-5.062-3.672
		c-1.735-3.406-4.97-5.875-8.852-6.516l-10.205-7.201c-0.771-0.701-1.641-1.303-2.541-1.807l-8.771-6.166
		c-1.797-4.248-5.851-7.283-10.66-7.549l-6.897-4.836c-1.639-2.475-4.177-4.309-7.134-5.035l-38.111-19.994
		c-1.42-1.232-3.155-2.1-5.005-2.57l-11.432-5.873l-57.188-15.018l-26.628,0.201l-24.571,4.074c-1.341,0.227-2.642,0.658-3.782,1.33
		l-26.723,14.344c-1.459,0.773-2.723,1.85-3.744,3.148l-0.041,0.057c-1.497,1.176-2.735,2.67-3.547,4.414l-5.537,7.074
		c-2.898,1.766-5.006,4.736-5.678,8.201l-2.4,3.473c-1.44,1.336-2.562,3.008-3.254,4.945l-3.189,8.273
		c-0.693,1.158-1.162,2.465-1.419,3.838l-1.345,6.576c-2.562,3.041-3.604,7.676-2.396,11.539l-0.539,2.611v3.438
		c0,0.436,0,0.895,0,1.359l0.062,8.275c-0.062,0.865-0.101,1.736,0,2.602l0.08,9.244c-0.277,2.039-0.08,4.273,0.688,6.178
		l1.828,12.217c-1.18,3.598-0.527,7.875,1.622,10.877l14.4,40.545c0.415,1.838,1.207,3.572,2.349,5.035l11.901,16.889
		c0.571,3.68,2.737,6.812,5.776,8.645l3.959,5.971c0.275,0.438,0.592,0.869,0.867,1.271l13.402,17.592l5.531,5.506
		c0.397,0.463,0.812,0.893,1.265,1.27l8.613,8.537c1.065,1.332,2.405,2.467,3.939,3.266l8.354,6.949
		c1.069,1.396,2.427,2.531,3.984,3.34l6.286,5.262c1.476,4.373,5.301,7.684,10.011,8.314l5.734,4.814
		c1.342,2.025,3.273,3.633,5.559,4.596l6.737,5.607c1.321,2.07,3.293,3.705,5.599,4.67l8.082,6.447
		c1.771,3.533,5.198,6.107,9.259,6.668l9.537,6.877c0.87,0.869,1.892,1.607,2.997,2.137l13.973,10.074l56.065,31.107l44.26,20.984
		l38.092,12.986c2.228,2.504,5.421,4.141,9.003,4.141h3.077l17.616,5.998l28.535,4.205l34.688-0.125l14.065-2.145l2.526,20.756
		l0.02,31.709l-1.558,20.121l-2.877,10.35c-0.752,1.465-1.102,2.863-1.242,4.496l-5.061,18.289
		c-0.575,1.203-0.811,2.309-1.008,3.607l-17.854,50.025c-0.22,0.463-0.339,0.869-0.495,1.33l-1.735,4.904l-1.615,3.078
		c-1.298,1.494-2.128,3.164-2.642,5.16l-54.252,105.252c-0.294,0.514-0.528,0.949-0.765,1.484l-5.34,10.344
		c-0.139,0.223-0.202,0.43-0.338,0.654l-1.653,3.242l-12.614,18.963l-19.311,34.564l-3.468,8.543l-7.036,8.875
		c-0.767,0.938-1.358,1.973-1.794,3.076l-23.765,41.744c-0.158,0.268-0.336,0.506-0.478,0.801l-18.127,31.807
		c-2.799,4.871-1.852,10.975,2.088,14.852l-0.077-0.041l-5.599-5.203c-1.143-1.732-2.721-3.141-4.531-4.141l-19.901-18.154
		c-1.186-1.936-2.938-3.527-5.007-4.533l-18.821-17.688c-0.335-0.365-0.688-0.703-1.06-1.033l-10.881-10.852
		c-0.572-0.656-1.161-1.268-1.832-1.801l-10.526-10.445l-26.13-19.883c-1.419-2.039-3.507-3.607-5.873-4.471L886.398,3358
		c-1.5-2.541-3.864-4.477-6.68-5.443l-8.673-6.244c-0.964-1.229-2.206-2.27-3.528-3.064l-9.949-8.484
		c-0.335-0.297-0.651-0.59-0.969-0.83l-11.191-8.713c-1.598-2.734-4.199-4.805-7.273-5.67l-39.91-29.791
		c-0.822-0.773-1.73-1.445-2.734-1.977l-40.457-28.439c-1.85-2.99-4.965-5.131-8.594-5.703l-8.708-5.799
		c-1.575-1.975-3.704-3.41-6.189-4.115l-26.562-18.387c-1.575-1.967-3.724-3.471-6.231-4.168l-44.81-28.367
		c-1.872-2.471-4.65-4.232-7.806-4.736l-13.082-7.947c-0.672-0.5-1.42-0.932-2.149-1.334l-13.659-8.211
		c-1.965-2.793-5.024-4.736-8.548-5.176l-11.292-6.736c-1.399-1.398-3.133-2.463-5.066-3.066l-33.975-19.596
		c-1.675-1.596-3.743-2.729-6.067-3.232l-11.629-6.166c-2.066-2.445-5.065-4.039-8.436-4.277l-17.497-8.742
		c-0.316-0.201-0.671-0.365-0.988-0.537l-15.189-7.734c-2.188-3.375-6.014-5.613-10.307-5.613l-14.781-7.471
		c-1.263-1.041-2.743-1.809-4.374-2.273l-19.787-8.482v-26.525l29.325,13.521l3.901,1.129c1.417,0.746,2.958,1.205,4.607,1.334
		l26.487,7.842c2.09,1.576,4.651,2.508,7.409,2.508l31.315,10.146l35.215,4.141l27.786-2.012h8.198c1.146,0,2.207-0.129,3.27-0.438
		l22.546-6.166c1.104-0.262,2.092-0.73,3.095-1.299l9.755-5.844c0.314-0.197,0.668-0.406,0.944-0.604l9.796-5.867
		c1.104-0.637,2.066-1.471,2.934-2.439l1.814-2.039c1.694-1.201,3.053-2.768,4.019-4.598l8.514-9.748
		c0.75-0.867,1.379-1.805,1.874-2.867l3.133-6.207c2.326-2.068,3.938-5.033,4.14-8.35l0.786-1.592
		c0.553-1.076,0.947-2.277,1.145-3.477l1.868-11.078c2.213-3.033,2.94-7.383,1.797-11.086l1.894-12.41
		c0.628-1.672,0.863-3.6,0.708-5.404c0.075-0.863,0.075-1.832-0.062-2.736l-0.594-4.268c1.402-3.773,0.655-8.414-1.67-11.551v-0.068
		c0.709-3.035,0.196-6.346-1.262-8.945l-0.59-4.295c0.314-2.373,0-4.977-1.029-7.145l-1.533-10.986l-17.68-47.846l-23.252-38.113
		c-0.532-1.666-1.436-3.199-2.579-4.473l-4.222-7.41c-0.274-0.564-0.607-1.133-0.983-1.668l-32.163-42.646l-1.931-1.938
		c-0.08-0.098-0.136-0.197-0.235-0.268l-7.056-7.006c-1.125-3.801-4.057-6.836-7.805-8.107l-26.622-28.062
		c-0.73-1.104-1.633-2.066-2.66-2.877l-2.68-2.801c-0.987-1.002-2.128-1.871-3.412-2.533l-4.526-3.338
		c-0.298-0.332-0.653-0.668-1.008-1.004l-23.492-21.422c-0.71-0.803-1.533-1.537-2.48-2.166l-15.944-14.053l-7.544-5.471
		c-1.541-2.105-3.671-3.676-6.17-4.512l-4.829-3.506c-1.616-3.736-5.084-6.467-9.219-7.17l-6.229-5.035
		c-1.387-2.004-3.256-3.545-5.522-4.482l-16.273-13.168l-11.947-7.982c-0.231-0.164-0.47-0.332-0.748-0.471l-11.154-7.404
		c-1.555-1.996-3.74-3.504-6.265-4.201l-10.208-8.213c-1.142-1.406-2.643-2.607-4.335-3.406l-19.038-9.408
		c-0.788-0.533-1.654-0.969-2.602-1.303l-36.69-21.488c-0.277-0.17-0.536-0.309-0.812-0.436l-17.205-9.547
		c-0.608-0.395-1.223-0.73-1.89-0.996l-27-12.441l-21.377-8.516l-0.338-0.137c-2.069-1.568-4.666-2.463-7.447-2.463l-25.621-7.939
		c-2.03-1.469-4.49-2.35-7.17-2.35l-35.318-10.137l-32.354-4.207l-26.645,0.168l-24.591,4.109c-1.227,0.193-2.368,0.6-3.512,1.131
		l-17.91,8.973c-3.644,0.238-6.879,2.102-8.928,4.912l-8.591,4.867c-0.47,0.275-0.928,0.604-1.342,0.906
		c-4.018,1.129-7.211,4.264-8.394,8.232l-9.281,9.279c-1.071,1.068-1.911,2.314-2.546,3.67l-2.326,5.41
		c-1.414,1.709-2.364,3.805-2.677,6.109l-2.444,5.541c-0.591,1.029-1.104,2.096-1.361,3.266l-2.501,8.641
		c-1.264,1.934-2.03,4.277-2.03,6.812c0,0.668,0,1.328,0,2.041l0.059,7.17c-0.059,0.732-0.059,1.494,0,2.193l0.08,7.516
		c-0.139,1.068-0.139,2.176,0,3.311l0.059,8.539c-0.256,1.33-0.234,2.867,0,4.197l0.017,5.674c-0.312,1.611-0.273,3.344,0.046,4.879
		l0.034,5.133c-0.706,3.24,0.042,6.947,1.891,9.619l0.419,1.791c-1.282,4.076,0,9.021,2.855,12.023l0.71,2.365
		c0.098,1.969,0.628,3.842,1.572,5.479l4.612,15.711c-0.313,3.973,1.325,7.414,3.946,9.805l6.268,13.156
		c-0.319,4.072,1.788,7.848,4.865,10.139l1.674,3.477c0.395,1.707,1.183,3.275,2.25,4.602l3.684,4.811
		c0.609,3.174,2.344,5.871,4.811,7.744l4.276,7.344c0.353,0.865,0.861,1.662,1.377,2.434l16.925,23.189l6.364,7.441
		c0.993,2.043,2.487,3.775,4.322,4.977l3.369,3.861c1.062,3.244,3.409,5.875,6.437,7.314l5.267,5.971
		c0.118,0.176,0.234,0.332,0.373,0.469l5.267,7.545l5.948,5.938c0.138,0.137,0.277,0.266,0.392,0.406l20.179,20.146
		c0.08,0.139,0.2,0.205,0.319,0.336l6.975,6.977c1.18,3.941,4.296,7.045,8.239,8.248l6.503,6.471
		c0.431,0.463,0.905,0.93,1.377,1.361l49.779,41.451l15.368,10.98c1.856,3,5.006,5.174,8.674,5.699l28.157,22.932l42.945,26.434
		c2.045,3.469,5.713,5.873,9.989,6.143l9.953,6.098c1.558,1.775,3.667,3.111,6.069,3.744l5.401,3.33l0.138,4.236
		c-0.535,2.279-0.472,4.809,0.256,7.018l0.075,2.168c-1.042,2.873-0.94,6.375,0.318,9.143l0.355,9.652l-37.445-14.492
		c-1.532-1.074-3.388-1.803-5.361-2.066l-58.566-18.293l-39.864-8.4l-31.771-4.141l-33.716-1.506
		c-1.183-0.363-2.447-0.561-3.785-0.561h-8.215c-1.399,0-2.779,0.197-4.044,0.662l-32.667,6.078l-14.9,5.342l-16.399,10.275
		c-1.061,0.66-2.006,1.467-2.833,2.391l-0.336,0.439c-1.305,1.041-2.404,2.344-3.215,3.801l-3.862,4.639
		c-4.232,1.609-7.312,5.555-7.762,10.219l-2.818,5.006c-1.48,1.539-2.543,3.396-3.055,5.541l-3.429,8.207
		c-0.314,0.799-0.589,1.635-0.786,2.529l-1.64,5.074c-2.424,3.01-3.369,7.547-2.164,11.283l-0.26,1.494
		c-2.129,2.908-2.816,7.045-1.891,10.592l-0.453,2.764l0.059,3.203c-0.059,0.707-0.059,1.369,0,2.041l0.08,7.338
		c-0.197,1.23-0.176,2.541,0.059,3.805l0.063,7.799c-0.319,1.75-0.319,3.678,0.116,5.41l1.694,7.621
		c0.044,1.662,0.392,3.27,1.063,4.672l1.005,4.57c-0.219,2.725,0.611,5.371,2.067,7.537l2.209,7.711
		c0.197,0.867,0.433,1.734,0.75,2.535l3.824,9.48c0.121,0.393,0.25,0.729,0.433,1.061l3.863,9.75
		c0.392,1.004,0.941,1.928,1.616,2.795l6.228,8.48c0.591,2.07,1.77,3.873,3.227,5.338l13.44,18.031
		c0.906,2.322,2.526,4.361,4.556,5.803l3.802,4.799c0.868,2.068,2.307,3.869,4.059,5.207l8.456,8.605
		c0.253,0.275,0.569,0.613,0.866,0.877l6.679,6.67c1.307,4.309,4.89,7.646,9.38,8.543l3.354,2.867
		c1.475,3.604,4.609,6.344,8.491,7.279l4.039,3.469l-14.623-1.029c-1.2-0.102-2.361,0-3.563,0.23l-20.634,4.805l-25.222,11.809
		c-1.738,0.506-3.354,1.398-4.654,2.543l-11.763,9.805l-8.221,10.248c-0.665,0.834-1.183,1.707-1.614,2.67l-0.847,2.039
		c-1.005,1.371-1.716,2.941-2.032,4.676l-1.101,2.529c-3.745,2.568-5.953,7.482-5.145,12.148l-0.868,4.695
		c-1.003,1.975-1.493,4.449-1.283,6.75l-0.589,3.166c-1.217,2.168-1.772,4.848-1.419,7.477l-0.119,0.463l0.083,6.949
		c-0.083,0.934-0.083,1.861,0.036,2.734l0.081,8.814c-0.496,2.729,0.078,5.734,1.378,8.039l0.549,3.104
		c-0.25,2.207,0.185,4.406,1.089,6.305l0.922,5.299c0,1.412,0.277,2.744,0.755,3.984l3.663,10.838
		c0.154,0.836,0.477,1.609,0.791,2.375l4.279,12.686l2.872,5.635c0.195,3.41,1.837,6.4,4.276,8.473l2.261,4.275
		c0.655,2.34,1.996,4.379,3.768,5.902l2.843,5.643c0.277,0.602,0.53,1.166,0.866,1.701l4.885,9.346
		c0.708,2.535,2.227,4.738,4.259,6.309l20.687,27.623c0.831,2.074,2.252,3.947,4.002,5.277l4.948,6.473
		c0.526,0.975,1.203,1.873,2.011,2.672l3.585,3.604h-5.123c-1.341,0-2.68,0.197-3.899,0.604l-24.597,8.209
		c-1.283,0.432-2.485,1.059-3.549,1.869l-10.149,7.939l-1.596,1.873c-1.85,1.262-3.344,2.996-4.294,5.066l-6.386,7.41
		c-0.097,0.131-0.195,0.27-0.335,0.404c-2.853,2.262-4.155,5.807-4.668,9.773l-0.75,1.705c-1.931,1.996-3.154,4.707-3.311,7.678
		l-1.477,3.332c-2.07,2.605-3.076,6.342-2.504,9.738c-0.158,0.869-0.233,1.805-0.158,2.68l0.275,4.865
		c-0.489,2.215-0.351,4.676,0.375,6.814l0.14,1.76c-1.203,3.174-0.962,7.047,0.591,10.049l0.85,14.754
		c-0.497,2.936,0.094,6.039,1.555,8.475l0.474,1.832c-0.532,3.344,0.434,7.105,2.5,9.717l1.539,4.207
		c0.255,2.129,1.105,4.068,2.304,5.705l9.146,22.791l8.947,17.752l23.919,35.715c0.436,0.828,0.927,1.594,1.497,2.258l17.149,21.287
		l1.418,1.406c0.49,0.535,1.059,1.066,1.616,1.57l4.45,5.105c0.872,2.207,2.285,4.078,4.14,5.406l12.968,15.213l5.322,5.275
		c0.748,0.869,1.612,1.674,2.597,2.34l20.795,19.051c0.217,0.264,0.492,0.504,0.767,0.734l9.262,8.48
		c1.339,2.602,3.588,4.666,6.311,5.77l8.59,7.877c0.056,0.039,0.056,0.068,0.116,0.139l7.726,7.072
		c1.3,2.336,3.327,4.209,5.753,5.27l5.757,5.271c1.394,3.807,4.648,6.74,8.605,7.748l4.141,3.564
		c1.482,3.104,4.198,5.479,7.55,6.514l16.83,14.541l6.723,4.879c0.924,0.936,1.988,1.732,3.208,2.34l23.092,16.812
		c1.741,3.732,5.328,6.408,9.541,6.939l8.869,6.35c1.204,1.326,2.721,2.389,4.415,3.061l12.141,7.35
		c1.869,1.93,4.337,3.33,7.111,3.736l11.566,6.068c2.152,3.803,6.152,6.338,10.804,6.338l16.436,8.65
		c3.818,2.166,8.472,2.166,12.295-0.043c3.782-2.193,6.133-6.264,6.133-10.635v-49.23c0-4.896-2.94-9.34-7.477-11.27l-5.143-2.074
		c-2.208-3.072-5.854-5.074-9.95-5.074l-32.102-20.484c-0.058-0.066-0.158-0.109-0.217-0.135l-13.202-9.412
		c-0.258-0.234-0.552-0.463-0.866-0.67l-25.958-19.951c-1.336-1.676-3.071-3.01-5.064-3.805l-5.954-4.479
		c-1.261-2.4-3.188-4.33-5.592-5.471l-1.261-1.896c-1.222-1.77-2.817-3.211-4.751-4.176l-1.989-0.697
		c-1.146-1.508-2.643-2.711-4.359-3.512l-4.473-3.57l-2.01-2.863c-0.628-1.301-1.456-2.502-2.52-3.51l-9.339-9.279
		c-0.554-0.699-1.202-1.332-1.878-1.863l-13.1-12.877l-4.731-3.143l-0.707-0.9c-1.027-2.906-3.078-5.281-5.677-6.736l-2.344-2.906
		c-0.73-2.502-2.21-4.67-4.201-6.24l-10.994-14.318l-1.896-3.867c-0.097-0.139-0.194-0.309-0.274-0.473l-2.719-5.439
		c-0.237-3.307-1.811-6.234-4.138-8.307l-1.93-3.9v-6.711l1.458-0.268l24.832,8.008c0.06,0.057,0.119,0.057,0.195,0.131
		l15.097,9.352c1.733,2.223,4.249,3.863,7.192,4.434l45.381,27.332c2.071,3.273,5.598,5.471,9.679,5.705l10.741,6.979
		c1.061,0.969,2.322,1.764,3.682,2.334l30.682,19.725c1.382,1.428,3.076,2.535,5.006,3.162l11.785,7.445
		c1.186,1.139,2.581,2.041,4.138,2.637l29.601,18.689c1.34,1.736,3.156,3.07,5.201,3.83l50.884,29.803
		c1.614,1.744,3.724,2.977,6.129,3.502l9.283,5.541c1.792,2.508,4.53,4.275,7.725,4.85l64.282,40.635
		c1.814,2.273,4.333,3.879,7.289,4.443l47.414,29.832c1.029,0.969,2.268,1.736,3.588,2.293l13.28,8.352
		c0.792,0.668,1.658,1.203,2.544,1.604l30.744,19.424c1.596,1.863,3.724,3.27,6.168,3.902l17.124,10.809
		c3.803,2.406,8.611,2.541,12.513,0.371c3.9-2.135,6.386-6.275,6.386-10.744V3833.73c0-4-1.971-7.777-5.281-10.076l-9.771-6.871
		l12.648-16.756c0.791-1.068,1.383-2.271,1.797-3.543l2.422-6.908c1.303-1.832,2.106-3.969,2.245-6.334l2.405-6.781
		c0.867-1.465,1.419-3.133,1.633-4.934l2.111-16.217l-0.159-3.531c0.28-1.736,0.222-3.639-0.255-5.305l-1.873-39.625
		c0.631-2.938-0.038-6.137-1.495-8.6l-3.235-12.621l-4.965-12.018l-2.582-4.094c-0.451-2.641-1.789-4.98-3.661-6.709l-0.241-0.604
		c0.103-4-1.474-7.578-4.195-9.977l-1.934-3.836c-0.277-3.938-2.381-7.379-5.476-9.42l-15.136-24.092
		c-0.511-4.203-3.115-7.732-6.796-9.533l-1.638-2.076c-0.829-3.504-3.153-6.414-6.227-8.008l-2.108-2.797
		c-0.709-2.475-2.188-4.611-4.12-6.15l-4.06-6.068c-0.749-2.545-2.245-4.742-4.275-6.348l-14.288-18.383
		c-0.158-0.195-0.314-0.395-0.489-0.604l-8.26-9.273c-1.025-2.234-2.719-4.105-4.791-5.379l-7.663-8.139
		c-0.221-0.197-0.418-0.391-0.61-0.6l-9.402-9.414c-0.357-0.363-0.708-0.73-1.085-1.062l-10.935-10.945
		c-0.553-0.572-1.069-1.131-1.678-1.604l-8.571-8.576c-0.571-0.666-1.18-1.299-1.853-1.828l-10.699-8.713
		c-0.887-1.045-1.969-1.914-3.215-2.609l-6.62-5.441c-1.28-3.805-4.333-6.807-8.22-7.941l-5.575-5.273
		c-1.3-1.928-3.111-3.467-5.24-4.402l-7.292-6.207c-1.181-1.67-2.782-3.01-4.571-3.873l-9.557-8.07
		c-1.264-1.939-3.096-3.479-5.223-4.443l-7.25-6.107c-1.206-1.693-2.841-3.066-4.732-4.002l-42.429-31.037
		c-0.61-0.537-1.241-0.965-1.93-1.332l-12.473-8.807c-1.618-2.207-3.904-3.875-6.659-4.68l-42.47-30.299
		c-0.651-0.535-1.3-0.998-2.03-1.4l-13.202-7.676c-1.697-1.936-4.021-3.332-6.703-3.877l-9.931-6.598
		c-1.105-1.203-2.448-2.137-3.945-2.807l-11.311-8.111c-1.611-2.299-3.979-4.039-6.778-4.836l-30.028-21.957l-5.598-4.939
		c-1.341-2.469-3.468-4.412-6.092-5.471l-20.235-17.453c-0.671-0.711-1.462-1.369-2.249-1.91l-7.606-6.467
		c-1.261-3.271-3.906-5.867-7.217-7.068l-3.465-4.115c-0.906-1.9-2.286-3.504-4.021-4.711l-23.687-27.822l-6.625-9.311
		c-0.472-1.303-1.178-2.5-2.01-3.57l-1.198-8.277c1.441-2.242,2.105-5.07,1.83-7.807l5.281-3.875l10.877-3.078l21.128-0.125
		l27.118,3.775l49.992,13.951l1.401,0.562c1.655,1.201,3.605,1.996,5.675,2.266l47.984,18.762c1.99,2.166,4.867,3.592,8.042,3.834
		l70.55,34.264l14.639,21.299c0.632,3.477,2.763,6.469,5.676,8.273l17.5,28.17l5.52,6.508c0.669,3.9,3.152,7.139,6.542,8.875
		l2.207,3.463c0.609,1.67,1.536,3.182,2.779,4.41l11.763,18.658c0.552,1.303,1.283,2.465,2.208,3.5l20.296,29.199
		c0.792,2.01,2.13,3.744,3.807,5.07l14.284,16.428c0.732,2.432,2.209,4.529,4.1,6.064l24.79,30.971
		c0.083,0.07,0.137,0.127,0.2,0.197l6.66,8.01c0.825,1.541,1.969,2.865,3.289,3.939l6.407,7.08c1.066,2.863,3.216,5.174,5.954,6.541
		l5.499,6.068c0.688,1.037,1.516,1.934,2.501,2.74l17.38,18.783c1.004,1.91,2.521,3.506,4.314,4.641l10.147,12.619l5.676,5.639
		c0.316,0.363,0.693,0.729,1.063,1.104l6.544,6.457c0.924,3.18,3.097,5.818,5.974,7.383l2.222,2.77
		c0.91,3.246,3.075,5.945,5.994,7.48l15.649,17.748c0.863,1.607,2.124,3.016,3.586,4.041l15.764,17.92
		c0.394,0.465,0.785,0.938,1.18,1.332l21.914,23.906c0.199,0.191,2.402,2.457,2.6,2.652l28.615,28.635
		c0.08,0.043,0.119,0.07,0.158,0.139l8.119,8.141c0.175,0.137,2.388,2.344,2.561,2.473l9.422,8.502
		c1.385,2.91,3.9,5.186,6.914,6.242l6.369,5.68c1.101,1.596,2.582,2.939,4.315,3.861l6.601,5.844
		c1.418,3.705,4.533,6.543,8.475,7.512l4.337,3.871c1.423,2.797,3.821,4.945,6.737,6.01l6.426,5.709
		c1.143,1.604,2.599,2.936,4.373,3.871l6.564,5.832c1.336,3.547,4.314,6.303,8.02,7.408l35.434,29.209
		c0.528,0.561,1.164,1.002,1.809,1.467l10.407,8.57l0.633,0.471c0.667,0.633,1.378,0.969,2.125,1.473l26.526,18.549
		c1.811,3.135,4.849,5.277,8.512,5.941l2.407,1.664l12.317,10.252c3.446,2.826,7.944,3.008,12.018,1.494
		c-0.413,2.871,0.395,5.775,1.937,8.041l0.252,1.234c-0.67,3.477,0.275,7.154,2.347,9.814l1.558,5.277
		c0.119,2.201,0.708,4.199,1.771,5.934l4.493,14.816c-0.411,3.346,0.687,6.744,2.721,9.217l1.616,5.301
		c0.116,0.504,0.258,0.98,0.452,1.469l12.83,35.977l9.832,19.658c0.236,0.594,0.531,1.129,0.867,1.699l2.421,5.441
		c0.277,2.166,1.107,4.141,2.349,5.803l10.933,20.217c0.161,0.336,0.277,0.67,0.478,0.943l17.38,30.303
		c0.711,2.434,2.169,4.574,4.121,6.137l1.677,2.537c0.589,3.635,2.718,6.777,5.79,8.609l18.169,28.199
		c0.314,0.635,0.711,1.271,1.183,1.838l24.556,30.699l8.021,10.01c0.866,3.076,2.878,5.646,5.537,7.244l17.852,18.355
		c0.2,0.23,0.395,0.439,0.634,0.631l11.231,11.143c0.456,0.572,0.986,1.143,1.572,1.607l8.497,8.408
		c0.611,0.736,1.263,1.4,1.993,2.006l21.082,18.219c1.579,3.27,4.557,5.709,8.122,6.6l4.096,3.342
		c1.618,3.605,4.892,6.271,8.848,7.076l23.535,17.35l2.359,1.203c2.109,2.41,5.104,3.971,8.515,4.211l11.216,5.533l6.146,2.035
		c3.098,1.039,6.463,0.803,9.401-0.664L1256.484,4187.127z M1143.253,2938.846c-1.024-0.297-1.836-1.094-2.997-1.094h-6.147
		l-51.889-17.146l-2.405-1.205c-2.065-2.375-5.046-3.939-8.333-4.166l-57.664-29.043c-1.812-1.871-4.137-3.201-6.816-3.635
		l-15.489-8.207c-0.078-0.041-0.119-0.109-0.194-0.109l-12.695-8.871c-0.925-0.934-2.029-1.701-3.228-2.27l-11.432-8.018
		c-1.344-2-3.273-3.594-5.556-4.57l-12.104-9.029c-0.414-0.268-0.803-0.506-1.238-0.744l-9.28-8.008
		c-0.08-0.029-0.08-0.07-0.119-0.129l-12.219-12.219c0-0.059-0.116-0.1-0.116-0.1c-0.02-0.025-0.083-0.094-0.083-0.094
		s-0.078-0.045-0.078-0.07c-0.041-0.029-0.097-0.072-0.097-0.072c-0.905-0.863-1.954-1.539-3.077-2.072l-18.582-17.477
		c-0.355-0.471-0.786-0.865-1.259-1.271l-7.152-8.273c-0.931-1.941-2.309-3.539-4.005-4.742l-11.214-13.145l-0.451-0.672
		c-0.749-2.6-2.329-4.867-4.417-6.441l-3.604-5.303c-0.572-2.4-1.832-4.539-3.607-6.176l-6.819-16.918
		c-0.019-0.07-0.056-0.193-0.075-0.297l-3.549-12.414v-16.721l0.969-5.176c0.414-0.863,0.667-1.803,0.867-2.77l0.922-2.932
		l7.411-6.979l7.764-2.771l14.27-1.799l28.18,6.873l9.854,4.676c1.475,1.131,3.255,2,5.161,2.404l29.363,13.943l26.093,15.654
		c0.826,0.771,1.733,1.426,2.721,1.971l20.688,15.215l42.135,35.441c1.357,2.336,3.471,4.195,5.951,5.271l8.316,7.537
		c0,0,0,0.041,0.04,0.066l22.188,22.162c0.275,0.264,0.473,0.477,0.709,0.703l16.04,17.441c0.945,1.678,2.248,3.111,3.823,4.215
		l6.938,8.914c0.036,0.033,0.058,0.102,0.08,0.16l4.529,6.682c0.652,2.459,2.13,4.625,4.102,6.209l10.048,15.711
		c0.554,2.406,1.772,4.541,3.53,6.182l12.179,17.742c0.019,0.068,0.056,0.139,0.101,0.207l13.709,23.354l6.664,14.484l-14.897,0.936
		L1143.253,2938.846z M388.668,2939.688c-1.438-1.568-3.271-2.771-5.34-3.439l-11.707-7.482c-1.103-1.02-2.404-1.857-3.881-2.461
		l-13.458-8.613c-1.798-2.23-4.379-3.799-7.292-4.332l-5.812-4.07c-1.561-2.869-4.278-5.045-7.469-5.943l-22.373-18.355
		c-1.081-1.33-2.463-2.473-3.994-3.27l-46.117-38.045c-1.263-2.334-3.27-4.193-5.755-5.34l-0.193-0.395
		c-0.593-1.205-1.401-2.281-2.329-3.215l-14.956-14.709c-0.927-1.299-2.146-2.475-3.468-3.338l-4.159-2.773l-1.461-1.998
		c-0.73-1.703-1.852-3.197-3.188-4.4l-8.158-14.225c-0.258-3.33-1.798-6.264-4.157-8.334l-5.817-23.6l1.18-6.303
		c0.063-0.139,0.119-0.266,0.163-0.404l1.967-6.139c1.464-1.871,2.406-4.139,2.561-6.67l1.003-2.012
		c1.641-0.725,3.101-1.838,4.242-3.162l10.877-4.072l12.61-1.939h11.295l19.154,3.271l40.967,15.852
		c2.209,2.131,5.245,3.428,8.558,3.428l10.914,5.648c1.816,2.266,4.497,3.932,7.491,4.434l32.238,19.029
		c1.539,1.568,3.549,2.738,5.754,3.301l45.64,26.896c2.01,3.609,5.753,6.072,10.046,6.279l11.79,7.803
		c0,0.041,0.056,0.068,0.056,0.068l25.638,19.252c0.081,0.168,0.203,0.303,0.319,0.506l-2.19,1.805
		c-2.875,0.963-5.238,3.004-6.717,5.605l-24.592,17.814l-14.35,14.355c-0.784,0.762-1.419,1.627-2.011,2.604l-4.649,8.166
		c-1.141,1.236-1.969,2.74-2.521,4.375l-3.155,5.379c-1.418,1.426-2.482,3.203-3.072,5.164l-2.883,4.904
		c-1.594,1.508-2.72,3.443-3.327,5.578l-3.604,7.547c-1.658,1.861-2.738,4.297-2.938,6.941l-1.633,3.867
		c-0.514,0.66-0.908,1.332-1.227,2.029L388.668,2939.688z M588.239,3023.953l-24.338-3.535l-13.759-4.549l-8.806-1.633
		l-29.897-10.908c-1.297-0.881-2.816-1.471-4.374-1.803l-19.016-7.814l-4.457-1.328c-1.299-0.67-2.718-1.107-4.196-1.271
		l-21.773-12.25l3.347-15.742l9.145-14.922c2.801-1.732,4.887-4.613,5.617-8.008l4.099-5.371c0.652-0.57,1.2-1.176,1.715-1.799
		l15.689-12.656l7.722-3.338c1.733-0.369,3.389-1.066,4.807-2.068l9.224-4.041l10.264-1.896l20.555-0.137l9.895,1.641l13.004,8.037
		l21.165,17.285l3.53,5.279c0.689,2.459,2.167,4.633,4.117,6.205l13.834,22.691c0.08,3.539,1.261,6.818,3.549,9.146l0.728,3.736
		c0.062,0.195,0.1,0.434,0.139,0.666l1.794,8.812c-0.14,2.131,0.251,4.068,1.06,5.832c-0.69,1.576-1.085,3.311-1.085,5.113
		c0,1.035,0.082,1.998,0.357,2.963c-1.833,2.439-2.737,5.746-2.322,8.91c-1.735,1.002-3.272,2.402-4.34,4.143l-16.274,4.539
		l-10.408,0.125C588.454,3023.982,588.315,3023.953,588.239,3023.953z M251.034,3470.453l4.045,1.732
		c2.243,2.939,5.751,4.781,9.676,4.781l14.324,7.105c1.418,1.27,3.137,2.193,5.047,2.734l38.131,19.883
		c1.399,1.277,3.091,2.213,4.962,2.676l41.841,27.301c1.891,3.064,5.007,5.236,8.693,5.803l8.608,5.74
		c1.597,1.963,3.785,3.477,6.268,4.174l12.298,8.178c0.431,0.334,0.864,0.627,1.359,0.896l11.981,7.971
		c1.835,3.078,5.006,5.281,8.728,5.848l8.514,5.641c1.575,2.027,3.787,3.529,6.304,4.268l9.716,7.746
		c0.238,0.197,0.438,0.363,0.69,0.531l11.293,9.014c1.477,2.299,3.685,4.059,6.288,5.008l40.829,36.369
		c0.867,0.799,1.853,1.469,2.879,2l2.522,1.4c0.275,0.273,0.555,0.539,0.868,0.807l9.223,9.203c0.392,0.473,0.786,0.865,1.219,1.24
		l10.916,10.906c0.477,0.547,1.006,1.076,1.621,1.537l8.528,8.545c0.533,0.668,1.124,1.271,1.797,1.799l10.425,10.379
		c0.609,0.768,1.261,1.479,2.067,2.066l4.67,5.846c0.814,1.734,1.993,3.203,3.471,4.4l14.777,17.76
		c0.771,1.732,1.912,3.27,3.333,4.504l2.242,4.135c0.536,1.836,1.465,3.539,2.699,4.908l9.441,17.055
		c0.044,0.104,0.082,0.162,0.082,0.234l1.733,7.67c0.04,1.635,0.395,3.176,0.986,4.572l1.047,7.645l-3.573,2.803l-2.736,0.734
		l-13.481-3.006l-64.672-43.018c-1.638-2.168-3.926-3.766-6.604-4.502l-9.735-5.666c-1.893-2.543-4.689-4.314-7.925-4.848
		l-29.065-19.955c-0.61-0.461-1.2-0.898-1.871-1.227l-12.891-7.344c-1.555-1.9-3.724-3.338-6.228-4.01l-28.81-18.779
		c-1.456-1.707-3.388-2.979-5.559-3.648l-29.932-19.586c-1.144-1.105-2.506-2.004-3.999-2.633l-64.44-41.119
		c-0.711-0.598-1.5-1.1-2.308-1.533l-74.193-49.219c-1.422-3.301-4.298-5.91-7.767-6.9l-6.206-6.182
		c-0.615-0.703-1.283-1.371-2.008-1.977l-6.017-5.938l-9.433-13.145c-0.219-0.395-0.494-0.801-0.773-1.199l-4.194-6.27
		c-0.67-2.35-2.011-4.348-3.768-5.885l-3.899-11.143l2.857-12.471c1.989-1.412,3.605-3.41,4.51-5.75l23.533-2.471L251.034,3470.453z
		 M1012.519,3640.018l30.864,26.059l2.56,2.172c0.039,0.031,0.039,0.094,0.078,0.168l-33.677-28.439
		C1012.399,3640.018,1012.481,3639.977,1012.519,3640.018z M944.451,3715.195l-8.14-6.402c-1.044-1.174-2.261-2.141-3.643-2.873
		l-9.164-7.207c-1.54-2.84-4.14-5.006-7.35-5.941l-32.835-28.734c-0.864-1.061-1.929-1.971-3.07-2.701l-20.497-18.354
		c-1.259-2.143-3.19-3.902-5.515-4.934l-27.118-27.504c-0.989-1.799-2.407-3.342-4.141-4.473l-6.796-6.938
		c-1.124-1.635-2.662-3.002-4.473-3.939l-4.535-3.998c-1.379-3.307-4.137-5.885-7.602-7.01l-4.693-5.283
		c-1.064-2.6-2.998-4.729-5.441-6.064l-7.233-7.943c-0.196-0.197-0.39-0.375-0.57-0.533l-18.644-20.43
		c-0.627-0.932-1.38-1.73-2.204-2.469l-4.81-5.4c-1.061-2.736-3.071-4.975-5.559-6.344l-11.525-14.279l-5.676-5.646
		c-0.336-0.367-0.654-0.699-1.046-1.033l-25.522-28.428c-0.924-2.207-2.463-4.01-4.391-5.338l-20.775-25.168l-5.732-5.701
		c-0.254-0.309-0.61-0.631-0.926-0.9l-15.961-17.42c-0.786-1.396-1.792-2.604-3.074-3.578l-6.801-8.035
		c-0.885-1.865-2.262-3.471-4-4.676l-3.661-4.398c-1.049-2.809-3.037-5.105-5.617-6.547l-5.265-7.172
		c-0.475-0.938-1.066-1.771-1.774-2.57l-6.011-6.742c-1.1-2.6-3.034-4.77-5.497-6.141l-14.148-18.623
		c-0.158-0.197-0.277-0.4-0.418-0.602l-20.906-24.621l135.447,81.223l5.613,3.832c1.458,1.77,3.469,3.141,5.676,3.84l26.763,18.223
		c1.574,2.168,3.92,3.803,6.657,4.543l12.178,8.207c0.397,0.268,0.832,0.533,1.246,0.801l10.838,7.209
		c1.633,2.025,3.844,3.537,6.445,4.271l8.943,6.508c1.456,2.564,3.863,4.576,6.662,5.537l10.76,8.309
		c0.195,0.141,0.334,0.23,0.533,0.361l24.77,17.922c1.794,3.676,5.321,6.311,9.58,6.811l5.281,4.473
		c1.279,2.074,3.188,3.736,5.418,4.744l20.395,15.91c1.578,3.943,5.163,6.68,9.439,7.379l7.075,5.502
		c1.146,1.475,2.445,2.41,4.136,3.238l11.178,8.75c0.295,0.268,0.571,0.436,0.867,0.662l7.469,5.844l4.177,3.504
		c1.38,2.133,3.232,3.83,5.632,4.77l71.993,60.803c0.039,0.033,0.039,0.104,0.059,0.174l-25.342-20.695
		c-2.817-2.066-6.35-2.902-9.754-2.236c-3.41,0.66-6.408,2.77-8.222,5.744l-4.829,8.436c-1.239,1.4-2.146,3.07-2.638,4.941
		l-4.472,14.617l-1.164,16.721c-1.005,2.365-1.16,5.242-0.532,7.771l-0.377,5.439v0.871c0,0.764,0,1.604,0.062,2.369l0.195,6.17
		c-0.395,1.834-0.313,3.9,0.158,5.771l0.117,5.373c-0.784,2.574-0.711,5.605,0.237,8.082l0.037,1.432
		c-1.199,2.971-1.059,6.678,0.28,9.543v0.064c-0.517,1.066,0.057,2.309-0.122,3.51
		C948.966,3717.434,946.975,3715.828,944.451,3715.195z M1194.687,3875.918l-30.035-14.025c-2.205-3.301-5.809-5.598-10.05-5.598
		h-1.93l-14.33-6.676c-1.3-1.264-3.03-1.699-4.806-2.309l-18.068-9.971c-2.286-1.271-4.809-1.58-7.335-1.305
		c-0.231,0-0.434-0.234-0.687-0.234c-1.875,0-3.607,0.404-5.146,1.135c-0.395-0.836-0.824-1.604-1.358-2.334
		c0.627-2.408,0.375-5.273-0.571-7.607l-0.197-2.504c1.654-3.635,1.303-8.441-0.866-11.783l-0.14-2.07
		c0.178-1.596,0.056-3.33-0.374-4.838l-0.238-2.908c1.141-3.133,0.81-6.871-0.687-9.707l-0.847-14.777
		c0.275-1.678,0.234-3.344-0.119-4.875l-0.14-4.201c0.611-2.273,0.534-4.943-0.197-7.215l-0.136-4.033
		c1.064-2.873,0.944-6.447-0.277-9.283v-0.297c1.422-3.104,1.342-7.076-0.06-10.107c1.539-3.441,1.345-8.039-0.588-11.354
		l-0.337-12.572c0-0.277-0.044-0.545-0.082-0.77c0.2,0.154,0.517,0.098,0.673,0.27l20.888,23.287
		c0.711,0.84,1.538,1.531,2.407,2.141l76.974,81.191l7.229,9.605c0.81,1.807,1.873,3.203,3.373,4.447l5.302,7.033
		c0.571,1.006,1.1,1.834,1.946,2.639l7.214,12.449l3.114,7.203c0.277,0.502,0.142,1.201,0.473,1.67
		c-0.769,2.896-0.195,6.072,1.145,8.611l-0.438,2.131c-0.234,0.602-0.513,1.172-0.629,1.805l-2.483,0.668
		c-1.299,0-2.638,0.201-3.901,0.604l-2.737,0.938L1194.687,3875.918z"/>
</g>
<path fill="#F40009" d="M1266.598,3660.514c-57.408-176.688-78.125-337.521-62.785-467.021
	c15.857-130.152,85.722-700.85,87.557-737.02c1.439-35.788-4.458-36.043-8.261-40.373c-4.847-4.458-13.366,5.896-10.75-40.374
	c6.688-134.608-47.575-660.868-54.13-701.37c-6.551-40.769-20.052-20.314,0-54.142c20.577-33.546,20.315-33.546,13.37-67.234
	c-6.815-34.082-19.921-108.131-100.661-324.009c-81.532-216.146-162.405-485.758-189.272-789.593
	c-0.396-30.936,5.373-50.333,17.958-54.129c12.71-4.202,16.772-12.851,18.082-32.515c1.575-19.258-11.269-48.882-22.279-68.547
	c-11.139-19.269-22.021-34.872-5.896-46.143c16.907-11.271,25.822-1.438,25.822-1.438c0-40.374,26.606-170.652-162.533-170.652
	c-190.847,0-71.826,0-258.869,0c-189.273,0-162.399,130.278-162.399,170.652c0,0,7.991-9.833,24.638,1.438
	c17.302,11.271,6.031,26.874-5.375,46.143c-11.272,19.665-23.855,49.022-22.282,68.42c1.446,19.792,5.636,28.312,18.092,32.502
	c12.45,4.203,18.086,23.333,17.563,54.269c-26.479,303.834-106.959,573.447-187.438,789.593
	c-80.606,216.005-94.241,290.194-101.055,324.009c-6.814,33.688-6.814,33.688,13.373,67.234c20.442,33.828,6.942,13.373,0,54.142
	c-6.558,40.501-59.904,566.761-53.873,701.37c3.012,46.271-5.503,35.916-9.7,40.374c-4.591,4.33-9.959,4.585-8.52,40.373
	c1.05,35.776,71.169,607.263,86.772,737.02c15.334,129.5-5.375,290.333-62.656,467.021c-56.23,176.296-25.556,327.027-9.961,399.242
	c15.73,72.622,186.127,155.854,589.834,155.854h3.928c405.017,0,575.812-83.231,591.668-155.854
	C1292.284,3987.541,1323.48,3836.81,1266.598,3660.514z"/>
</svg>
