<?xml version="1.0" encoding="utf-8"?>
<!-- Generator: Adobe Illustrator 16.0.0, SVG Export Plug-In . SVG Version: 6.00 Build 0)  -->
<!DOCTYPE svg PUBLIC "-//W3C//DTD SVG 1.1//EN" "http://www.w3.org/Graphics/SVG/1.1/DTD/svg11.dtd">
<svg version="1.1" id="Layer_1" xmlns="http://www.w3.org/2000/svg" xmlns:xlink="http://www.w3.org/1999/xlink" x="0px" y="0px"
	 width="1031.794px" height="1571.686px" viewBox="0 0 1031.794 1571.686" enable-background="new 0 0 1031.794 1571.686"
	 xml:space="preserve">
<g>
	<g>
		<path fill="#F40009" d="M719.536,324.92c0-133.229-101.036-241.253-227-241.253c-125.965,0-227,108.023-227,241.253v422.922h454
			V324.92z M337.152,685.033c-17.173,0-31.106-13.89-31.106-31.046c0-17.17,13.933-31.067,31.106-31.067
			c17.173,0,31.106,13.897,31.106,31.067C368.259,671.143,354.326,685.033,337.152,685.033z M337.152,589.97
			c-17.173,0-31.106-13.889-31.106-31.046c0-17.169,13.933-31.065,31.106-31.065c17.173,0,31.106,13.896,31.106,31.065
			C368.259,576.081,354.326,589.97,337.152,589.97z M337.152,494.916c-17.173,0-31.106-13.897-31.106-31.047
			c0-17.176,13.933-31.065,31.106-31.065c17.173,0,31.106,13.89,31.106,31.065C368.259,481.018,354.326,494.916,337.152,494.916z
			 M337.152,399.853c-17.173,0-31.106-13.896-31.106-31.046c0-17.17,13.933-31.066,31.106-31.066
			c17.173,0,31.106,13.896,31.106,31.066C368.259,385.958,354.326,399.853,337.152,399.853z M337.152,304.79
			c-17.173,0-31.106-13.889-31.106-31.045c0-17.17,13.933-31.066,31.106-31.066c17.173,0,31.106,13.896,31.106,31.066
			C368.259,290.901,354.326,304.79,337.152,304.79z M433.915,685.033c-17.173,0-31.106-13.89-31.106-31.046
			c0-17.17,13.933-31.067,31.106-31.067c17.173,0,31.107,13.897,31.107,31.067C465.021,671.143,451.088,685.033,433.915,685.033z
			 M433.915,589.97c-17.173,0-31.106-13.889-31.106-31.046c0-17.169,13.933-31.065,31.106-31.065
			c17.173,0,31.107,13.896,31.107,31.065C465.021,576.081,451.088,589.97,433.915,589.97z M433.915,494.916
			c-17.173,0-31.106-13.897-31.106-31.047c0-17.176,13.933-31.065,31.106-31.065c17.173,0,31.107,13.89,31.107,31.065
			C465.021,481.018,451.088,494.916,433.915,494.916z M433.915,399.853c-17.173,0-31.106-13.896-31.106-31.046
			c0-17.17,13.933-31.066,31.106-31.066c17.173,0,31.107,13.896,31.107,31.066C465.021,385.958,451.088,399.853,433.915,399.853z
			 M433.915,304.79c-17.173,0-31.106-13.889-31.106-31.045c0-17.17,13.933-31.066,31.106-31.066
			c17.173,0,31.107,13.896,31.107,31.066C465.021,290.901,451.088,304.79,433.915,304.79z M433.915,221.841
			c-17.173,0-31.106-13.889-31.106-31.046c0-17.169,13.933-31.065,31.106-31.065c17.173,0,31.107,13.896,31.107,31.065
			C465.021,207.952,451.088,221.841,433.915,221.841z M627.476,242.679c17.174,0,31.107,13.896,31.107,31.066
			c0,17.156-13.934,31.045-31.107,31.045c-17.173,0-31.105-13.889-31.105-31.045C596.37,256.575,610.303,242.679,627.476,242.679z
			 M530.714,685.033c-17.173,0-31.105-13.89-31.105-31.046c0-17.17,13.933-31.067,31.105-31.067s31.105,13.897,31.105,31.067
			C561.819,671.143,547.887,685.033,530.714,685.033z M530.714,589.97c-17.173,0-31.105-13.889-31.105-31.046
			c0-17.169,13.933-31.065,31.105-31.065s31.105,13.896,31.105,31.065C561.819,576.081,547.887,589.97,530.714,589.97z
			 M530.714,494.916c-17.173,0-31.105-13.897-31.105-31.047c0-17.176,13.933-31.065,31.105-31.065s31.105,13.89,31.105,31.065
			C561.819,481.018,547.887,494.916,530.714,494.916z M530.714,399.853c-17.173,0-31.105-13.896-31.105-31.046
			c0-17.17,13.933-31.066,31.105-31.066s31.105,13.896,31.105,31.066C561.819,385.958,547.887,399.853,530.714,399.853z
			 M530.714,304.79c-17.173,0-31.105-13.889-31.105-31.045c0-17.17,13.933-31.066,31.105-31.066s31.105,13.896,31.105,31.066
			C561.819,290.901,547.887,304.79,530.714,304.79z M530.714,221.841c-17.173,0-31.105-13.889-31.105-31.046
			c0-17.169,13.933-31.065,31.105-31.065s31.105,13.896,31.105,31.065C561.819,207.952,547.887,221.841,530.714,221.841z
			 M627.476,685.033c-17.173,0-31.105-13.89-31.105-31.046c0-17.17,13.933-31.067,31.105-31.067
			c17.174,0,31.107,13.897,31.107,31.067C658.583,671.143,644.649,685.033,627.476,685.033z M627.476,589.97
			c-17.173,0-31.105-13.889-31.105-31.046c0-17.169,13.933-31.065,31.105-31.065c17.174,0,31.107,13.896,31.107,31.065
			C658.583,576.081,644.649,589.97,627.476,589.97z M627.476,494.916c-17.173,0-31.105-13.897-31.105-31.047
			c0-17.176,13.933-31.065,31.105-31.065c17.174,0,31.107,13.89,31.107,31.065C658.583,481.018,644.649,494.916,627.476,494.916z
			 M627.476,399.853c-17.173,0-31.105-13.896-31.105-31.046c0-17.17,13.933-31.066,31.105-31.066
			c17.174,0,31.107,13.896,31.107,31.066C658.583,385.958,644.649,399.853,627.476,399.853z"/>
		<path fill="#F40009" d="M264.247,895.179c0,133.237,102.147,241.26,228.112,241.26c125.965,0,228.11-108.023,228.11-241.26
			v-79.041H264.247V895.179z"/>
	</g>
	<g>
		<path fill="#090400" d="M555.536,1368.779v-132.688c164-27.907,299.156-176.937,304.256-358.242
			c24.307-10.977,39.576-35.342,39.576-63.776c0-38.702-32.279-70.048-70.838-70.048c-38.64,0-70.493,31.346-70.493,70.048
			c0,34.207,24.271,62.581,56.675,68.733C806.61,1058.894,664.714,1199.7,490.958,1199.7
			c-173.759,0-315.769-140.826-323.869-316.934c32.158-6.3,56.538-34.627,56.538-68.693c0-38.702-31.471-70.048-70.033-70.048
			c-38.639,0-70.068,31.346-70.068,70.048c0,28.595,19.525,53.12,44.071,63.997c5.1,178.011,137.939,325.05,300.939,356.624v133.559
			c-123,10.048-267.532,49.59-311.395,127.59h746.872C820.878,1417.842,678.536,1379.475,555.536,1368.779z"/>
		<path fill="#F40009" d="M886.369,1495.842h-22.355H117.142H98.349c-11.462,0-20.738,9.034-20.738,20.499
			c0,11.466,9.276,20.501,20.738,20.501h7.288h769.877h10.855c11.462,0,20.738-9.035,20.738-20.501
			C907.107,1504.876,897.831,1495.842,886.369,1495.842z"/>
	</g>
</g>
</svg>
